<?xml version="1.0" encoding="utf-8"?>
<!-- Generator: Adobe Illustrator 22.1.0, SVG Export Plug-In . SVG Version: 6.00 Build 0)  -->
<svg version="1.1" xmlns="http://www.w3.org/2000/svg" xmlns:xlink="http://www.w3.org/1999/xlink" x="0px" y="0px"
	 viewBox="0 0 750 500" style="enable-background:new 0 0 750 500;" xml:space="preserve">
<style type="text/css">
	.st0{display:none;}
	.st1{display:inline;}
	.st2{fill:#E0E0E0;}
	.st3{fill:#F5F5F5;}
	.st4{fill:#EBEBEB;}
	.st5{fill:#455A64;}
	.st6{fill:#C0392B;}
	.st7{fill:#FFFFFF;}
	.st8{fill:#263238;}
	.st9{fill:#F1C40F;}
	.st10{fill:#FFBE9D;}
	.st11{fill:#EB996E;}
	.st12{fill:#B78876;}
	.st13{fill:#A36957;}
	.st14{fill:none;stroke:#4E585D;stroke-width:5.000000e-02;stroke-miterlimit:10;}
	.st15{opacity:0.2;}
	.st16{fill:#FAFAFA;}
</style>
<g id="Background_Complete" class="st0">
	<g class="st1">
		<g>
			<path class="st2" d="M231.7,87.1c2.6-1.1,4.4-3.7,4.4-6.8c0-4.1-3.1-7.4-6.9-7.4c-3.8,0-6.9,3.3-6.9,7.3c0,3.1,1.8,5.8,4.4,6.9
				c-10.6,1.6-10.2,13.2-10.2,13.2l25.2,0.1C241.7,100.3,242.3,88.7,231.7,87.1z"/>
		</g>
		<g>
			<polygon class="st3" points="640.3,147.9 628.6,135.3 632.4,131.8 640.5,140.5 657.4,123.8 661,127.5 			"/>
		</g>
		<path class="st4" d="M471,216.6c0-8.6-9-14-18.2-9.7c-2.1,1-3.8,2.6-4.8,4.6c-2.3,4.5-1.3,9.6,0.8,13.8l7.2,18.1
			c1,2.6,4.7,2.6,5.7,0l7-18.2C471.1,219.7,471,216.6,471,216.6z M462.4,224c-6.2,3.6-12.4-3-9.1-9.6c0.5-0.9,1.1-1.6,2-2.1
			c6.2-3.6,12.4,3,9.1,9.6C463.9,222.8,463.2,223.6,462.4,224z"/>
		<g>
			<g>
				<path class="st4" d="M577.4,341.2c-19.3-17.6-20.4-45.5-16.2-69.9c0.7-4.1,0.8-8.4,3.3-11.8c2.5-3.3,7.4-5.1,10.9-2.9
					c2.9,1.9,3.7,5.6,5.1,8.7c1.8,4.2,4.7,7.9,8.5,10.5c2.5,1.7,5.6,3,8.4,1.9c3.8-1.5,4.9-6.3,5.5-10.3c1-7.6,2-15.2,3-22.7
					c0.5-4.1,1.1-8.2,2.9-11.9c1.8-3.7,5.1-6.9,9.2-7.4c4.1-0.5,8.6,2.4,8.9,6.4c0.1,1.7-0.5,3.4-0.6,5.1c-0.1,1.7,0.4,3.7,2,4.4
					c1.6,0.7,3.4-0.2,4.8-1.2c4.8-3.5,8.4-8.4,11.8-13.3c3.4-4.9,6.8-9.9,11.2-13.9c4.5-3.9,10.3-6.8,16.2-6.3
					c5.9,0.5,11.7,4.9,12.4,10.9c0.7,5.9-3.5,11.3-7.8,15.4c-6.4,6.1-13.7,11.3-21.6,15.4c-1.4,0.7-3,1.5-3.7,3
					c-1.3,2.6,1,5.6,3.6,6.9c2.9,1.4,6.3,1.6,9.5,2.4c3.2,0.8,6.4,2.7,7.3,5.9c1.1,4.4-3,8.3-6.9,10.6c-7.7,4.8-16.3,8.2-25.1,10.1
					c-3.2,0.7-6.5,1.2-9.2,3c-2.7,1.8-4.7,5.2-3.6,8.3c1.1,3.1,4.7,4.5,8,4.4c3.3-0.1,6.3-1.5,9.5-2.2c5.9-1.3,13.2,0.1,16.2,5.4
					c1.9,3.5,1.6,7.9-0.2,11.6c-1.7,3.6-4.6,6.5-7.6,9.2c-10.5,9.3-23.3,16.1-37,18.8C602.1,348.1,589.8,347.7,577.4,341.2"/>
			</g>
			<g>
				<g>
					<path class="st2" d="M578.9,351.1c2.2-9.6,1.7-12.5,7-24.4c5.3-11.8,12.3-24.4,20-37.2c1.9-3.2,3.9-6.4,5.8-9.5
						c1.9-3.1,3.8-6.2,5.8-9.1c4-5.8,8.3-11.1,12.6-16c4.3-4.9,8.5-9.4,12.5-13.6c4-4.2,7.8-8,11.4-11.3
						c7.2-6.7,13.6-11.4,18.2-14.5c2.3-1.5,4.1-2.7,5.3-3.4c0.6-0.4,1.1-0.6,1.4-0.8c0.3-0.2,0.5-0.3,0.5-0.3s-0.1,0.1-0.5,0.3
						c-0.3,0.2-0.8,0.5-1.4,0.9c-1.2,0.8-3,2-5.2,3.5c-4.5,3.1-10.9,7.9-18,14.6c-3.6,3.3-7.4,7.2-11.3,11.4
						c-4,4.2-8.2,8.7-12.4,13.6c-4.2,4.9-8.5,10.2-12.5,16c-2,2.9-3.9,5.9-5.8,9.1c-1.9,3.1-3.8,6.3-5.7,9.5
						c-7.7,12.8-14.7,25.3-20,37.1c-5.4,11.8-4.8,14.7-7.1,24.2"/>
				</g>
			</g>
			<g>
				<g>
					<path class="st2" d="M617.7,270.9c0,0-0.1-0.6-0.1-1.8c-0.1-1.2-0.1-2.8-0.1-4.9c0-4.1,0.1-9.8,0.3-16.1
						c0.2-6.3,0.3-12,0.2-16.1c0-2.1-0.1-3.7-0.2-4.9c-0.1-1.2-0.1-1.8,0-1.8c0,0,0.1,0.6,0.3,1.8c0.1,1.1,0.3,2.8,0.4,4.9
						c0.2,4.1,0.2,9.8,0,16.1c-0.2,6.2-0.4,11.9-0.5,16.1c0,2-0.1,3.6-0.1,4.9C617.7,270.3,617.7,270.9,617.7,270.9z"/>
				</g>
			</g>
			<g>
				<g>
					<path class="st2" d="M671.9,268.4c0,0-0.2,0-0.6,0c-0.4,0-1,0-1.6-0.1c-1.4-0.1-3.4-0.2-5.8-0.3c-4.9-0.2-11.7-0.1-19.2,0.2
						c-7.5,0.4-14.3,1-19.2,1.6c-2.4,0.3-4.4,0.6-5.8,0.8c-0.6,0.1-1.1,0.2-1.6,0.2c-0.4,0-0.6,0.1-0.6,0c0,0,0.2-0.1,0.5-0.2
						c0.4-0.1,0.9-0.2,1.6-0.3c1.4-0.3,3.3-0.6,5.8-1c4.9-0.7,11.7-1.4,19.2-1.8c7.5-0.4,14.3-0.3,19.3,0c2.5,0.1,4.5,0.3,5.8,0.5
						c0.6,0.1,1.1,0.1,1.6,0.2C671.8,268.4,671.9,268.4,671.9,268.4z"/>
				</g>
			</g>
			<g>
				<g>
					<path class="st2" d="M586.7,325.8c0,0-0.1-0.2-0.3-0.7c-0.2-0.5-0.4-1.2-0.6-2c-0.5-1.8-1.3-4.3-2.1-7.5
						c-1.7-6.3-3.8-15.2-6-24.9c-2.2-9.8-4.2-18.6-5.9-25c-0.8-3.1-1.5-5.7-1.9-7.5c-0.2-0.8-0.4-1.5-0.5-2
						c-0.1-0.5-0.2-0.7-0.1-0.7c0,0,0.1,0.2,0.3,0.7c0.2,0.5,0.4,1.2,0.6,2c0.5,1.8,1.3,4.3,2.1,7.5c1.7,6.3,3.8,15.2,6,24.9
						c2.2,9.8,4.2,18.6,5.9,25c0.8,3.1,1.5,5.7,1.9,7.5c0.2,0.8,0.4,1.5,0.5,2C586.6,325.6,586.7,325.8,586.7,325.8z"/>
				</g>
			</g>
			<g>
				<g>
					<path class="st2" d="M660.1,313.1c0,0-0.3,0.1-0.7,0.2c-0.6,0.1-1.3,0.2-2.1,0.4c-1.9,0.3-4.6,0.8-7.9,1.4
						c-6.6,1.1-15.8,2.8-25.9,4.8c-10.1,1.9-19.3,3.5-26,4.6c-3.3,0.5-6,0.9-7.9,1.2c-0.9,0.1-1.6,0.2-2.2,0.3
						c-0.5,0.1-0.8,0.1-0.8,0.1c0,0,0.3-0.1,0.7-0.2c0.6-0.1,1.3-0.2,2.1-0.4c1.9-0.3,4.6-0.8,7.9-1.4c6.6-1.1,15.8-2.9,25.9-4.8
						c10.1-1.9,19.3-3.5,25.9-4.6c3.3-0.5,6-0.9,7.9-1.2c0.9-0.1,1.6-0.2,2.2-0.3C659.8,313.1,660.1,313.1,660.1,313.1z"/>
				</g>
			</g>
		</g>
		<g>
			<path class="st4" d="M58.3,218.5c0,0,6-6.8,19.5,8.2c13.6,15,19.7,24.1,19.7,24.1s3.3,3,5.2-0.1c1.9-3.1,3.4-10.7,8-10.7
				c4.8,0.1,7.5,4.6,8.7,12c1.1,7.5,4.2,23.7,4.5,25.2c0.3,1.4,1.7,3.3,3.2,1.4c1.6-1.9,9.5-17.5,16.7-13.4
				c7.2,4.2,6.9,25.5,6.9,27.8c0,2.3,0.7,3.1,1.9,3.4c1.2,0.3,3.3-5.3,5.7-9.6c2.4-4.4,6-9,9.9-6.2s8.9,17.3,1.4,45.2l-4.3,12.7
				l-13.2,2.8c-28.6,4.3-42.5-2.3-44.8-6.6c-2.3-4.2,2.7-7.3,7.3-9.2c4.6-1.9,10.3-3.4,10.2-4.6c-0.1-1.2-0.8-2-3.2-2.2
				c-2.3-0.3-23.5-2.5-26.8-10.1c-3.3-7.6,13.1-13.7,15.2-15c2.1-1.4,0.4-2.9-1-3.4c-1.4-0.4-17.2-5.4-24.5-7.3
				c-7.3-2-11.5-5.3-11-10c0.5-4.6,8.3-5.3,11.5-6.7c3.3-1.5,0.7-5.1,0.7-5.1s-8.3-7.1-21.7-22.3c-13.3-15.2-5.7-20.4-5.7-20.4"/>
			<g>
				<path class="st2" d="M70.5,231.8c0,0,0.1,0.1,0.3,0.3c0.2,0.2,0.4,0.5,0.7,0.8c0.7,0.7,1.6,1.8,2.8,3.1
					c2.4,2.7,5.9,6.6,10.2,11.4c8.6,9.6,20.5,22.9,33.7,37.6c13.2,14.7,25.1,28,33.6,37.7c4.2,4.9,7.6,8.8,10,11.5
					c1.2,1.4,2.1,2.4,2.7,3.2c0.3,0.3,0.5,0.6,0.7,0.8c0.2,0.2,0.2,0.3,0.2,0.3c0,0-0.1-0.1-0.3-0.3c-0.2-0.2-0.4-0.5-0.7-0.8
					c-0.7-0.7-1.6-1.8-2.8-3.1c-2.4-2.7-5.9-6.6-10.2-11.4c-8.6-9.7-20.5-22.9-33.7-37.6c-13.2-14.7-25-28-33.6-37.7
					c-4.2-4.9-7.6-8.8-10-11.5c-1.2-1.4-2.1-2.4-2.7-3.2c-0.3-0.3-0.5-0.6-0.7-0.8C70.5,231.9,70.5,231.8,70.5,231.8z"/>
			</g>
			<g>
				<path class="st2" d="M108.9,250.8c0.1,0,0.1,1.4,0.2,3.6c0.1,2.4,0.2,5.4,0.3,8.7c0.1,3.4,0.2,6.5,0.2,8.7c0,1.1,0,2-0.1,2.6
					c0,0.6-0.1,1-0.1,1c-0.1,0-0.1-1.4-0.2-3.6c-0.1-2.4-0.2-5.4-0.3-8.7c-0.1-3.4-0.2-6.5-0.1-8.7c0-1.1,0-2,0.1-2.6
					C108.8,251.2,108.9,250.8,108.9,250.8z"/>
			</g>
			<g>
				<path class="st2" d="M108.2,276c0,0.1-6.4,0.2-14.2,0.1c-7.8-0.1-14.2-0.3-14.2-0.5c0-0.1,6.4-0.2,14.2-0.1
					C101.9,275.6,108.2,275.9,108.2,276z"/>
			</g>
			<g>
				<path class="st2" d="M132.7,300.8c0,0-0.3,0.2-0.9,0.4c-0.6,0.2-1.5,0.5-2.6,0.9c-2.2,0.7-5.2,1.6-8.6,2.3
					c-3.4,0.8-6.5,1.3-8.7,1.7c-1.1,0.2-2,0.3-2.7,0.4c-0.6,0.1-1,0.1-1,0.1c0-0.1,1.4-0.3,3.6-0.8c2.2-0.4,5.3-1,8.7-1.8
					c3.4-0.8,6.4-1.6,8.6-2.2C131.3,301.1,132.7,300.7,132.7,300.8z"/>
			</g>
			<g>
				<path class="st2" d="M138.3,278.1c0.1,0-0.2,1.3-0.7,3.3c-0.5,2-1.2,4.9-2,8c-0.8,3.1-1.6,5.9-2.2,7.9c-0.6,2-1,3.3-1,3.2
					c-0.1,0,0.2-1.3,0.7-3.3c0.5-2,1.2-4.9,2-8c0.8-3.1,1.6-5.9,2.2-7.9C137.8,279.3,138.2,278.1,138.3,278.1z"/>
			</g>
			<g>
				<path class="st2" d="M162.7,297.2c0,0,0,0.4-0.2,1.2c-0.2,0.8-0.5,1.9-0.8,3.1c-0.7,2.6-1.6,6.2-2.7,10.2
					c-1.1,4-2.1,7.6-2.8,10.1c-0.4,1.2-0.7,2.2-0.9,3.1c-0.2,0.7-0.4,1.1-0.4,1.1c0,0,0-0.4,0.2-1.2c0.2-0.8,0.5-1.9,0.8-3.1
					c0.7-2.6,1.6-6.2,2.7-10.2c1.1-4,2.1-7.6,2.8-10.1c0.4-1.2,0.7-2.2,0.9-3.1C162.5,297.6,162.7,297.2,162.7,297.2z"/>
			</g>
			<g>
				<path class="st2" d="M154.9,325.2c0,0-0.4,0.2-1.2,0.4c-0.8,0.2-1.9,0.6-3.3,0.9c-2.8,0.7-6.7,1.7-11,2.6
					c-4.3,0.9-8.3,1.5-11.1,1.9c-1.4,0.2-2.6,0.3-3.4,0.4c-0.8,0.1-1.3,0.1-1.3,0.1c0,0,0.4-0.1,1.2-0.3c0.9-0.2,2-0.4,3.4-0.6
					c2.8-0.5,6.8-1.2,11.1-2.1c4.3-0.9,8.2-1.8,11-2.4c1.3-0.3,2.4-0.6,3.3-0.8C154.4,325.3,154.8,325.2,154.9,325.2z"/>
			</g>
		</g>
	</g>
</g>
<g id="Background_Simple">
	<path class="st4" d="M530.3,389.6c40.8,0.3,79.2-19.2,102.9-52.4c0.2-0.2,0.3-0.4,0.5-0.6c24.8-34.9,29.3-80.9,22.1-123
		c-5.1-29.6-16.4-59.5-39-79.4c-20.2-17.8-47.4-25.8-74.2-28c-42.2-3.5-85.5,6.5-121.5,28.8c-26.5,16.4-49.3,39.5-78.6,50.2
		c-61.8,22.6-135.6-14.9-194.5,14.4c-39.4,19.6-60.7,69.4-47.8,111.4c10.2,33.3,35.5,57.9,71.7,69.7c13.7,4.5,28.2,6.6,42.6,6.7
		L530.3,389.6z"/>
</g>
<g id="Icons">
	<g>
		<g>
			<path class="st5" d="M105.9,241.6c0,0,0.6,0.1,1.4-0.5c0.4-0.3,0.8-0.8,1-1.5c0.1-0.3,0.1-0.7,0.1-1.2c0-0.4,0-0.9,0-1.4
				c0-3.9,0.1-9.4,0.1-16.2c0-1.7,0-3.5,0.1-5.4c0-0.9,0-1.9,0-2.9c0-0.5,0-1,0-1.4c-0.1-0.4-0.3-0.9-0.6-1.2
				c-0.3-0.3-0.7-0.6-1.2-0.6c-0.4-0.1-1,0-1.5,0c-1,0-2.1,0-3.2,0c-2.1,0-4.4,0-6.6,0c-9.1,0-19,0-29.5,0c-1.2,0-2.2,1-2.3,2.2
				c0,1.3,0,2.6-0.1,3.8c0,2.5-0.1,5.1-0.1,7.5c-0.1,4.9-0.1,9.7-0.2,14.2c0,0.6,0,1.1,0,1.7c0,0.5,0.1,1,0.4,1.5
				c0.3,0.4,0.7,0.8,1.1,0.9c0.5,0.2,1,0.1,1.5,0.2c2.1,0,4.2,0,6.2,0c4,0,7.8,0,11.2,0c6.8,0,12.4,0.1,16.2,0.1c1.9,0,3.4,0,4.4,0
				c0.5,0,0.9,0,1.1,0C105.8,241.6,105.9,241.6,105.9,241.6s-0.1,0-0.4,0c-0.3,0-0.7,0-1.1,0c-1,0-2.5,0-4.4,0
				c-3.9,0-9.4,0-16.2,0.1c-3.4,0-7.2,0-11.2,0c-2,0-4.1,0-6.2,0c-0.5,0-1.1,0.1-1.7-0.2c-0.6-0.2-1-0.6-1.4-1.1
				c-0.3-0.5-0.5-1.1-0.4-1.7c0-0.6,0-1.1,0-1.7c0.1-4.5,0.1-9.3,0.2-14.2c0-2.5,0.1-5,0.1-7.5c0-1.3,0-2.6,0.1-3.9
				c0.1-1.4,1.4-2.7,2.8-2.7c10.5,0,20.4,0,29.5,0c2.3,0,4.5,0,6.6,0c1.1,0,2.1,0,3.2,0c0.5,0,1,0,1.6,0.1c0.5,0.1,1.1,0.4,1.4,0.8
				c0.4,0.4,0.6,0.9,0.7,1.4c0.1,0.5,0,1,0,1.5c0,1,0,1.9,0,2.9c0,1.9-0.1,3.7-0.1,5.4c-0.1,6.8-0.2,12.4-0.3,16.2
				c0,0.5,0,0.9,0,1.4c0,0.4,0,0.8-0.1,1.2c-0.2,0.7-0.7,1.2-1.1,1.5c-0.4,0.3-0.8,0.4-1.1,0.4C106,241.7,105.9,241.6,105.9,241.6z"
				/>
		</g>
		<polygon class="st5" points="87.7,222.6 93.1,225.9 87.5,229.2 82,232.5 82.1,225.9 82.2,219.3 		"/>
	</g>
	<g>
		<path class="st6" d="M593.5,127c3.5-1.5,6-5.1,6-9.3c0-5.6-4.2-10.1-9.4-10.1c-5.2,0-9.5,4.5-9.5,10c0,4.3,2.5,7.9,6,9.4
			c-14.6,2.2-13.9,18-13.9,18l34.4,0.2C607.2,145.2,607.9,129.2,593.5,127z"/>
	</g>
	<g>
		<g>
			
				<rect x="335.3" y="94" transform="matrix(0.9955 -9.444167e-02 9.444167e-02 0.9955 -9.0356 34.8159)" class="st7" width="56.1" height="37.8"/>
			<g>
				<path class="st5" d="M393,129c0,0,0-0.2-0.1-0.7c-0.1-0.5-0.1-1.1-0.2-2c-0.2-1.8-0.4-4.3-0.8-7.6c-0.6-6.5-1.6-15.9-2.7-27.3
					l0.2,0.2c-15.4,1.5-34.8,3.3-55.8,5.3c-0.1,0.1,0.4-0.5,0.2-0.3l0,0l0,0l0,0l0,0.1l0,0.2l0,0.3l0.1,0.6l0.1,1.3
					c0.1,0.8,0.2,1.7,0.2,2.5c0.2,1.7,0.3,3.3,0.5,4.9c0.3,3.3,0.6,6.5,0.9,9.6c0.6,6.3,1.2,12.4,1.7,18.1l-0.3-0.2
					c16.4-1.5,30.3-2.8,40.2-3.7c4.9-0.4,8.8-0.8,11.5-1c1.3-0.1,2.4-0.2,3.1-0.3c0.3,0,0.6,0,0.8-0.1C392.9,129,393,129,393,129
					c0,0-0.1,0-0.3,0c-0.2,0-0.4,0.1-0.8,0.1c-0.7,0.1-1.7,0.2-3,0.3c-2.7,0.3-6.6,0.7-11.4,1.2c-9.9,1-23.9,2.3-40.3,3.9l-0.2,0
					l0-0.2c-0.5-5.7-1.1-11.8-1.7-18.1c-0.3-3.1-0.6-6.4-0.9-9.6c-0.2-1.6-0.3-3.3-0.5-4.9c-0.1-0.8-0.2-1.7-0.2-2.5l-0.1-1.3
					l-0.1-0.6l0-0.3l0-0.2l0-0.1l0,0l0,0l0,0c-0.2,0.2,0.3-0.4,0.2-0.3c21-2,40.4-3.8,55.8-5.2l0.2,0l0,0.2
					c1,11.5,1.9,20.9,2.5,27.5c0.3,3.2,0.5,5.8,0.7,7.5c0.1,0.8,0.1,1.5,0.2,2C393,128.8,393,129,393,129z"/>
			</g>
		</g>
		<g>
			<path class="st5" d="M389.4,91.4c0,0-0.1,0.2-0.4,0.6c-0.3,0.4-0.8,0.9-1.3,1.5c-1.2,1.4-2.9,3.3-4.9,5.6
				c-4.2,4.7-10,11.2-16.5,18.5l-0.1,0.2l-0.2-0.1c-0.5-0.3-1-0.6-1.5-0.9c-8.5-5.5-16.2-10.4-21.9-14c-2.7-1.8-5-3.3-6.6-4.3
				c-0.7-0.5-1.3-0.9-1.8-1.2c-0.4-0.3-0.6-0.4-0.6-0.4c0,0,0.2,0.1,0.7,0.4c0.5,0.3,1.1,0.6,1.8,1.1c1.6,1,3.9,2.4,6.7,4.2
				c5.7,3.6,13.4,8.5,21.9,13.9c0.5,0.3,1,0.6,1.5,0.9l-0.3,0c6.5-7.2,12.4-13.7,16.6-18.4c2.1-2.3,3.8-4.1,5-5.5
				c0.6-0.6,1-1.1,1.4-1.5C389.3,91.6,389.4,91.4,389.4,91.4z"/>
		</g>
	</g>
	<g>
		<g>
			<path class="st8" d="M265.3,136.3c-0.1,0,0-1.3-0.6-3.6c-0.3-1.1-0.8-2.5-1.7-3.9c-0.9-1.4-2.1-2.9-3.8-4.2
				c-1.7-1.2-3.8-2.3-6.2-2.7c-2.4-0.4-5.1-0.3-7.7,0.7c-1.3,0.5-2.6,1.1-3.7,2c-1.2,0.8-2.2,1.9-3.1,3.1c-1.8,2.4-2.8,5.5-2.8,8.7
				c0,3.2,1,6.3,2.8,8.7c0.9,1.2,1.9,2.3,3.1,3.1c1.2,0.9,2.4,1.5,3.7,2c2.6,1,5.3,1.1,7.7,0.7c2.4-0.4,4.5-1.5,6.2-2.7
				c1.7-1.3,2.9-2.7,3.8-4.2c0.9-1.4,1.4-2.8,1.7-3.9C265.3,137.6,265.2,136.3,265.3,136.3c0,0,0,0.1,0,0.2c0,0.2,0,0.4,0,0.7
				c0,0.3,0,0.7-0.1,1.2c-0.1,0.5-0.1,1-0.3,1.6c-0.2,1.2-0.8,2.6-1.6,4c-0.9,1.5-2.1,3-3.8,4.3c-1.7,1.3-3.8,2.4-6.3,2.9
				c-2.5,0.4-5.3,0.4-8-0.6c-1.3-0.5-2.6-1.2-3.8-2.1c-1.2-0.9-2.3-2-3.2-3.2c-1.9-2.5-2.9-5.7-3-9c0-3.3,1.1-6.5,3-9
				c0.9-1.3,2-2.3,3.2-3.2c1.2-0.9,2.5-1.6,3.8-2.1c2.7-1,5.5-1.1,8-0.6c2.5,0.5,4.6,1.6,6.3,2.9c1.7,1.3,2.9,2.8,3.8,4.3
				c0.8,1.5,1.4,2.9,1.6,4c0.2,0.6,0.2,1.1,0.3,1.6c0.1,0.5,0.1,0.8,0.1,1.2c0,0.3,0,0.5,0,0.7C265.3,136.2,265.3,136.3,265.3,136.3
				z"/>
		</g>
		<g>
			<path class="st8" d="M285.3,161.2c-0.1,0.1-5.4-3.3-11.8-7.6c-6.4-4.3-11.6-7.9-11.5-8c0.1-0.1,5.4,3.3,11.8,7.6
				C280.3,157.5,285.4,161.1,285.3,161.2z"/>
		</g>
	</g>
	<g>
		<polygon class="st6" points="329.5,188.7 317.9,176.1 321.6,172.6 329.7,181.3 346.6,164.6 350.2,168.3 		"/>
	</g>
</g>
<g id="Speech_Bubbles">
	<g>
		<g>
			<path class="st8" d="M657.2,176.7c0,0,0.2,0,0.6,0c0.2,0,0.4,0,0.7,0c0.3,0,0.6,0.1,1,0.1c1.4,0.2,3.6,0.8,5.8,2.6
				c2.2,1.7,4.4,4.7,4.9,8.7c0.1,1,0.1,2,0.1,3.1c0,1.1,0,2.2,0,3.3c0,2.3,0,4.7,0,7.2c0,2.5,0,5.2,0,8c0,1.4,0,2.8,0,4.2
				c0,1.4,0,3-0.4,4.4c-0.8,2.9-2.6,5.7-5.3,7.6c-1.3,0.9-2.9,1.6-4.5,1.9c-1.6,0.4-3.4,0.3-5.1,0.3c-13.6,0-28.6,0-44.6,0l0.2-0.1
				c-3.2,3.2-6.6,6.6-10.1,10.1l-0.4,0.4V238c0-1.4,0-3,0-4.6c0-1.9,0-3.8,0-5.5l0.3,0.3c-1.1,0-2.2,0-3.3-0.1
				c-1.1-0.1-2.2-0.4-3.2-0.8c-2.1-0.8-3.9-2.2-5.3-3.8c-1.4-1.7-2.3-3.7-2.8-5.8c-0.2-1.1-0.3-2.1-0.3-3.2c0-1,0-2.1,0-3.1
				c0-4.1,0-8.2,0-12.1c0-2,0-3.9,0-5.9c0-1.9-0.1-3.8,0.2-5.8c0.3-1.9,1-3.7,2.1-5.3c1-1.6,2.4-2.9,4-3.8c1.5-1,3.3-1.6,5-1.9
				c1.8-0.3,3.5-0.1,5.1-0.2c6.7,0,12.9,0,18.6,0c11.4,0,20.6,0.1,26.9,0.1c3.2,0,5.6,0,7.3,0c0.8,0,1.5,0,1.9,0
				C657,176.6,657.2,176.7,657.2,176.7s-0.2,0-0.6,0c-0.4,0-1.1,0-1.9,0c-1.7,0-4.1,0-7.3,0c-6.4,0-15.5,0-26.9,0.1
				c-5.7,0-11.9,0-18.6,0c-1.7,0-3.4-0.1-5.1,0.2c-1.7,0.3-3.3,0.9-4.8,1.8c-1.5,0.9-2.8,2.2-3.8,3.7c-1,1.5-1.7,3.3-2,5.1
				c-0.3,1.8-0.1,3.8-0.2,5.7c0,1.9,0,3.9,0,5.9c0,4,0,8,0,12.1c0,2.1-0.1,4.2,0.3,6.2c0.4,2,1.3,3.9,2.7,5.6
				c1.4,1.6,3.1,2.9,5.1,3.7c1,0.4,2,0.7,3.1,0.8c1.1,0.1,2.1,0.1,3.2,0.1l0.3,0v0.3c0,1.7,0,3.6,0,5.5c0,1.6,0,3.1,0,4.6l-0.4-0.2
				c3.5-3.5,6.9-6.9,10.1-10.1l0.1-0.1l0.1,0c16,0,31,0,44.6,0c1.7,0,3.4,0.1,5-0.3c1.6-0.3,3.1-1,4.4-1.9c2.6-1.8,4.4-4.5,5.2-7.3
				c0.4-1.4,0.5-2.9,0.4-4.3c0-1.4,0-2.9,0-4.2c0-2.8,0-5.4,0-8c0-2.5,0-4.9,0-7.2c0-1.1,0-2.2,0-3.3c0-1.1,0-2.1-0.1-3.1
				c-0.4-4-2.6-6.9-4.8-8.6c-2.2-1.7-4.3-2.3-5.7-2.6c-0.4-0.1-0.7-0.1-1-0.2c-0.3,0-0.5,0-0.7,0
				C657.4,176.7,657.2,176.7,657.2,176.7z"/>
		</g>
		<g>
			<g>
				<path class="st8" d="M617.5,204c0,0-0.1-0.3-0.2-0.7c-0.1-0.4-0.4-1-1.1-1.5c-0.6-0.5-1.6-0.7-2.5-0.3c-0.9,0.3-1.7,1.3-1.7,2.5
					c0,1.2,0.8,2.1,1.7,2.5c0.9,0.4,1.9,0.1,2.5-0.3c0.6-0.5,0.9-1,1.1-1.5C617.5,204.3,617.5,204,617.5,204c0,0,0.1,0.3,0,0.7
					c-0.1,0.5-0.3,1.2-1,1.7c-0.7,0.6-1.8,0.9-2.9,0.5c-1.1-0.4-2.1-1.5-2.1-2.9c0-1.4,1-2.6,2.1-2.9c1.1-0.4,2.3-0.1,2.9,0.5
					c0.7,0.6,1,1.2,1,1.7C617.6,203.8,617.6,204,617.5,204z"/>
			</g>
			<g>
				<path class="st8" d="M630.8,203.9c0,0-0.1-0.3-0.2-0.7c-0.1-0.4-0.4-1-1.1-1.5c-0.6-0.5-1.6-0.7-2.5-0.3
					c-0.9,0.3-1.7,1.3-1.7,2.5c0,1.2,0.8,2.1,1.7,2.5c0.9,0.4,1.9,0.1,2.5-0.3c0.6-0.5,0.9-1,1.1-1.5
					C630.7,204.2,630.8,203.9,630.8,203.9c0,0,0.1,0.3,0,0.7c-0.1,0.5-0.3,1.2-1,1.7c-0.7,0.6-1.8,0.9-2.9,0.5
					c-1.1-0.4-2.1-1.5-2.1-2.9c0-1.4,1-2.6,2.1-2.9c1.1-0.4,2.3-0.1,2.9,0.5c0.7,0.6,1,1.2,1,1.7
					C630.9,203.6,630.8,203.9,630.8,203.9z"/>
			</g>
			<g>
				<path class="st8" d="M644.1,203.9c0,0-0.1-0.3-0.2-0.7c-0.1-0.4-0.4-1-1.1-1.5c-0.6-0.5-1.6-0.7-2.5-0.3
					c-0.9,0.3-1.7,1.3-1.7,2.5c0,1.2,0.8,2.1,1.7,2.5c0.9,0.4,1.9,0.1,2.5-0.3c0.6-0.5,0.9-1,1.1-1.5
					C644,204.2,644,203.9,644.1,203.9c0,0,0.1,0.3,0,0.7c-0.1,0.5-0.3,1.2-1,1.7c-0.7,0.6-1.8,0.9-2.9,0.5c-1.1-0.4-2.1-1.5-2.1-2.9
					c0-1.4,1-2.6,2.1-2.9c1.1-0.4,2.3-0.1,2.9,0.5c0.7,0.6,1,1.2,1,1.7C644.2,203.6,644.1,203.9,644.1,203.9z"/>
			</g>
		</g>
	</g>
	<g>
		<path class="st6" d="M155.5,135.2c0-8.6-9-14-18.2-9.7c-2.1,1-3.8,2.6-4.8,4.6c-2.3,4.5-1.3,9.6,0.8,13.8l7.2,18.1
			c1,2.6,4.7,2.6,5.7,0l7-18.2C155.6,138.3,155.5,135.2,155.5,135.2z M146.8,142.7c-6.2,3.6-12.4-3-9.1-9.6c0.5-0.9,1.1-1.6,2-2.1
			c6.2-3.6,12.4,3,9.1,9.6C148.3,141.5,147.6,142.2,146.8,142.7z"/>
		<g>
			<path class="st8" d="M187.2,164.9C187.2,164.9,187.2,164.9,187.2,164.9L187.2,164.9c0,0,0.1,0.1,0.1,0.3c0.1,0.2,0.2,0.5,0.3,1
				c0.3,0.9,0.7,2.1,1.2,3.8c1.1,3.3,2.7,8.2,4.7,14.5l0.1,0.2l-0.2,0c-5.6-1-12.4-2.3-20.2-3.7l-0.1,0v-0.1v0l0.3,0.1
				c-6,4.6-14,8.3-23.3,9.6c-2.3,0.3-4.7,0.5-7.1,0.5c-2.4-0.1-4.9-0.1-7.4-0.6c-2.5-0.3-5-1-7.5-1.7c-1.2-0.4-2.5-0.9-3.7-1.4
				c-0.6-0.2-1.2-0.5-1.8-0.8c-0.6-0.3-1.2-0.6-1.8-0.9c-4.8-2.4-9.4-5.7-13.5-9.8c-4-4-7.4-9-9.9-14.4c-5-10.9-6.1-24.1-2.2-36.3
				c3.5-11.1,11-20.5,20.1-26.7c9.2-6,19.9-8.9,30-8.4c10.1,0.3,19.4,3.8,26.8,8.9c7.3,5.2,12.9,11.8,16.2,18.6
				c3.4,6.8,5,13.7,5.3,19.7c0.5,6-0.4,11.3-1.4,15.4c-1,4.1-2.4,7.2-3.3,9.2c-0.5,1-0.9,1.8-1.2,2.2
				C187.4,164.5,187.3,164.8,187.2,164.9c0.1-0.1,0.2-0.3,0.4-0.8c0.3-0.5,0.6-1.3,1.1-2.3c0.9-2,2.2-5.1,3.2-9.2
				c1-4.1,1.8-9.3,1.3-15.3c-0.4-6-1.9-12.8-5.4-19.5c-3.4-6.8-8.9-13.3-16.1-18.4c-7.3-5-16.6-8.5-26.6-8.8
				c-10-0.5-20.6,2.4-29.7,8.4c-9,6.1-16.3,15.4-19.9,26.4c-3.8,12.1-2.7,25.2,2.2,35.9c2.5,5.4,5.8,10.3,9.8,14.3
				c4,4,8.5,7.3,13.3,9.7c0.6,0.3,1.2,0.6,1.8,0.9c0.6,0.3,1.2,0.6,1.8,0.8c1.2,0.5,2.5,0.9,3.7,1.4c2.5,0.7,5,1.4,7.5,1.7
				c2.5,0.5,4.9,0.5,7.4,0.6c2.4,0,4.8-0.1,7.1-0.5c9.2-1.2,17.2-5,23.2-9.5l0.3-0.2v0.3v0l-0.1-0.2c7.8,1.5,14.6,2.7,20.1,3.8
				l-0.1,0.2c-2-6.3-3.5-11.2-4.6-14.5c-0.5-1.7-0.9-2.9-1.2-3.8c-0.1-0.4-0.2-0.7-0.3-1C187.3,165,187.2,164.9,187.2,164.9
				L187.2,164.9C187.2,164.9,187.2,164.9,187.2,164.9z"/>
		</g>
	</g>
	<g>
		<g>
			<g>
				<path class="st5" d="M511.4,122.9c-0.1,0-0.1-0.6-0.2-1.8c0-0.6-0.1-1.3-0.2-2.1c-0.1-0.8-0.2-1.8-0.6-2.9
					c-0.5-2.1-1.4-4.7-3-7.4c-1.5-2.7-3.8-5.5-6.9-7.9c-3.1-2.4-6.9-4.4-11.4-5.3c-4.5-0.9-9.5-0.8-14.3,0.9c-2.4,0.8-4.8,2-7,3.6
					c-1.1,0.7-2.1,1.7-3.1,2.6c-0.9,1-1.9,2-2.7,3.1c-3.5,4.4-5.5,10-5.7,15.9c-0.1,5.9,1.7,11.7,4.9,16.2c0.8,1.2,1.7,2.2,2.6,3.2
					c1,0.9,1.9,1.9,3,2.7c2.1,1.7,4.4,3,6.8,3.9c4.8,2,9.8,2.2,14.3,1.6c4.5-0.7,8.5-2.5,11.7-4.8c3.2-2.3,5.6-5,7.2-7.6
					c1.7-2.6,2.8-5.1,3.3-7.2c0.4-1,0.5-2,0.7-2.8c0.2-0.8,0.3-1.5,0.3-2.1C511.3,123.5,511.4,122.9,511.4,122.9
					c0.1,0,0.1,0.6,0,1.8c0,0.6,0,1.3-0.2,2.2c-0.1,0.9-0.2,1.8-0.6,2.9c-0.5,2.2-1.5,4.8-3.2,7.5c-1.7,2.7-4.1,5.6-7.3,8
					c-3.3,2.4-7.4,4.4-12.1,5.1c-4.7,0.7-10,0.5-15-1.5c-2.5-0.9-5-2.3-7.2-4.1c-1.1-0.8-2.1-1.8-3.2-2.8c-0.9-1.1-1.9-2.2-2.7-3.4
					c-3.4-4.8-5.3-10.9-5.2-17.1c0.2-6.2,2.4-12.2,6-16.8c0.9-1.2,1.9-2.2,2.9-3.2c1.1-0.9,2.1-1.9,3.3-2.7c2.3-1.6,4.8-2.9,7.4-3.7
					c5.1-1.8,10.4-1.8,15.1-0.8c4.7,1,8.7,3.2,11.8,5.7c3.1,2.6,5.4,5.5,6.9,8.3c1.5,2.8,2.4,5.5,2.8,7.7c0.3,1.1,0.3,2.1,0.4,2.9
					c0.1,0.9,0.1,1.6,0.1,2.2C511.5,122.3,511.5,122.9,511.4,122.9z"/>
			</g>
			<g>
				<path class="st5" d="M505.9,105.5c0.1,0.1-0.4,0.5-1.4,1.2c-0.5,0.4-1.1,0.8-1.8,1.3c-0.4,0.2-0.7,0.5-1.1,0.8
					c-0.4,0.2-0.9,0.5-1.4,0.7c-3.7,2.2-9.7,4.4-16.4,4.1c-0.8,0-1.7-0.1-2.5-0.1c-0.8-0.1-1.6-0.3-2.4-0.4
					c-0.4-0.1-0.8-0.1-1.2-0.2c-0.4-0.1-0.7-0.2-1.1-0.3c-0.7-0.2-1.5-0.4-2.1-0.6c-2.7-1-5.1-2.1-7-3.2c-3.7-2.3-5.6-4.3-5.4-4.5
					c0.2-0.2,2.2,1.6,6,3.5c1.9,1,4.2,2,6.9,2.8c0.7,0.2,1.4,0.3,2.1,0.5c0.4,0.1,0.7,0.2,1.1,0.3c0.4,0.1,0.7,0.1,1.1,0.2
					c0.7,0.1,1.5,0.2,2.3,0.3c0.8,0,1.6,0.1,2.4,0.1c6.4,0.2,12.1-1.7,15.9-3.6c0.5-0.2,0.9-0.4,1.4-0.6c0.4-0.2,0.8-0.5,1.2-0.7
					c0.7-0.4,1.3-0.7,1.9-1.1C505.2,105.6,505.8,105.4,505.9,105.5z"/>
			</g>
			<g>
				<path class="st5" d="M461.1,139.4c-0.1-0.1,0.4-0.5,1.4-1.2c0.5-0.4,1.1-0.8,1.8-1.3c0.4-0.2,0.7-0.5,1.1-0.8
					c0.4-0.2,0.9-0.5,1.4-0.7c3.7-2.2,9.7-4.4,16.4-4.1c0.8,0,1.7,0.1,2.5,0.1c0.8,0.1,1.6,0.3,2.4,0.4c0.4,0.1,0.8,0.1,1.2,0.2
					c0.4,0.1,0.7,0.2,1.1,0.3c0.7,0.2,1.5,0.4,2.1,0.6c2.7,1,5.1,2.1,7,3.2c3.7,2.3,5.6,4.3,5.4,4.5c-0.2,0.2-2.2-1.6-6-3.5
					c-1.9-1-4.2-2-6.9-2.8c-0.7-0.2-1.4-0.3-2.1-0.5c-0.4-0.1-0.7-0.2-1.1-0.3c-0.4-0.1-0.7-0.1-1.1-0.2c-0.7-0.1-1.5-0.2-2.3-0.3
					c-0.8,0-1.6-0.1-2.4-0.1c-6.4-0.2-12.1,1.7-15.9,3.6c-0.5,0.2-0.9,0.4-1.4,0.6c-0.4,0.2-0.8,0.5-1.2,0.7
					c-0.7,0.4-1.3,0.7-1.9,1.1C461.8,139.2,461.2,139.5,461.1,139.4z"/>
			</g>
			<g>
				<path class="st5" d="M511.4,123.6c0,0.4-12.5,0.5-28,0.1c-15.4-0.4-27.9-1-27.9-1.4c0-0.4,12.5-0.5,28-0.1
					C498.9,122.5,511.4,123.1,511.4,123.6z"/>
			</g>
			<g>
				<path class="st5" d="M482.2,150.2c-0.4,0-0.5-12.5-0.1-28c0.4-15.4,1-27.9,1.4-27.9c0.4,0,0.5,12.5,0.1,28
					C483.3,137.7,482.6,150.2,482.2,150.2z"/>
			</g>
			<g>
				<path class="st5" d="M482.2,150.1c-0.1,0.2-3.2-1.9-6.7-6.7c-1.8-2.4-3.6-5.4-5-9.1c-1.4-3.7-2.3-8-2.2-12.5
					c0.1-4.6,1.2-8.8,2.8-12.4c1.6-3.6,3.6-6.5,5.5-8.8c3.8-4.5,6.9-6.6,7-6.4c0.2,0.2-2.7,2.5-6.1,7.1c-1.7,2.3-3.6,5.2-5,8.7
					c-1.5,3.5-2.5,7.5-2.6,11.9c-0.1,4.3,0.7,8.5,2,12c1.3,3.6,3,6.5,4.6,8.9C479.6,147.6,482.4,149.9,482.2,150.1z"/>
			</g>
			<g>
				<path class="st5" d="M484.2,94.3c0.1-0.2,3.2,1.9,6.7,6.7c1.8,2.4,3.6,5.4,5,9.1c1.4,3.7,2.3,8,2.2,12.5
					c-0.1,4.6-1.2,8.8-2.8,12.4c-1.6,3.6-3.6,6.5-5.5,8.8c-3.8,4.5-6.9,6.6-7,6.4c-0.2-0.2,2.7-2.5,6.1-7.1c1.7-2.3,3.6-5.2,5-8.7
					c1.5-3.5,2.5-7.5,2.6-11.9c0.1-4.3-0.7-8.5-2-12c-1.3-3.6-3-6.5-4.6-8.9C486.8,96.8,484,94.5,484.2,94.3z"/>
			</g>
		</g>
		<g>
			<g>
				<path class="st8" d="M455.6,163.9C455.6,163.9,455.6,163.9,455.6,163.9L455.6,163.9c0,0-0.1,0-0.3,0.1c-0.2,0.1-0.6,0.1-1,0.2
					c-0.9,0.2-2.2,0.5-3.9,0.9c-3.4,0.8-8.4,1.9-14.9,3.4l-0.2,0l0.1-0.2c1.5-5.5,3.4-12.1,5.5-19.7l0-0.1l0.1,0l0,0l-0.2,0.3
					c-4-6.4-7.1-14.7-7.5-24.1c-0.1-2.3-0.1-4.7,0.2-7.2c0.4-2.4,0.6-4.9,1.3-7.3c0.5-2.5,1.5-4.9,2.3-7.4c0.6-1.2,1.1-2.4,1.7-3.6
					c0.3-0.6,0.6-1.2,1-1.8c0.3-0.6,0.7-1.2,1-1.7c2.8-4.6,6.5-8.9,10.9-12.5c4.4-3.7,9.6-6.6,15.2-8.6c11.3-4,24.5-3.9,36.4,1
					c10.8,4.5,19.5,12.8,24.8,22.4c5.2,9.7,7.1,20.6,5.7,30.6c-1.2,10-5.5,19-11.2,25.9c-5.8,6.8-12.9,11.8-20,14.5
					c-7.1,2.8-14.1,3.7-20.1,3.6c-6.1-0.1-11.2-1.4-15.2-2.7c-4-1.4-6.9-3-8.9-4.1c-1-0.6-1.7-1-2.1-1.4
					C455.9,164.1,455.7,163.9,455.6,163.9c0.1,0.1,0.3,0.2,0.7,0.4c0.5,0.3,1.2,0.8,2.2,1.3c1.9,1.1,4.9,2.6,8.9,4
					c4,1.3,9.1,2.6,15.1,2.6c6,0.1,12.9-0.8,19.9-3.6c7.1-2.7,14-7.7,19.8-14.4c5.6-6.8,9.9-15.7,11.1-25.7
					c1.4-9.9-0.5-20.7-5.7-30.3c-5.3-9.5-13.9-17.6-24.5-22.1c-11.7-4.9-24.8-5-36-1c-5.6,2-10.7,4.8-15.1,8.5
					c-4.4,3.6-8,7.9-10.8,12.4c-0.3,0.6-0.7,1.1-1,1.7c-0.3,0.6-0.7,1.1-1,1.7c-0.6,1.2-1.1,2.4-1.7,3.6c-0.9,2.4-1.8,4.8-2.3,7.3
					c-0.7,2.4-0.9,4.9-1.3,7.3c-0.2,2.4-0.3,4.8-0.2,7.1c0.4,9.3,3.4,17.5,7.4,23.9l0.2,0.3l-0.3,0l0,0l0.2-0.1
					c-2.1,7.6-4,14.3-5.6,19.7l-0.1-0.2c6.4-1.4,11.5-2.5,14.9-3.3c1.7-0.4,3-0.7,3.9-0.8c0.4-0.1,0.8-0.2,1-0.2
					C455.4,163.9,455.6,163.9,455.6,163.9L455.6,163.9C455.6,163.9,455.6,163.9,455.6,163.9z"/>
			</g>
		</g>
	</g>
</g>
<g id="Character_3">
	<g>
		<path class="st9" d="M497.7,187.9c-4.9,1.1-8,6.1-9.1,11c-1,4.9-0.5,10-1,15c-0.5,5-2.2,10.3-6.4,13c1.4,0.4,2.8,0.8,4.2,1.2
			c-0.8,2.6-2.6,4.9-4.9,6.3c1.6,1.3,3.7,2,5.7,1.9c-2.5,0.7-3.1,4.2-1.8,6.3c1.4,2.2,3.9,3.2,6.4,3.8c2.9,0.7,6,1.1,8.9,0.3
			c4.1-1.2,7.1-4.8,8.6-8.7c1.6-3.9,1.8-8.2,2-12.5c0.3-10.6-0.3-21.3-3-31.5c-0.7-2.5-1.6-5.1-3.7-6.6c-2.1-1.5-5.7-0.9-6.3,1.6"/>
		<path class="st9" d="M608.2,340.8c-1.2-4.4-7.9-29.3-14-45.6c-6.7-18.1-20.5-21.8-20.5-21.8c-31.1-10.6-59.1-10.7-89-0.3
			c-1,0.3-1.9,0.6-2.8,1c0,0-0.1,0-0.1,0l0,0c-22.2,8.7-24.5,32.1-24.5,32.1L448,363c-0.1,0.5-0.2,0.9-0.2,1.4l-0.1,0.5l0,0
			c-0.4,5.3,2.7,10.6,7.6,12.8c13,6,25.4,4.6,36.1,0.2l-7.8,11.3h48.3h44.1l-6.2-14.9l2.1-9l14.3,17.2c1.7,2.1,4,3.6,6.6,4.3
			c16.5,1.9,19.2-22.7,16.1-36.9l0,0"/>
		<path class="st10" d="M549.7,267.2c0,0-14.9,75-20.2,74.4c-5.3-0.6-29.9-73-29.9-73S531.1,260.2,549.7,267.2z"/>
		<g>
			<g>
				<g>
					<g>
						<g>
							<path class="st10" d="M507.4,272.7c-0.1-8.6-0.3-17.7-0.3-17.7s-11.1-1.8-13.5-16.3c-2.3-13.8-0.2-45.8-0.2-45.8l0,0
								c16-6.6,35-2.4,46.4,10.3l0,0l-0.5,70.1c-0.1,8.1-7.1,14.6-15.8,14.4h0C514.7,287.7,507.5,281,507.4,272.7z"/>
						</g>
						<g>
							<g>
								<path class="st8" d="M497.1,217.2c0,1,0.8,1.8,1.8,1.9c1,0,1.9-0.7,1.9-1.7c0-1-0.8-1.8-1.8-1.9
									C498,215.4,497.1,216.2,497.1,217.2z"/>
							</g>
							<g>
								<g>
									<path class="st8" d="M494.6,215.8c0.2,0.2,1.6-0.8,3.6-0.8c2,0,3.5,1,3.7,0.7c0.1-0.1-0.1-0.5-0.8-1
										c-0.6-0.5-1.7-0.9-3-0.9c-1.2,0-2.3,0.5-2.9,1C494.7,215.3,494.5,215.7,494.6,215.8z"/>
								</g>
							</g>
						</g>
						<g>
							<g>
								<path class="st8" d="M517.3,218.1c0,1,0.8,1.8,1.8,1.9c1,0,1.9-0.7,1.9-1.7c0-1-0.8-1.8-1.8-1.9
									C518.2,216.4,517.3,217.1,517.3,218.1z"/>
							</g>
							<g>
								<g>
									<path class="st8" d="M515.5,216.4c0.2,0.2,1.6-0.8,3.6-0.8c2,0,3.5,1,3.7,0.7c0.1-0.1-0.1-0.5-0.8-1
										c-0.6-0.5-1.7-0.9-3-0.9c-1.2,0-2.3,0.5-2.9,1C515.6,215.9,515.4,216.3,515.5,216.4z"/>
								</g>
							</g>
						</g>
						<g>
							<g>
								<path class="st8" d="M508.3,231.3c0-0.1-1.2-0.3-3.3-0.6c-0.5,0-1-0.1-1.1-0.5c-0.1-0.4,0.1-0.9,0.3-1.5
									c0.5-1.2,1-2.5,1.5-3.9c2.1-5.6,3.6-10.1,3.3-10.2c-0.2-0.1-2.1,4.4-4.1,9.9c-0.5,1.4-1,2.7-1.4,3.9c-0.2,0.6-0.5,1.2-0.3,2
									c0.1,0.4,0.5,0.7,0.8,0.7c0.3,0.1,0.6,0.1,0.9,0.1C507.1,231.4,508.3,231.4,508.3,231.3z"/>
							</g>
						</g>
						<g>
							<path class="st11" d="M507.1,255c0,0,9.8,0.6,19.4-5.3c0,0-4.7,10-19.2,8.7L507.1,255z"/>
						</g>
						<g>
							<path class="st11" d="M509.2,236.1c0.7-1,2-1.5,3.2-1.4c0.9,0.1,1.7,0.5,2.3,1.2c0.5,0.7,0.6,1.7,0.2,2.4
								c-0.5,0.8-1.7,0.9-2.6,0.7c-1-0.3-1.8-0.9-2.6-1.5c-0.2-0.2-0.4-0.4-0.6-0.6C509,236.7,509,236.4,509.2,236.1"/>
						</g>
						<g>
							<g>
								<path class="st8" d="M514.2,232.7c-0.3,0-0.3,2.2-2.2,3.7c-1.8,1.6-4.2,1.3-4.2,1.6c0,0.1,0.5,0.4,1.5,0.4
									c1,0,2.4-0.3,3.5-1.2c1.1-1,1.6-2.2,1.7-3.1C514.6,233.2,514.4,232.7,514.2,232.7z"/>
							</g>
						</g>
					</g>
					<g>
						<path class="st9" d="M532,191.6c-5.2,7.7-19.1,15.7-29.1,17.7c1.1-1.6,7.3-5.5,8.4-7.1c-4.5,3.5-10.9,8.2-17,8.6
							c-0.7,0-1.5,0.1-2.1-0.3c-0.8-0.5-1-1.4-1.1-2.3c-0.5-3.5-0.3-9.6,0.2-13.2c0.5-3.5,2.1-7.1,5.1-9.5c3.8-3.1,9.4-3.9,14.6-4.1
							c4.4-0.2,8.9,0,12.9,1.5c4,1.5,7.5,4.6,8.2,8.3"/>
					</g>
					<g>
						<path class="st9" d="M549.2,226.7c0.7-3.8,1.2-7.3,1.3-9.7c0.3-7.5,2.5-34.5-23.2-31.9l1.5,7.3c0,0-4.8,16.8,6.3,28.2
							c0,0-3.2,23.7,4.5,31.4C539.5,252,547.7,234.8,549.2,226.7"/>
					</g>
					<g>
						<path class="st10" d="M534.6,219.3c1.5-0.3,3.2-0.3,4.7,0.3c1.5,0.5,2.8,1.6,3.4,3.1c0.6,1.4,0.6,3.1,0.1,4.6
							c-0.5,1.5-1.5,2.8-2.6,3.9c-0.8,0.8-1.7,1.5-2.8,1.9c-1.1,0.3-2.4,0.2-3.2-0.5"/>
					</g>
					<g>
						<g>
							<path class="st11" d="M535.5,228.7c-0.2,0.1,0.5,1,1.9,0.6c0.7-0.2,1.3-0.8,1.7-1.5c0.4-0.8,0.7-1.6,0.8-2.6
								c0.1-1-0.1-2-0.7-2.7c-0.5-0.7-1.3-1.2-2-1.2c-1.5,0-1.9,1-1.7,1c0.1,0.1,0.7-0.4,1.6-0.2c0.9,0.2,1.8,1.4,1.6,3
								c-0.2,1.6-0.8,3.1-1.6,3.4C536.2,229,535.6,228.6,535.5,228.7z"/>
						</g>
					</g>
				</g>
			</g>
		</g>
		<g>
			<path class="st8" d="M483.8,342.6c-0.1,0-0.3-5.9-0.3-13.2c0-7.3,0.1-13.2,0.3-13.2c0.1,0,0.3,5.9,0.3,13.2
				C484,336.7,483.9,342.6,483.8,342.6z"/>
		</g>
		<g>
			<g>
				<path class="st10" d="M521.3,315.7c0,0-13,0.1-13.8,3c-1.4,4.8,1.1,30.9,1.1,30.9l11.9,4c0,0,5.8-1.3,3.1-12.4
					c-2.7-11.1-7.9-19.9-7.9-19.9s15.9,0.4,15.4-3.1C530.7,314.6,521.3,315.7,521.3,315.7z"/>
				<path class="st10" d="M516.1,323.4c0.7-0.1,16.6-1.5,15.6,1.1c-1,2.5-15.6,3.2-15.6,3.2V323.4z"/>
			</g>
			<polygon class="st8" points="567.1,285 565.2,334.6 557.9,353.6 513.4,354.5 511.6,293.1 			"/>
		</g>
		<g>
			<path class="st8" d="M506.5,333.2c0,0-0.2,0.1-0.5,0.3c-0.4,0.2-0.9,0.4-1.6,0.7c-1.5,0.6-3.5,1.5-5.9,2.5
				c-5.1,2.1-12,5-19.6,8.2c-3.8,1.6-7.5,3.1-10.8,4.4c-3.3,1.3-6.3,2.6-8.6,4c-2.3,1.4-3.9,2.9-4.8,4.1c-0.9,1.2-1.2,2-1.3,2
				c0,0,0.1-0.2,0.2-0.6c0.2-0.4,0.5-0.9,0.9-1.5c0.9-1.3,2.5-2.9,4.8-4.3c2.3-1.5,5.3-2.7,8.7-4.1c3.3-1.4,7-2.9,10.8-4.5
				c7.7-3.1,14.6-6,19.7-8c2.5-1,4.5-1.8,6-2.4c0.7-0.3,1.2-0.5,1.6-0.6C506.3,333.2,506.5,333.2,506.5,333.2z"/>
		</g>
		<g>
			<path class="st8" d="M521.2,352.6c0,0-0.3,0.4-1,1.2c-0.7,0.7-1.6,1.8-2.9,3c-2.5,2.5-6.1,5.8-10.2,9.3c-4.1,3.5-8,6.4-10.9,8.5
				c-1.4,1-2.6,1.9-3.4,2.4c-0.8,0.6-1.3,0.8-1.3,0.8c0,0,0.4-0.4,1.2-1c0.9-0.7,2-1.5,3.3-2.5c2.8-2.2,6.6-5.2,10.8-8.6
				c4.1-3.5,7.8-6.7,10.3-9.2c1.3-1.2,2.3-2.2,3-2.9C520.8,353,521.2,352.6,521.2,352.6z"/>
		</g>
		<g>
			<path class="st8" d="M588.2,384.3c-0.1,0.1-6.6-7.4-14.6-16.7c-7.9-9.3-14.3-16.9-14.2-17c0.1-0.1,6.6,7.4,14.6,16.7
				C581.9,376.6,588.3,384.2,588.2,384.3z"/>
		</g>
		<g>
			<path class="st8" d="M600.8,348.3c0,0-0.5-0.2-1.4-0.5c-0.9-0.4-2.2-0.9-3.8-1.6c-3.2-1.4-7.6-3.6-12.3-6.3
				c-4.7-2.7-8.7-5.4-11.6-7.5c-1.4-1-2.6-1.9-3.3-2.5c-0.8-0.6-1.2-1-1.2-1c0,0,0.5,0.3,1.3,0.8c0.9,0.6,2,1.4,3.4,2.4
				c2.9,2,7,4.6,11.6,7.3c4.7,2.7,9,4.9,12.2,6.4c1.5,0.7,2.8,1.3,3.8,1.8C600.3,348,600.8,348.3,600.8,348.3z"/>
		</g>
		<g>
			<path class="st8" d="M577.7,337.5c-0.1,0-0.9-5.3-1.7-11.8c-0.8-6.5-1.4-11.9-1.2-11.9c0.1,0,0.9,5.3,1.7,11.8
				C577.3,332.1,577.9,337.4,577.7,337.5z"/>
		</g>
		<g>
			<path class="st8" d="M540.1,228.6c0,0-0.1,0.2-0.4,0.6c-0.3,0.5-0.8,1-1.3,1.7c-1.2,1.5-2.7,3.6-4.6,6l0-0.3
				c2.2,1.7,4.8,3.8,7.5,5.9c0.2,0.2,0.5,0.4,0.7,0.5l-0.4,0c2.4-3,4.6-5.8,6.5-8.1l0,0.3c-2-1.6-3.6-3-4.9-4
				c-0.5-0.5-1-0.8-1.3-1.1c-0.3-0.3-0.5-0.4-0.4-0.4c0,0,0.2,0.1,0.5,0.3c0.4,0.3,0.9,0.6,1.4,1c1.3,1,3,2.3,5,3.8l0.2,0.1
				l-0.1,0.2c-1.9,2.4-4.1,5.2-6.4,8.2l-0.2,0.2l-0.2-0.2c-0.2-0.2-0.5-0.4-0.7-0.5c-2.7-2.2-5.3-4.2-7.5-5.9l-0.2-0.1l0.1-0.2
				c1.9-2.4,3.5-4.4,4.8-5.9c0.5-0.6,1-1.2,1.4-1.6C539.9,228.8,540.1,228.6,540.1,228.6z"/>
		</g>
		<g>
			<g>
				<path class="st10" d="M559.2,349.9c-7.3-0.1-17-1.6-21.5-2.3c-8.4-1.3-8.3-2.1-8-3.1c0.8-2.6,14.9,1.8,12.4-0.9
					c-2.5-2.7-17.8-3.3-16.8-6c1.2-3.5,15.9,1.4,17.2,1.7c1.2,0.3,1.7-1.5,0.6-1.7c-1.7-0.3-19.1-4.2-17.9-7.6
					c0.7-1.9,3.9-0.3,3.9-0.3s16.1,4.8,16.6,3.2c0.5-1.7-8.8-4.8-12.1-5.6c-3.2-0.8-4.1-2.7-2.6-3.8c1-0.8,10.9,1.6,14.1,2.5
					c3.2,0.9,11.8,3.5,8.5-1.2c-0.1-0.1-0.1-0.2-0.1-0.2c-3.4-4.6-4.4-9.3-3.8-10.9c0.6-1.5,2.7-1.4,3.6,0c0.1,0.2,0.3,0.5,0.3,0.8
					c0,0.1,0.1,0.3,0.1,0.4c0.6,1.5,1.9,3.6,2.9,5.1c1,1.5,2.2,2.7,3.6,3.8c1.6,1.2,5.8,5.6,7,6.4"/>
			</g>
		</g>
	</g>
</g>
<g id="Character_2">
	<g>
		<g>
			<g>
				<g>
					<g>
						<g>
							<g>
								<path class="st12" d="M261.6,290.9L261.6,290.9c-9.4-0.2-16.9-7.7-17.2-17c-0.2-7.8-0.4-15.3-0.4-15.3s-14.3-1.3-15.4-15.5
									c-1-14.2-0.6-46.9-0.6-46.9l0,0c16-8.1,35.1-6.9,49.9,3.2l2.2,1.5l-0.6,72.6C279.4,283.3,271.3,291.1,261.6,290.9z"/>
							</g>
							<g>
								<g>
									<path class="st8" d="M243.6,234.4c0-0.2-1.2-0.3-3.2-0.5c-0.5,0-0.9-0.1-1-0.4c-0.1-0.3,0.1-0.9,0.3-1.5
										c0.4-1.3,0.9-2.7,1.3-4.1c1.8-5.8,3-10.5,2.7-10.6c-0.3-0.1-2,4.5-3.8,10.3c-0.4,1.4-0.8,2.8-1.2,4.1
										c-0.2,0.6-0.5,1.3-0.1,2.1c0.2,0.4,0.6,0.7,0.9,0.8c0.3,0.1,0.6,0.1,0.9,0.1C242.4,234.6,243.6,234.5,243.6,234.4z"/>
								</g>
							</g>
							<g>
								<path class="st7" d="M250.1,236.1c-3.9,1.8-5.8,2.4-9.4,3.4c0,0,2.5,3.5,6.5,1.8C251.3,239.5,250.1,236.1,250.1,236.1z"/>
							</g>
							<g>
								<path class="st13" d="M243.9,258.4c0,0,9,0.2,18.2-6.4c0,0-3.7,10.5-18,10.1L243.9,258.4z"/>
							</g>
						</g>
					</g>
					<g>
						<g>
							<path class="st12" d="M279.3,218.4c0-1.1,0.9-2.1,2-2.1c2.6-0.1,7,1,7.4,8.3c0.6,10.4-9.4,7.8-9.5,7.5
								C279.2,231.8,279.3,222.5,279.3,218.4z"/>
						</g>
						<g>
							<g>
								<path class="st13" d="M281.5,228c0,0,0.2,0.1,0.5,0.2c0.3,0.1,0.8,0.2,1.4,0c1.1-0.5,1.9-2.3,1.9-4.1c0-1-0.3-1.8-0.7-2.6
									c-0.4-0.7-0.9-1.3-1.4-1.3c-0.6-0.1-0.9,0.3-1,0.6c-0.1,0.3,0,0.5-0.1,0.5c0,0-0.2-0.2-0.2-0.6c0-0.2,0.1-0.5,0.4-0.7
									c0.2-0.2,0.6-0.3,1-0.3c0.8,0,1.6,0.7,2,1.5c0.5,0.8,0.8,1.8,0.8,2.9c0.1,2.1-0.9,4.1-2.4,4.6c-0.7,0.2-1.3,0-1.7-0.2
									C281.5,228.2,281.5,228,281.5,228z"/>
							</g>
						</g>
					</g>
				</g>
			</g>
			<g>
				<g>
					<path class="st8" d="M232.4,220.3c0,1,0.9,1.8,2,1.8c1.1,0,1.9-0.9,1.9-1.9c0-1-0.9-1.8-2-1.8
						C233.2,218.4,232.4,219.2,232.4,220.3z"/>
				</g>
				<g>
					<g>
						<path class="st8" d="M229.2,218.3c0.3,0.2,1.6-0.9,3.7-1.1c2.1-0.2,3.7,0.8,3.9,0.5c0.1-0.1-0.2-0.6-0.9-1
							c-0.7-0.4-1.8-0.8-3.1-0.7c-1.3,0.1-2.3,0.6-2.9,1.2C229.2,217.8,229,218.2,229.2,218.3z"/>
					</g>
				</g>
			</g>
			<g>
				<g>
					<path class="st8" d="M253,219.9c0,1,0.9,1.8,2,1.8c1.1,0,1.9-0.9,1.9-1.9c0-1-0.9-1.8-2-1.8C253.8,218,252.9,218.9,253,219.9z"
						/>
				</g>
				<g>
					<g>
						<path class="st8" d="M250.1,218.3c0.3,0.2,1.6-0.9,3.7-1.1c2.1-0.2,3.7,0.8,3.9,0.5c0.1-0.1-0.2-0.6-0.9-1
							c-0.7-0.4-1.8-0.8-3.1-0.7c-1.3,0.1-2.3,0.6-2.9,1.2C250.2,217.8,250,218.2,250.1,218.3z"/>
					</g>
				</g>
			</g>
			<path class="st8" d="M263.8,191.4c-1.9,4.4-1,9.9,2.4,13.3c1.4,1.4,3.2,2.5,4.4,4.2c2.5,3.3,2.1,7.9,2.5,12.1
				c0.2,1.9,0.6,4,2,5.3s4.1,1.4,5-0.3c0.3-0.5,0.4-1.1,0.5-1.7c0.9-4.6,1.7-9.2,2.6-13.9c0.7-3.5,1.3-7,0.7-10.5
				c-0.7-4.1-3.2-7.8-6.6-10c-3.5-2.2-7.9-2.9-11.9-1.8"/>
			<path class="st8" d="M266,188.4c-4.8-0.9-7.5-2.5-10.9-4c-3.4-1.5-7.2-2.2-10.8-1.2c-2.4,0.7-4.7,2.1-7.2,2.1
				c-2.5,0-4.7-1.5-7.1-2.2c-3.2-1-6.8-0.6-9.8,1c-2.3,1.3-4.4,3.6-4.6,6.4c-0.2,2.8,2.3,5.7,4.8,4.9c-2.6,0.9-3.7,4.8-2.4,7.3
				c1.3,2.6,4.3,3.7,7,3.3c2.7-0.4,5.1-2.2,7.1-4.3c0.1,3.1,3.2,5.3,6.1,5.2c2.9-0.1,5.5-1.8,7.9-3.6c2.4-1.8,4.8-3.7,7.7-4.4
				c2-0.4,4-0.2,6-0.4c2-0.2,4.1-1.1,5.1-3c1-1.9,4.8-4.1,2.8-4.2"/>
			<g>
				<path class="st8" d="M237.5,203.8c0,0,0.3,0.3,1.1,0.6c0.7,0.3,1.9,0.4,3.2,0c0.7-0.2,1.4-0.5,2.1-0.9c0.7-0.4,1.4-1,2.2-1.5
					c0.8-0.6,1.6-1.1,2.5-1.6c0.9-0.5,2-0.8,3.1-0.8c2.2,0,4.2,0.6,6.1,0.4c1.8-0.1,3.3-1.1,4.1-2.2c0.8-1.1,1.1-2.2,1.2-3
					c0.1-0.8,0-1.2,0.1-1.2c0,0,0,0.1,0.1,0.3c0,0.2,0.1,0.5,0.1,0.9c0,0.8-0.3,2-1.1,3.2c-0.4,0.6-1,1.2-1.7,1.6
					c-0.7,0.5-1.6,0.8-2.6,0.8c-1.9,0.2-4-0.4-6.1-0.4c-2.1,0-3.9,1.2-5.4,2.3c-0.8,0.5-1.5,1.1-2.2,1.5c-0.7,0.4-1.5,0.7-2.2,0.9
					c-1.4,0.4-2.6,0.2-3.4-0.2c-0.4-0.2-0.6-0.4-0.8-0.5C237.6,203.9,237.5,203.8,237.5,203.8z"/>
			</g>
			<g>
				<path class="st8" d="M264.5,183.5c0.2,0-0.2,1.5,0.3,3.3c0.4,1.8,1.4,3,1.3,3.1c-0.1,0.1-1.3-1-1.8-2.9
					C263.8,185,264.4,183.4,264.5,183.5z"/>
			</g>
			<g>
				<path class="st8" d="M269.8,183.3c0.1,0.1-1.2,1.3-2.1,3.2c-1,1.9-1.2,3.7-1.4,3.6c-0.1,0-0.1-1.9,0.9-3.9
					C268.3,184.3,269.8,183.2,269.8,183.3z"/>
			</g>
		</g>
		<polygon class="st12" points="336.7,331.5 358.5,387.6 325.2,387.6 309.6,347.7 		"/>
		<path class="st12" d="M218.7,286.1c0,0-28.7,29.6-41.1,29.6c-4.1,0-7.2-49.2-7.3-63.4l0,0c1.1-2.6,1.6-3.6,2.8-5.1
			c1.1-1.4,2.2-2.9,3.6-4c1.7-1.4,4.1-3.1,5.6-3.6c1.9-0.7,2.1-3.3,0.3-3.9c-1.8-0.5-7.2,1.2-12,5.8c-4.8,4.6-3.4-5.7-2.9-9.4
			c0.5-3.7,1.3-15.4,0.3-16.4c-1.5-1.5-3.5-0.1-3.8,3.6c-0.4,3.8-2.3,14.9-4.2,14.6c-1.9-0.3,0.7-19.3,0.7-19.3s1.2-4-1-4.4
			c-4.1-0.7-5.3,19.6-5.4,21.6c0,1.3-2.2,1.1-2.1-0.3c0.1-1.5,3-18.9-1.1-19.7c-3.2-0.6-1.2,16.7-3.8,20.1
			c-2.6,3.3-0.1-13.3-3.2-13.8c-1.1-0.2-2-0.1-2,9.6c0,5.2,2,13.1,1.2,23.2l0,0c1.3,29.8-0.1,113.3,33,103.4
			c36.4-10.9,61.3-34.7,61.3-34.7L218.7,286.1z"/>
		<g>
			<path class="st8" d="M299.1,312.6c0,0,0.1,0.4,0.3,1.2c0.2,0.8,0.4,1.9,0.7,3.3c0.5,2.8,1.1,6.6,1.6,10.8
				c0.5,4.3,0.7,8.1,0.8,10.9c0,1.4,0.1,2.5,0.1,3.3c0,0.8,0,1.2-0.1,1.2s-0.1-0.4-0.1-1.2c-0.1-0.9-0.1-2-0.2-3.3
				c-0.2-2.8-0.5-6.6-1-10.9c-0.5-4.2-1-8.1-1.4-10.8c-0.2-1.3-0.4-2.4-0.5-3.3C299.1,313,299.1,312.6,299.1,312.6z"/>
		</g>
		<g>
			<g>
				<g>
					<g>
						<g>
							<g>
								<g>
									<path class="st5" d="M213.8,387.6l91.7,0.5l-3.1-19.4c1.4-13.3-0.1-27.6-0.1-27.6l4.6,12.6l37.9-19
										c0,0-13.8-36.7-25.3-49.2c-14.6-15.7-40.8-14.2-40.8-14.2l-17.7,12l-16.3-11.5c0,0-13,1.2-25.2,7.3l-0.8,0.2l0,0.2
										c-9.6,5-23.3,17.3-36.4,29.2l15.1,14.7l16.7,15.6c0,0,2.8-0.3,2.9-0.1C217.2,340.6,213.8,387.6,213.8,387.6z"/>
								</g>
							</g>
						</g>
					</g>
				</g>
				<path class="st15" d="M299.5,306.7l12.5,44.5l-5,2.5l-4.6-12.6C302.3,341,297.8,314.7,299.5,306.7z"/>
			</g>
			<path class="st5" d="M243.7,271.7v-4.8c0,0,14.3-1.1,17.2,15.8c0,0,4.7-15.8,18.6-17.4l2,7.4c0,0-6.6,20.6-7.5,20.8
				c-1,0.2-13,3.7-13,3.7l-7-1.6l-7.8-8.8L243.7,271.7z"/>
			<g>
				<path class="st8" d="M281.8,272.1c0,0-0.3,0.3-0.8,0.8c-0.5,0.5-1.3,1.3-2.2,2.2c-1.8,1.9-4.1,4.7-6.2,8.2
					c-0.4,0.7-0.8,1.4-1.2,2.1l-0.2,0.4l-0.2-0.4c-1.6-3-3-5.6-4.1-7.6c-0.3-0.5-0.6-0.8-0.9-1c-0.3-0.2-0.7-0.3-1-0.4
					c-0.6,0-0.9,0.2-0.9,0.2c0,0,0.2-0.3,0.9-0.3c0.3,0,0.7,0.1,1.1,0.3c0.4,0.2,0.7,0.6,1.1,1.1c1.1,1.9,2.6,4.5,4.2,7.6l-0.5,0
					c0.4-0.7,0.8-1.4,1.2-2.1c2.1-3.5,4.5-6.3,6.4-8.2c0.9-0.9,1.7-1.6,2.3-2.1C281.5,272.3,281.8,272.1,281.8,272.1z"/>
			</g>
			<g>
				<path class="st8" d="M242.8,273c0,0,0.3,0.2,0.7,0.7c0.4,0.5,1,1.2,1.7,2.1c1.4,1.8,3.4,4.2,5.5,7c0.1,0.2,0.2,0.3,0.3,0.4
					l-0.4,0c0.8-1.4,0.8-3,1.2-4.5c0.3-1.4,1-2.7,2-3.3c1-0.6,2-0.6,2.6-0.3c0.3,0.1,0.5,0.3,0.6,0.4c0.1,0.1,0.2,0.2,0.1,0.2
					c0,0-0.3-0.2-0.8-0.4c-0.5-0.2-1.5-0.1-2.3,0.4c-0.8,0.6-1.4,1.8-1.7,3.1c-0.3,1.4-0.4,3-1.2,4.6l-0.2,0.4l-0.2-0.3
					c-0.1-0.1-0.2-0.3-0.3-0.4c-2.1-2.8-4-5.3-5.4-7.1c-0.7-0.9-1.2-1.7-1.6-2.2C243,273.3,242.8,273,242.8,273z"/>
			</g>
			<g>
				<path class="st8" d="M253,387.6c0,0,0-0.1,0-0.3c0-0.2,0-0.5,0-0.8c0-0.7,0.1-1.8,0.2-3.1c0.2-2.7,0.4-6.5,0.7-11.2
					c0.7-9.5,1.6-22.6,2.5-37c1.1-14.5,2-27.5,2.7-37c0.4-4.7,0.7-8.5,0.9-11.2c0.1-1.3,0.2-2.3,0.3-3c0-0.3,0.1-0.6,0.1-0.8
					c0-0.2,0-0.3,0-0.3c0,0,0,0.1,0,0.3c0,0.2,0,0.5,0,0.8c0,0.7-0.1,1.8-0.2,3.1c-0.2,2.7-0.4,6.5-0.7,11.2
					c-0.7,9.5-1.6,22.6-2.5,37.1c-1.1,14.4-2,27.5-2.7,37c-0.4,4.7-0.7,8.5-0.9,11.2c-0.1,1.3-0.2,2.3-0.3,3.1
					c0,0.3-0.1,0.6-0.1,0.8C253,387.5,253,387.6,253,387.6z"/>
			</g>
			<g>
				<path class="st8" d="M220.1,298.6c0,0,0,0.6-0.1,1.6c-0.1,1.1-0.2,2.6-0.3,4.3c-0.3,3.6-0.6,8.7-0.9,14.3
					c-0.3,5.6-0.6,10.6-1,14.3c-0.2,1.8-0.4,3.3-0.5,4.3c-0.2,1-0.3,1.6-0.3,1.6c0,0,0-0.6,0.1-1.6c0.1-1.1,0.2-2.6,0.3-4.3
					c0.3-3.6,0.6-8.7,0.9-14.3c0.3-5.6,0.6-10.6,1-14.3c0.2-1.8,0.4-3.3,0.5-4.3C219.9,299.1,220,298.6,220.1,298.6z"/>
			</g>
			<g>
				<path class="st6" d="M259.9,280.3c0,0-4.9,6.4-4.2,7.4c0.7,1,4.2,5.6,4.2,5.6h3c0,0,2.8-7.9,2.1-8.9
					C264.3,283.4,259.9,280.3,259.9,280.3z"/>
				<polygon class="st6" points="267.5,278.5 262.1,282.8 264.1,286.8 269.7,282.6 				"/>
				<polygon class="st6" points="251.5,281.2 256.5,285.3 259.2,281.2 253,276.5 				"/>
				<polygon class="st6" points="259.9,293.3 252.4,360.9 259.8,384.4 269.7,361.1 263.2,292.4 				"/>
			</g>
			<g>
				<path class="st8" d="M312.8,280.7c0,0-0.3-0.3-1-0.7c-0.7-0.3-1.8-0.6-3.1-0.2c-1.3,0.4-2.6,1.4-3.9,2.7
					c-1.3,1.3-2.5,2.9-3.5,4.7c-2.1,3.7-2.9,7.5-3,10.3c-0.2,2.8,0.2,4.5,0.1,4.5c0,0-0.1-0.4-0.3-1.2c-0.1-0.8-0.2-1.9-0.2-3.3
					c0-2.8,0.8-6.7,2.9-10.5c1.1-1.9,2.3-3.5,3.7-4.8c1.3-1.3,2.7-2.4,4.1-2.7c1.4-0.4,2.6-0.1,3.3,0.4c0.3,0.2,0.6,0.4,0.7,0.6
					C312.7,280.6,312.8,280.7,312.8,280.7z"/>
			</g>
		</g>
	</g>
</g>
<g id="Character_1">
	<g>
		<path class="st8" d="M384.2,197c-6.4,3.9-10.9,10.5-13.5,17.5c-2.6,7-3.6,14.6-4.4,22c-2.1,19.7-2.8,39.6-2.1,59.4
			c24.2,3.1,48.7,6.1,73,4.5c-4.2-27.8-6.9-55.6-3.5-83.6"/>
		<g>
			<g>
				<g>
					<path class="st6" d="M438.7,428.3L421,392.6l6.7-26.1c0.8,5.5,1.5,10.3,1.5,10.3l37.9-2c1.4-0.1,2.4-1.3,2.3-2.7l-7.4-52.2
						c0,0-2.4-24.2-25.3-33.2l0,0c0,0-0.1,0-0.1,0c-0.9-0.4-1.9-0.7-2.9-1c-30.9-10.7-59.9-10.7-92.1,0.3c0,0-14.3,3.9-21.2,22.5
						c-6.9,18.7-14,46.1-14,46.1l32.1,11.3l0.2-5.4l7.1,27.2l-15.6,39.6l54.3,1.3L438.7,428.3z"/>
				</g>
			</g>
			<path class="st6" d="M306.4,354.3l-3.6,17c-3.1,14.7,7.7,29.7,22.6,31.4l79.1,8.1c17.6,2,33.3-10.9,34.8-28.5l0,0l-99.7-9.5
				l0.6-9.6L306.4,354.3z"/>
			<path class="st10" d="M405.4,371.7l6.1-1.1c0,0,14.6-15.9,17.3-16.2c2.2-0.2,14.6-0.1,19,0c0.8,0,1.5,0.7,1.5,1.5l0,0
				c0,0.8-0.6,1.5-1.4,1.5l-14.6,0.6l-0.1,1.2l14.7,0.2c1.5,0.1,2.4,2.5-2.3,2.9l-12.3,0.4v0.8l12.4,1.7c0.6,0.1,2.3,0.4,2.3,1
				c0,0,0.8,1.6-2.8,2c-1.2,0.2-12-0.2-12-0.2l0.4,1l11.2,2.4c0.8,0.2,1.4,0.9,1.2,1.8l0,0c-0.1,0.8-0.9,1.4-1.7,1.4l-11.9-1.1
				l-11.7,9.4h-15.7L405.4,371.7z"/>
			<path class="st16" d="M366.5,278.3c0,0,15.4,78.8,20.8,78.2c5.4-0.6,30.9-75.5,30.9-75.5S385.7,271.1,366.5,278.3z"/>
			<g>
				<path class="st8" d="M434.7,354.6c-0.1,0-0.3-5.4-0.3-12.1c0-6.7,0.1-12.1,0.3-12.1c0.1,0,0.3,5.4,0.3,12.1
					C434.9,349.1,434.8,354.6,434.7,354.6z"/>
			</g>
			<g>
				<path class="st8" d="M340.1,355.1c-0.1,0,0.1-1.3,0.3-3.5c0.3-2.2,0.7-5.1,1.1-8.4c0.5-3.3,0.9-6.2,1.3-8.4
					c0.4-2.1,0.6-3.5,0.7-3.4c0.1,0-0.1,1.3-0.3,3.5c-0.3,2.2-0.7,5.1-1.1,8.4c-0.5,3.3-0.9,6.2-1.3,8.4
					C340.4,353.8,340.1,355.1,340.1,355.1z"/>
			</g>
			<g>
				<path class="st8" d="M384.6,428.6c0,0,0-0.3,0-0.7c0-0.5,0-1.2,0-2.1c0-1.8,0-4.4,0.1-7.7c0.1-6.5,0.5-15.5,0.9-25.4
					c0.4-9.9,0.9-18.9,1.1-25.4c0.1-3.2,0.2-5.8,0.2-7.7c0-0.9,0-1.6,0.1-2.1c0-0.5,0-0.7,0.1-0.7c0,0,0,0.3,0,0.7
					c0,0.5,0,1.2,0,2.1c0,1.8,0,4.4-0.1,7.7c-0.1,6.5-0.5,15.5-0.9,25.4c-0.4,9.9-0.9,18.9-1.1,25.4c-0.1,3.2-0.2,5.8-0.2,7.7
					c0,0.9,0,1.6-0.1,2.1C384.6,428.3,384.6,428.6,384.6,428.6z"/>
			</g>
			<g>
				<path class="st8" d="M418.1,280.9c0,0,0.1,0.3,0.2,1c0.1,0.6,0.3,1.6,0.8,2.7c0.4,1.2,1.1,2.5,2,4c0.9,1.5,1.9,3.2,2.8,5.3
					c0.9,2,1.7,4.5,1.2,7.2c-0.2,1.3-0.8,2.6-1.6,3.8c-0.8,1.2-1.8,2.2-2.8,3.3c-2,2.1-4.2,4.3-6,6.9c-1.8,2.6-3.1,5.7-3.1,9.1
					c0,1.7,0.4,3.3,1.1,4.7c0.6,1.5,1.5,2.9,1.9,4.5c0.2,0.8,0.4,1.6,0.3,2.4c-0.1,0.8-0.3,1.6-0.8,2.3c-0.9,1.4-2.2,2.3-3.3,3.1
					c-4.7,3.5-9,6.6-12.5,9.2c-3.6,2.6-6.4,4.7-8.5,6.2c-1,0.7-1.8,1.3-2.3,1.7c-0.2,0.2-0.4,0.3-0.6,0.4c-0.1,0.1-0.2,0.1-0.2,0.1
					c0,0,0.1-0.1,0.2-0.2c0.2-0.1,0.3-0.3,0.6-0.5c0.5-0.4,1.3-1,2.3-1.7c2-1.5,4.9-3.7,8.4-6.3c3.6-2.7,7.8-5.8,12.5-9.3
					c1.2-0.9,2.4-1.8,3.2-3c0.4-0.6,0.6-1.3,0.7-2.1c0.1-0.7-0.1-1.5-0.3-2.2c-0.5-1.5-1.3-2.9-1.9-4.4c-0.7-1.5-1.1-3.2-1.1-5
					c0-3.5,1.4-6.7,3.2-9.3c1.8-2.7,4-4.9,6.1-6.9c2-2,3.9-4.2,4.3-6.8c0.5-2.5-0.3-4.9-1.1-6.9c-0.9-2-1.9-3.7-2.8-5.3
					c-0.9-1.5-1.5-2.9-1.9-4.1c-0.4-1.2-0.6-2.1-0.7-2.8c-0.1-0.3-0.1-0.6-0.1-0.7C418.1,281,418.1,280.9,418.1,280.9z"/>
			</g>
			<g>
				<path class="st8" d="M387.3,355.7c0,0-0.1,0-0.2,0c-0.2,0-0.4-0.1-0.7-0.1c-0.6-0.1-1.5-0.4-2.7-0.7c-2.3-0.8-5.5-2.2-8.8-5
					c-1.6-1.4-3.3-3.2-4.7-5.3c-1.4-2.1-2.6-4.6-3.4-7.3c-0.8-2.7-1.2-5.8-1-8.9c0.1-1.6,0.3-3.1,0.6-4.7c0.3-1.5,0.5-3.2,0.1-4.7
					c-0.2-0.7-0.6-1.4-1.2-1.9c-0.6-0.5-1.3-0.8-2.1-1c-0.7-0.3-1.5-0.5-2.3-0.8c-0.7-0.3-1.4-0.8-2-1.3c-1.1-1.1-1.8-2.7-2.1-4.1
					c-0.3-1.5-0.3-3-0.2-4.4c0.5-5.7,1.8-10.7,3.3-14.7c1.5-4,3-7.2,4.2-9.2c0.6-1,1.1-1.8,1.4-2.4c0.2-0.2,0.3-0.4,0.4-0.6
					c0.1-0.1,0.1-0.2,0.1-0.2c0,0,0,0.1-0.1,0.2c-0.1,0.2-0.2,0.4-0.3,0.6c-0.3,0.5-0.8,1.4-1.3,2.4c-1.1,2.1-2.6,5.2-4,9.3
					c-1.4,4-2.7,9-3.1,14.6c-0.1,1.4,0,2.8,0.3,4.3c0.3,1.4,0.9,2.8,1.9,3.9c0.5,0.5,1.2,0.9,1.9,1.2c0.7,0.3,1.5,0.5,2.2,0.7
					c0.8,0.3,1.5,0.6,2.2,1.1c0.7,0.6,1.2,1.3,1.4,2.1c0.5,1.7,0.2,3.4-0.1,4.9c-0.3,1.6-0.6,3.1-0.6,4.6c-0.2,3,0.2,6,1,8.7
					c1.5,5.4,4.7,9.7,7.8,12.4c3.2,2.8,6.4,4.3,8.6,5.1c1.1,0.4,2,0.7,2.6,0.8c0.3,0.1,0.5,0.1,0.7,0.2
					C387.2,355.7,387.3,355.7,387.3,355.7z"/>
			</g>
			<path class="st6" d="M428.9,371.8l-66.3-2.1l0.1,22l43.9,9.6l30.9,4.9c19.2,0,34.5-17.6,31.6-36.6l-0.1,0L428.9,371.8z"/>
			<g>
				<path class="st8" d="M447.1,371.4c0,0-0.3,0-0.9,0.1c-0.6,0-1.4,0-2.5,0.1c-2.2,0-5.3,0.1-9.1,0.2c-7.7,0.1-18.2,0.2-29.9,0.1
					c-11.7-0.1-22.3-0.5-29.9-1.1c-3.8-0.3-6.9-0.5-9-0.7c-1-0.1-1.8-0.2-2.5-0.3c-0.6-0.1-0.9-0.1-0.9-0.1c0,0,0.3,0,0.9,0
					c0.6,0,1.4,0.1,2.5,0.2c2.1,0.2,5.2,0.3,9,0.6c7.6,0.4,18.2,0.8,29.9,0.9c11.7,0.1,22.2,0,29.9,0c3.8,0,6.9,0,9.1,0
					c1,0,1.9,0,2.5,0C446.8,371.3,447.1,371.3,447.1,371.4z"/>
			</g>
			<path class="st10" d="M362.1,371.7l-6.1-1.1c0,0-14.6-15.9-17.3-16.2c-2.2-0.2-14.6-0.1-19,0c-0.8,0-1.5,0.7-1.5,1.5l0,0
				c0,0.8,0.6,1.5,1.4,1.5l14.6,0.6l0.1,1.2l-14.7,0.2c-1.5,0.1-2.4,2.5,2.3,2.9l12.3,0.4v0.8l-12.4,1.7c-0.6,0.1-2.3,0.4-2.3,1
				c0,0-0.8,1.6,2.8,2c1.2,0.2,12-0.2,12-0.2l-0.4,1l-11.2,2.4c-0.8,0.2-1.4,0.9-1.2,1.8l0,0c0.1,0.8,0.9,1.4,1.7,1.4l11.9-1.1
				l11.7,9.4h15.7L362.1,371.7z"/>
			<g>
				<path class="st8" d="M436.3,405.9c0,0-0.3,0-0.8,0c-0.5-0.1-1.3-0.1-2.1-0.2c-1.9-0.2-4.6-0.5-7.9-1c-6.6-0.9-15.8-2.4-25.8-4.3
					c-10-2-19-4.1-25.5-5.7c-3.2-0.8-5.9-1.5-7.7-2c-0.9-0.2-1.6-0.4-2.1-0.6c-0.5-0.1-0.7-0.2-0.7-0.2c0,0,0.3,0,0.7,0.1
					c0.5,0.1,1.2,0.3,2.1,0.5c1.9,0.5,4.5,1.1,7.7,1.9c6.5,1.6,15.5,3.6,25.5,5.6c10,2,19.1,3.5,25.8,4.5c3.3,0.5,5.9,0.9,7.8,1.2
					c0.9,0.1,1.6,0.2,2.1,0.3C436,405.8,436.3,405.8,436.3,405.9z"/>
			</g>
			<g>
				<path class="st8" d="M363.3,391.7c-0.1,0-0.3-1.2-0.6-3.1c-0.3-1.9-0.5-4.7-0.7-7.6c-0.2-3-0.2-5.7-0.1-7.7
					c0.1-2,0.2-3.2,0.2-3.2c0.1,0,0.1,1.2,0.1,3.2c0,2,0.1,4.7,0.2,7.7c0.2,3,0.4,5.7,0.5,7.6C363.3,390.5,363.4,391.7,363.3,391.7z
					"/>
			</g>
			<g>
				<path class="st8" d="M370.6,392.6c0,0-0.1-0.3-0.3-0.8c-0.2-0.5-0.3-1.3-0.6-2.3c-0.4-2-0.8-4.8-1-7.9c-0.2-3.1-0.1-5.9,0.1-7.9
					c0.1-1,0.2-1.8,0.3-2.4c0.1-0.6,0.2-0.9,0.2-0.9c0.1,0,0,1.3-0.1,3.3c-0.1,2-0.1,4.8,0.1,7.9c0.2,3.1,0.6,5.8,0.9,7.8
					C370.4,391.3,370.6,392.6,370.6,392.6z"/>
			</g>
			<g>
				<path class="st8" d="M364.4,373.6c0.1,0.1-0.3,0.3-0.3,1c0,0.3,0.1,0.7,0.4,0.9c0.3,0.2,0.7,0.2,1.1,0c0.4-0.2,0.6-0.6,0.5-1
					c-0.1-0.4-0.3-0.6-0.6-0.8c-0.5-0.3-1-0.1-1-0.2c-0.1,0,0.4-0.4,1.2-0.1c0.3,0.2,0.8,0.5,0.9,1c0.1,0.6-0.2,1.2-0.7,1.5
					c-0.5,0.3-1.3,0.3-1.7-0.1c-0.4-0.4-0.5-0.9-0.5-1.3C363.9,373.7,364.4,373.5,364.4,373.6z"/>
			</g>
			<g>
				<path class="st8" d="M376.5,395.8c0,0-0.2,0-0.7,0c-0.4,0-1.1,0-1.9,0c-1.7,0-4.1,0.2-7.1,0.7c-3,0.5-6.5,1.3-10.4,2.3
					c-3.9,1-8.1,2.3-12.6,3.2c-4.5,1-8.9,1.5-13,1.4c-4-0.1-7.6-0.9-10.5-2c-2.8-1.1-4.9-2.5-6.3-3.5c-0.7-0.5-1.1-1-1.5-1.3
					c-0.3-0.3-0.5-0.5-0.5-0.5c0,0,0.7,0.6,2,1.6c1.3,1,3.4,2.3,6.3,3.3c2.8,1,6.4,1.8,10.3,1.9c4,0.1,8.4-0.5,12.9-1.4
					c4.5-1,8.7-2.2,12.6-3.2c3.9-1,7.4-1.8,10.4-2.2c3-0.4,5.5-0.5,7.2-0.5c0.8,0,1.5,0,2,0.1C376.2,395.8,376.5,395.8,376.5,395.8z
					"/>
			</g>
		</g>
		<g>
			<g>
				<g>
					<g>
						<g>
							<path class="st10" d="M405.6,287.6c1.6-8.8,3.4-18,3.4-18s11.7,0.1,16.6-14.2c4.7-13.7,8.1-46.7,8.1-46.7l0,0
								c-15.1-9.5-35.2-8.5-49.1,2.5l0,0L373,282.8c-1.3,8.3,4.7,16.1,13.6,17.5h0C395.6,301.6,404.1,296,405.6,287.6z"/>
						</g>
						<g>
							<g>
								<path class="st8" d="M425.1,233.4c-0.1,1-1.1,1.7-2.2,1.6c-1.1-0.1-1.8-1-1.7-2.1c0.1-1,1.1-1.7,2.2-1.6
									C424.5,231.4,425.2,232.3,425.1,233.4z"/>
							</g>
							<g>
								<g>
									<path class="st8" d="M428.5,231.8c-0.3,0.2-1.5-1.1-3.6-1.5c-2-0.4-3.7,0.4-3.9,0.1c-0.1-0.1,0.2-0.5,1-0.9
										c0.7-0.4,1.9-0.6,3.2-0.4c1.3,0.2,2.3,0.9,2.8,1.5C428.5,231.2,428.7,231.7,428.5,231.8z"/>
								</g>
							</g>
						</g>
						<g>
							<g>
								<path class="st8" d="M404.2,230c-0.1,1-1.1,1.7-2.2,1.6c-1.1-0.1-1.8-1-1.7-2.1c0.1-1,1.1-1.7,2.2-1.6
									C403.6,228.1,404.3,229,404.2,230z"/>
							</g>
							<g>
								<g>
									<path class="st8" d="M407.1,228.8c-0.3,0.2-1.5-1.1-3.6-1.5c-2-0.4-3.7,0.4-3.9,0.1c-0.1-0.1,0.2-0.5,1-0.9
										c0.7-0.4,1.9-0.6,3.2-0.4c1.3,0.2,2.3,0.9,2.8,1.5C407.1,228.2,407.3,228.7,407.1,228.8z"/>
								</g>
							</g>
						</g>
						<g>
							<g>
								<path class="st8" d="M411.9,245.2c0-0.1,1.3-0.1,3.4,0c0.5,0,1,0,1.2-0.3c0.2-0.4,0.1-1-0.1-1.6c-0.3-1.3-0.5-2.8-0.8-4.2
									c-1.1-6-1.9-10.9-1.6-11c0.2,0,1.4,4.8,2.5,10.8c0.3,1.5,0.5,2.9,0.8,4.2c0.1,0.6,0.3,1.4-0.1,2.1c-0.2,0.4-0.6,0.6-1,0.6
									c-0.4,0-0.6,0-0.9,0C413.1,245.5,411.9,245.3,411.9,245.2z"/>
							</g>
						</g>
						<g>
							<path class="st11" d="M409,269.6c0,0-10.1-1.1-18.9-8.8c0,0,3,11,18,12.2L409,269.6z"/>
						</g>
						<g>
							<path class="st11" d="M410.1,250c-0.6-1.1-1.8-1.9-3.1-1.9c-0.9-0.1-1.9,0.2-2.5,0.8c-0.7,0.6-1,1.6-0.6,2.4
								c0.4,0.9,1.5,1.3,2.6,1.1c1-0.1,2-0.6,2.9-1.1c0.3-0.1,0.5-0.3,0.7-0.5C410.3,250.6,410.3,250.3,410.1,250"/>
						</g>
						<g>
							<g>
								<path class="st8" d="M405.6,245.5c0.3,0-0.1,2.3,1.6,4.2c1.6,1.9,4,2.1,4,2.4c0,0.1-0.6,0.3-1.6,0.2c-1-0.1-2.4-0.7-3.3-1.9
									c-1-1.2-1.3-2.5-1.2-3.5C405.1,246,405.5,245.5,405.6,245.5z"/>
							</g>
						</g>
					</g>
					<g>
						<path class="st8" d="M394.6,200.6c3.9,8.7,16.7,19.3,26.6,23.1c-0.9-1.8-6.5-6.9-7.4-8.6c4,4.3,9.7,10.2,15.8,11.7
							c0.7,0.2,1.5,0.3,2.2,0.1c0.9-0.3,1.3-1.3,1.5-2.1c1.1-3.5,2-9.8,2.1-13.4c0.1-3.7-0.9-7.6-3.5-10.5
							c-3.4-3.8-8.9-5.6-14.2-6.7c-4.4-0.9-9.1-1.5-13.5-0.7c-4.4,0.8-8.5,3.4-9.8,7.1"/>
					</g>
					<g>
						<path class="st8" d="M371,233.4c0-4,0.1-7.7,0.4-10.1c1-7.7,3.4-35.7,29.2-28.5l-2.7,7.2c0,0,2,18-11.3,27.7
							c0,0,0.1,18-9.1,24.4C377.5,254.1,371.1,241.9,371,233.4"/>
					</g>
					<g>
						<path class="st10" d="M387.2,228.4c-1.5-0.6-3.2-0.8-4.8-0.5c-1.6,0.3-3.1,1.2-4,2.5c-0.9,1.4-1.2,3.1-0.9,4.7
							c0.3,1.6,1,3.1,2,4.4c0.7,1,1.5,1.9,2.5,2.4c1,0.5,2.4,0.7,3.4,0.1"/>
					</g>
					<g>
						<g>
							<path class="st11" d="M384.6,237.9c0.2,0.1-0.7,0.9-2.1,0.3c-0.7-0.3-1.2-1-1.5-1.9c-0.3-0.8-0.4-1.7-0.3-2.8
								c0.1-1,0.5-2,1.2-2.7c0.7-0.7,1.6-1,2.3-0.9c1.5,0.2,1.8,1.3,1.6,1.3c-0.1,0.1-0.6-0.5-1.6-0.5c-1,0-2.1,1.1-2.2,2.8
								c-0.1,1.7,0.3,3.3,1.1,3.8C383.8,238,384.5,237.7,384.6,237.9z"/>
						</g>
					</g>
				</g>
			</g>
			<path class="st8" d="M384.6,242.1c-4,23.9-0.7,48.4,0,72.6c0.1,2.3,0.1,4.8-1,6.8c-1.6,3.1-5.3,4.7-8.8,4.9
				c-3.5,0.2-7-0.6-10.5-0.9c-0.4-2.3-0.8-4.6-1.1-7c-1.2,2.7-2.3,5.4-3.5,8c1.5-17,3.2-34,5.1-51"/>
		</g>
	</g>
</g>
</svg>
