<?xml version="1.0" encoding="utf-8"?>
<!-- Generator: Adobe Illustrator 22.1.0, SVG Export Plug-In . SVG Version: 6.00 Build 0)  -->
<svg version="1.1" xmlns="http://www.w3.org/2000/svg" xmlns:xlink="http://www.w3.org/1999/xlink" x="0px" y="0px"
	 viewBox="0 0 500 500" style="enable-background:new 0 0 500 500;" xml:space="preserve">
<style type="text/css">
	.st0{opacity:0.7;fill:#F0F0F0;}
	.st1{fill:#E0E0E0;}
	.st2{fill:#F1C40F;}
	.st3{opacity:0.1;}
	.st4{fill:#FFFFFF;}
	.st5{display:none;}
	.st6{display:inline;}
	.st7{fill:#27DEBF;}
	.st8{fill:#455A64;}
	.st9{fill:#263238;}
	.st10{opacity:0.2;}
	.st11{display:inline;fill:#27DEBF;}
	.st12{opacity:0.4;fill:#FFFFFF;}
	.st13{fill:#37474F;}
	.st14{fill:#9A4A4D;}
	.st15{fill:#B16668;}
	.st16{opacity:0.5;}
	.st17{fill:#F0F0F0;}
</style>
<g id="Floor">
	<path id="Floor_22_" class="st0" d="M99.7,433.1c82.5,44.7,216.3,44.8,298.8,0c82.5-44.8,82.5-117.3,0-162.1
		c-82.5-44.8-216.3-44.8-298.8,0C17.2,315.8,17.2,388.4,99.7,433.1z"/>
</g>
<g id="Shadow">
	<ellipse id="Shadow_23_" class="st1" cx="150.4" cy="305.6" rx="57" ry="27.2"/>
</g>
<g id="Plants">
	<g id="Plants_16_">
		<g id="Plants_18_">
			<g id="XMLID_3609_">
				<g id="XMLID_3614_">
					<path id="XMLID_3615_" class="st2" d="M78.7,303.8l6.4-3.7c0,0,3.1-16.9,0.8-31.5c-3.2-20.5-17.2-27.5-22.2-25.5
						c-5.1,2-6.3,8.1,2.9,19.9C72,270,78.9,284.8,78.7,303.8z"/>
				</g>
				<g id="XMLID_3612_" class="st3">
					<path id="XMLID_3613_" d="M78.7,303.8l6.4-3.7c0,0,3.1-16.9,0.8-31.5c-3.2-20.5-17.2-27.5-22.2-25.5c-5.1,2-6.3,8.1,2.9,19.9
						C72,270,78.9,284.8,78.7,303.8z"/>
				</g>
				<g id="XMLID_3610_">
					<path id="XMLID_3611_" class="st4" d="M81,295.7C81,295.7,81,295.6,81,295.7c-0.3,0-0.5-0.3-0.5-0.5
						c2.6-19.2-5.1-40.2-13.7-48.6c-0.2-0.2-0.2-0.5,0-0.6c0.2-0.2,0.5-0.2,0.6,0c8.8,8.6,16.7,30,14,49.4
						C81.5,295.5,81.3,295.7,81,295.7z"/>
				</g>
			</g>
			<g id="XMLID_3602_">
				<g id="XMLID_3607_">
					<path id="XMLID_3608_" class="st2" d="M60.9,314.1c-1,0.6-3.1-0.7-3.9-1.2c-1.4-0.9-2.5-2.2-3.2-3.7c-0.9-1.7-1.1-3.5-0.8-5.4
						c0.1-1,0.4-1.9,0.7-2.9c0.3-0.9,0.5-1.9,0.8-2.8c0.3-0.9,0.5-1.9,0.4-2.8c-0.2-1.9-2-3.3-3.5-4.4c-1.7-1.3-3.5-3-3.5-5.3
						c0-1.8,0.9-3.4,2-4.8c1.1-1.4,2.4-2.6,3.4-4.1c0.7-1.1,1.3-2.3,1.2-3.6c-0.1-0.8-0.4-1.5-0.8-2.2c-0.8-1.5-1.9-2.9-2.5-4.5
						c-0.6-1.6-0.5-3.6,0.8-4.8c1-0.9,2.6-1.1,4-1c1.3,0.1,2.6,0.7,3.7,1.3c3.7,2,5.8,6.4,9.7,8c1.5,0.6,3.1,0.7,4.7,1.2
						c1.6,0.4,3.2,1.2,3.9,2.7c1.4,2.9-1.2,6.4-0.2,9.4c0.9,2.7,3.5,3.7,5,6.1c0.6,1.1,0.8,2.3,0.7,3.5c-0.2,2.1-0.5,3.6-1.5,5.9
						c-0.8,1.9-3.3,5.3-3.3,5.3C78.7,303.8,61.1,314,60.9,314.1z"/>
				</g>
				<g id="XMLID_3605_">
					<path id="XMLID_3606_" class="st4" d="M71.3,308.5C71.3,308.5,71.3,308.5,71.3,308.5c-0.3,0-0.5-0.2-0.5-0.5
						c0.8-18.1-7.8-38.2-14-44c-0.2-0.2-0.2-0.5,0-0.6c0.2-0.2,0.5-0.2,0.6,0c6.3,5.9,15.1,26.3,14.3,44.7
						C71.8,308.3,71.6,308.5,71.3,308.5z"/>
				</g>
				<g id="XMLID_3603_">
					<path id="XMLID_3604_" class="st4" d="M68.6,287.1c0,0-0.1,0-0.1,0c-5.8-1.8-13.1-2.1-13.2-2.1c-0.3,0-0.4-0.2-0.4-0.5
						c0-0.3,0.2-0.5,0.5-0.4c0.1,0,7.5,0.3,13.4,2.2c0.2,0.1,0.4,0.3,0.3,0.6C69,287,68.8,287.1,68.6,287.1z"/>
				</g>
			</g>
		</g>
		<g id="Plants_17_">
			<g id="XMLID_3596_">
				<g id="XMLID_3599_">
					<path id="XMLID_3601_" class="st2" d="M391.8,396.1c3.4-7.5,16-20.5,28.2-26.7c12.2-6.2,27.7-7.7,35.1-0.7
						c6.8,6.5,1.1,16.7-12,19.2c-13,2.5-31.9,4.6-41.8,14.8l-15.9,10.8L391.8,396.1z"/>
					<path id="XMLID_3600_" class="st3" d="M391.8,396.1c3.4-7.5,16-20.5,28.2-26.7c12.2-6.2,27.7-7.7,35.1-0.7
						c6.8,6.5,1.1,16.7-12,19.2c-13,2.5-31.9,4.6-41.8,14.8l-15.9,10.8L391.8,396.1z"/>
				</g>
				<g id="XMLID_3597_">
					<path id="XMLID_3598_" class="st4" d="M386.5,406.1c0.2,0.1,0.5,0,0.7-0.2c16.8-23.3,47-34.6,61.5-33.5c0.3,0,0.6-0.2,0.6-0.6
						c0-0.3-0.2-0.6-0.6-0.6c-14.8-1.1-45.6,10.3-62.6,34c-0.2,0.3-0.1,0.6,0.1,0.8C386.4,406.1,386.5,406.1,386.5,406.1z"/>
				</g>
			</g>
			<g id="XMLID_3591_">
				<g id="XMLID_3594_">
					<path id="XMLID_3595_" class="st2" d="M382.8,424.2c3.1-3.7,11.5-8.3,22.4-10.2c12.1-2.1,25.1,0.3,30.1-3.4
						c6-4.5,3.5-12.4-6.5-15.5c-10-3.2-32.6,2.1-44.1,20.3L382.8,424.2z"/>
				</g>
				<g id="XMLID_3592_">
					<path id="XMLID_3593_" class="st4" d="M383,419c0.2,0.1,0.5,0,0.6-0.1c17.9-18.3,38.2-18.3,46.4-15.8c0.3,0.1,0.7-0.1,0.8-0.4
						c0.1-0.3-0.1-0.7-0.4-0.8c-9.1-2.8-29.3-2.6-47.6,16.1c-0.2,0.2-0.2,0.6,0,0.9C382.9,418.9,382.9,419,383,419z"/>
				</g>
			</g>
		</g>
	</g>
</g>
<g id="Line" class="st5">
	<g id="Line_1_" class="st6">
		<g id="Arrow">
			<polygon id="XMLID_3590_" class="st7" points="201.2,330.2 213,337 209.1,339.3 224.7,339.3 224.7,330.2 220.8,332.5 
				209.1,325.7 			"/>
		</g>
		<g id="Line_2_">
			<g id="XMLID_3574_">
				<path id="XMLID_3575_" class="st7" d="M231.5,344.2c-0.2,0-0.3,0-0.5-0.1l-2.9-1.7c-0.5-0.3-0.6-0.9-0.4-1.3
					c0.3-0.5,0.9-0.6,1.3-0.4l2.9,1.7c0.5,0.3,0.6,0.9,0.4,1.3C232.2,344,231.9,344.2,231.5,344.2z"/>
			</g>
			<g id="XMLID_3563_">
				<path id="XMLID_3564_" class="st7" d="M354.6,415.2c-0.2,0-0.3,0-0.5-0.1l-5.6-3.3c-0.5-0.3-0.6-0.9-0.4-1.3
					c0.3-0.5,0.9-0.6,1.3-0.4l5.6,3.3c0.5,0.3,0.6,0.9,0.4,1.3C355.2,415,354.9,415.2,354.6,415.2z M340.9,407.3
					c-0.2,0-0.3,0-0.5-0.1l-5.6-3.2c-0.5-0.3-0.6-0.9-0.4-1.3c0.3-0.5,0.9-0.6,1.3-0.4l5.6,3.2c0.5,0.3,0.6,0.9,0.4,1.3
					C341.6,407.1,341.2,407.3,340.9,407.3z M327.2,399.4c-0.2,0-0.3,0-0.5-0.1l-5.6-3.3c-0.5-0.3-0.6-0.9-0.4-1.3
					c0.3-0.5,0.9-0.6,1.3-0.4l5.6,3.3c0.5,0.3,0.6,0.9,0.4,1.3C327.9,399.2,327.6,399.4,327.2,399.4z M313.6,391.5
					c-0.2,0-0.3,0-0.5-0.1l-5.6-3.2c-0.5-0.3-0.6-0.9-0.4-1.3c0.3-0.5,0.9-0.6,1.3-0.4l5.6,3.2c0.5,0.3,0.6,0.9,0.4,1.3
					C314.2,391.3,313.9,391.5,313.6,391.5z M299.9,383.6c-0.2,0-0.3,0-0.5-0.1l-5.6-3.3c-0.5-0.3-0.6-0.9-0.4-1.3
					c0.3-0.5,0.9-0.6,1.3-0.4l5.6,3.3c0.5,0.3,0.6,0.9,0.4,1.3C300.5,383.5,300.2,383.6,299.9,383.6z M286.2,375.7
					c-0.2,0-0.3,0-0.5-0.1l-5.6-3.2c-0.5-0.3-0.6-0.9-0.4-1.3c0.3-0.5,0.9-0.6,1.3-0.4l5.6,3.2c0.5,0.3,0.6,0.9,0.4,1.3
					C286.9,375.6,286.6,375.7,286.2,375.7z M272.6,367.8c-0.2,0-0.3,0-0.5-0.1l-5.6-3.3c-0.5-0.3-0.6-0.9-0.4-1.3
					c0.3-0.5,0.9-0.6,1.3-0.4l5.6,3.3c0.5,0.3,0.6,0.9,0.4,1.3C273.2,367.7,272.9,367.8,272.6,367.8z M258.9,360
					c-0.2,0-0.3,0-0.5-0.1l-5.6-3.2c-0.5-0.3-0.6-0.9-0.4-1.3c0.3-0.5,0.9-0.6,1.3-0.4l5.6,3.2c0.5,0.3,0.6,0.9,0.4,1.3
					C259.5,359.8,259.2,360,258.9,360z M245.2,352.1c-0.2,0-0.3,0-0.5-0.1l-5.6-3.3c-0.5-0.3-0.6-0.9-0.4-1.3
					c0.3-0.5,0.9-0.6,1.3-0.4l5.6,3.3c0.5,0.3,0.6,0.9,0.4,1.3C245.9,351.9,245.5,352.1,245.2,352.1z"/>
			</g>
			<g id="XMLID_3561_">
				<path id="XMLID_3562_" class="st7" d="M365.5,421.5c-0.2,0-0.3,0-0.5-0.1l-2.9-1.7c-0.5-0.3-0.6-0.9-0.4-1.3
					c0.3-0.5,0.9-0.6,1.3-0.4l2.9,1.7c0.5,0.3,0.6,0.9,0.4,1.3C366.2,421.4,365.9,421.5,365.5,421.5z"/>
			</g>
		</g>
	</g>
</g>
<g id="Pin">
	<g id="Pin_1_">
		<g id="XMLID_3554_">
			<g id="XMLID_3555_">
				<path id="XMLID_3556_" class="st8" d="M429.3,169.3C429.3,169.3,429.3,169.3,429.3,169.3c-0.3-0.2-0.6-0.4-0.9-0.5l-27.9-16
					c-6.3-4.2-13.6-6.4-21.8-6.4c-9.8,0-19.6,3.5-31.2,10c-40.6,22.5-75.2,87.3-75.2,129.9v11.8c0,51.6,67.8,114.5,67.8,114.5
					l28.1,16.3c0,0,0.1,0,0.1,0c-0.9-1.1,29.9-46.1,59-133.8C459.4,197.8,429.9,169.9,429.3,169.3z M381.8,323.5
					c-23,13.3-42.2,6.3-47.7-15.1c-10.5-1.5-18.2-9.6-20.5-22.9c-3-43,19.9-77.2,52.5-91.1c14-5.1,25.7-1.5,31.9,9.1
					c19.2-3.3,32.9,9.9,32.9,34.6C431.1,269.6,409,307.8,381.8,323.5z"/>
			</g>
		</g>
		<path id="XMLID_3553_" class="st9" d="M431.1,238.2c0,31.4-22,69.6-49.3,85.3c-23,13.3-42.2,6.3-47.7-15.1
			c6.9,1,15.1-0.9,23.8-5.9c24.9-14.4,45.1-49.4,45.1-78.1c0-8.5-1.8-15.6-4.9-20.8C417.3,200.3,431.1,213.4,431.1,238.2z"/>
		<g id="XMLID_3526_" class="st5">
			<g id="XMLID_3550_" class="st6">
				<polygon id="XMLID_3552_" class="st7" points="343.4,305.5 359.1,314.5 359.1,284.2 343.4,275.2 				"/>
				<polygon id="XMLID_3551_" class="st10" points="343.4,305.5 359.1,314.5 359.1,284.2 343.4,275.2 				"/>
			</g>
			<polygon id="XMLID_3549_" class="st11" points="418,250.2 381.8,233.2 345.6,292 359.1,284.2 359.1,314.5 376.2,304.6 
				376.2,284.8 387.4,278.3 387.4,298.1 404.5,288.2 404.5,257.9 			"/>
			<g id="XMLID_3546_" class="st6">
				<polygon id="XMLID_3548_" class="st7" points="366.2,224.1 381.8,233.2 345.6,292 329.9,283 				"/>
				<polygon id="XMLID_3547_" class="st3" points="366.2,224.1 381.8,233.2 345.6,292 329.9,283 				"/>
			</g>
			<g id="XMLID_3530_" class="st6">
				<polygon id="XMLID_3532_" class="st7" points="366.2,224.1 381.8,233.2 418,250.2 402.4,241.1 				"/>
				<polygon id="XMLID_3531_" class="st12" points="366.2,224.1 381.8,233.2 418,250.2 402.4,241.1 				"/>
			</g>
			<g id="XMLID_3527_" class="st6">
				<polygon id="XMLID_3529_" class="st7" points="376.2,304.6 387.4,298.1 387.4,278.3 376.2,284.8 				"/>
				<polygon id="XMLID_3528_" class="st10" points="376.2,304.6 387.4,298.1 387.4,278.3 376.2,284.8 				"/>
			</g>
		</g>
		<g id="XMLID_3521_">
			<path id="XMLID_3522_" class="st13" d="M429.3,169.3C429.3,169.3,429.3,169.3,429.3,169.3c-0.3-0.2-0.6-0.4-0.9-0.5
				c-13.6-7.6-31.7-6.6-51.6,4.9c-30,17.4-56,53.8-68.3,92c-4.9,15.1-6.9,23.2-6.9,37.8v11.8c0,39.8,44.3,93.2,65,112.3
				c0.5,0.5,1,0.8,1.5,1.1c0,0,0.1,0,0.1,0c5,3.1,11.8,1.3,14.5-4.2c17.9-36.6,70-146.8,70-189.6v-11.8
				C452.7,196.8,443.7,178,429.3,169.3z M334.1,308.5c-0.3-1.1-0.5-2.2-0.7-3.4c-0.6-3.1-0.8-6.4-0.8-9.9c0-31.4,22-69.6,49.3-85.3
				c3.1-1.8,6.1-3.2,9-4.2c2.5-0.9,5-1.6,7.3-2c19.2-3.3,32.9,9.9,32.9,34.6c0,31.4-22,69.6-49.3,85.3
				C358.9,336.8,339.6,329.9,334.1,308.5z"/>
		</g>
	</g>
</g>
<g id="Character">
	<g id="Character_1_">
		<g id="XMLID_3516_">
			<path id="XMLID_3520_" class="st9" d="M180.6,127.6h-21c-9.5,0-17.2-7.7-17.2-17.2v-4.9c0-10.5,8.5-19.1,19.1-19.1l0,0
				c10.5,0,19.1,8.5,19.1,19.1V127.6z"/>
			<g id="XMLID_3517_">
				<path id="XMLID_3519_" class="st9" d="M145.5,96.1l-4.4-2.4c0.6-1.3,2.1-1.8,3.3-1.1C145.6,93.2,146.1,94.8,145.5,96.1z"/>
				<path id="XMLID_3518_" class="st9" d="M145.8,96.6l-4.7,1.8c-0.5-1.3,0.1-2.8,1.4-3.2C143.8,94.6,145.3,95.2,145.8,96.6z"/>
			</g>
		</g>
		<g id="XMLID_3512_">
			<polygon id="XMLID_3515_" class="st14" points="187.6,151.9 193.3,162.5 185.3,169.4 177.3,157 			"/>
			<path id="XMLID_3514_" class="st2" d="M171.4,129.2c3,0.3,6.2,1.5,8.3,6c2.2,4.5,9,18.5,9,18.5s-1.5,6.1-9.4,6.9l-3.1-4.8
				L171.4,129.2z"/>
			<path id="XMLID_3513_" class="st3" d="M171.4,129.2c3,0.3,6.2,1.5,8.3,6c2.2,4.5,9,18.5,9,18.5s-1.5,6.1-9.4,6.9l-3.1-4.8
				L171.4,129.2z"/>
		</g>
		<g id="XMLID_3503_">
			<path id="XMLID_3511_" class="st9" d="M118,274.6c-1.5-0.8-2.5,1.1-3.8,2.7c-1,1.1-2.5,2.8-2.7,4c-0.3,1.8,1.3,4.7,3.1,6.2
				c1.8,1.6,3.9,2.7,4.6,6.2c0.7,3.5,2,5.5,5.6,7c3.9,1.7,9.2,1.1,11,0c2.1-1.4,0.2-2.9-2.8-7.1c-3.9-5.5-6.9-9.5-6.9-14.6
				L118,274.6z"/>
			<path id="XMLID_3510_" class="st15" d="M121.1,270.1l-3.2,4.6c-1.4,2-0.9,4.8,1.1,6.2c0,0,0.1,0,0.1,0.1c1.9,1.3,4.5,0.8,6.1-0.9
				l4.9-5.4L121.1,270.1z"/>
			<path id="XMLID_3509_" class="st13" d="M178.1,181.9c0.2,5.9,1.2,27.5-3.1,38.8c-4,10.6-7.7,16.3-9,18.5
				c-1.3,2.2-38.4,38.3-38.4,38.3s-6.3-0.5-7.3-6.6c0,0,15.2-25.8,18.5-31.1c3.3-5.3,14.9-13.4,14.9-13.4l-1.1-49.6L178.1,181.9z"/>
			
				<rect id="XMLID_3508_" x="169.7" y="293.1" transform="matrix(-0.9751 0.2217 -0.2217 -0.9751 409.4359 551.953)" class="st15" width="8" height="11.7"/>
			<path id="XMLID_3507_" class="st13" d="M165,200c0,0,3-2.6,7.2-8.3c6-8.3,5.1-15.6,5.1-15.6h-2.5l-32.4,0.7
				c-3.2,5.3-3.9,13.3-2.8,21c2.3,16.1,15.6,44.1,15.6,44.1c-0.2,2.2-1.1,11.5,1,19.7c3.3,13,12.4,35,12.4,35s5.7,0.8,8.5-2.5
				c0,0-5-44.6-6.4-56C169.2,225.7,165,200,165,200z"/>
			<path id="XMLID_3506_" class="st9" d="M178.1,299.9l-0.3-1.1c0.8,0.2,4.3,6,7.8,8.5c3.8,2.8,7.1,4.4,8.8,5.7
				c2.3,1.7-1,5.1-6.6,5.4c-2.8,0.2-7.9-0.7-9.4-2.2c-1.6-1.5-2.7-3.9-3.9-5c-1.2-1.1-3.8-2-4.6-3.4c-0.5-0.8-0.5-2.6-0.5-4.2
				c0-1.5,0.1-3.1,0.6-3.1c0,0.2,0.2,0.9,0.2,0.9c0.7,0.5,2.9,1.1,4.8,1.1C176.3,302.4,178.7,302.1,178.1,299.9z"/>
			<path id="XMLID_3505_" class="st9" d="M169.7,230.5c0,0-3.8-26.8-4.7-30.5c0,0,6.7-2.5,8.7-4.9c0,0-1.5,3.3-6.2,6.1L169.7,230.5z
				"/>
			<path id="XMLID_3504_" class="st9" d="M149.6,229.5c0,0,3.9,10.2,5.5,12.4c0,0-0.4,7.6-0.3,9.1l-2.1,1.8c0,0-0.1-6.4,0.9-10.3
				C153.6,242.6,151,237.3,149.6,229.5z"/>
		</g>
		<g id="XMLID_3499_">
			<g id="XMLID_3501_">
				<path id="XMLID_3502_" class="st2" d="M176.2,157.9c0.5,4.7,1.8,24,1.8,24c-15.5,8.3-34.7,2.8-37.7-0.6
					c2.7-8.8,6.5-12.5,8.7-14.8l-5-14c0,0-0.6-1.4-0.6-1.4c0.3-0.5,7.8-7.3,4.1-18c-0.6-1.7,0.6-3.4,2.3-3.6l4.5-0.4l12.1-0.4
					c2.9,0.2,4.9,0.4,4.9,0.4c1.9,1.7,4.8,6.5,6.7,11.3C179.3,143.7,180.6,148.6,176.2,157.9z"/>
			</g>
			<polygon id="XMLID_3500_" class="st3" points="147.3,157.5 149.1,150.7 151.2,166.5 146.8,169 149.1,166.5 146.8,160.1 			"/>
		</g>
		<g id="XMLID_3484_">
			<g id="XMLID_3497_">
				<path id="XMLID_3498_" class="st15" d="M173.8,94.8c2,1.2,4.5,6.3,4.3,16.9c-0.2,9-3.1,11.2-4.6,11.9c-1.5,0.6-4.3,0.3-7-0.2
					v5.4c0,0,4.1,7.6,3.2,10.6c-1.9,0.3-4.5-1-8.1-3.4c-3.6-2.4-7.1-6.8-7.1-6.8l0.1-12.4c0,0-1.6,1.6-4.4-0.8c-2.3-2-3-5.3-1.3-7.1
					c1.8-1.8,5-1.3,6.3,1.3c0,0,4.4,0.2,10.2-3C171.2,103.8,173.4,98.3,173.8,94.8z"/>
			</g>
			<g id="XMLID_3495_">
				<path id="XMLID_3496_" class="st9" d="M168,109.4c0,0.6-0.4,1.2-1.1,1.2c-0.6,0-1.2-0.5-1.2-1.1c0-0.6,0.4-1.2,1.1-1.2
					C167.4,108.3,168,108.8,168,109.4z"/>
			</g>
			<g id="XMLID_3493_" class="st16">
				<path id="XMLID_3494_" class="st14" d="M168.3,117l2.6,0.8c-0.2,0.8-1,1.2-1.7,0.9C168.5,118.6,168.1,117.8,168.3,117z"/>
			</g>
			<g id="XMLID_3491_">
				<path id="XMLID_3492_" class="st9" d="M177.3,105.9l-2.3-1.6c0.4-0.7,1.3-0.8,1.9-0.4C177.5,104.4,177.7,105.3,177.3,105.9z"/>
			</g>
			<g id="XMLID_3489_">
				<path id="XMLID_3490_" class="st9" d="M176.7,108.6c0,0.6-0.4,1.2-1.1,1.2c-0.6,0-1.2-0.5-1.2-1.1c0-0.6,0.4-1.2,1.1-1.2
					C176.2,107.4,176.7,107.9,176.7,108.6z"/>
			</g>
			<g id="XMLID_3487_" class="st16">
				<polygon id="XMLID_3488_" class="st14" points="171.4,107.9 171.6,114.8 175.2,113.6 				"/>
			</g>
			<g id="XMLID_3485_" class="st16">
				<path id="XMLID_3486_" class="st14" d="M166.4,123.3c-2.9-0.4-8.9-2.1-9.8-4.4c0,0,0.3,1.5,2.1,3c1.8,1.5,7.7,3.2,7.7,3.2V123.3
					z"/>
			</g>
		</g>
		<g id="XMLID_3478_">
			<path id="XMLID_3483_" class="st15" d="M130.8,174.9c0.1-1,1.9-11.4,3.1-17.2l12.2,3.7l-2,8.1l-10.2,9.8
				C130.8,178.8,130.7,175.9,130.8,174.9z"/>
			<path id="XMLID_3482_" class="st2" d="M149.9,129.5c-4.7,0.4-10.9,1.1-13.8,14.5c-2.8,12.5-3.4,16.9-3.4,16.9s3.6,4.6,12.9,4.1
				l3.4-14.2C155.3,142.4,153.3,136.5,149.9,129.5z"/>
			<g id="XMLID_3479_">
				<path id="XMLID_3481_" class="st9" d="M189.4,165.2c1.7-3.1,2.1-3.3,3.1-3.9c1-0.7,7.1-1.6,9.7-1.8c3-0.3,4.1,0.3,3.2,2.9
					c-1.8,5.5-7.2,17.2-8.4,18.8c-0.8,1.1-1,2-4.3,2.4c-3.1,0.3-7.1,0.5-8.2,0.5c-1.2,0.1-2.8,0.4-1.7-3.1c1-3.4,3.5-8.9,4.6-11.3
					C188.6,166.9,189.4,165.2,189.4,165.2z"/>
				<path id="XMLID_3480_" class="st15" d="M144.2,169.6c0,0,27.2,2.9,30.7,1.8c3.5-1.1,8.2-4.6,10.8-6.1c2.5-1.5,4.4-1.6,4.4-1
					s-2.2,3.9-2.7,5.3c-0.5,1.4,2.3,1.4,6.1,0.5c3.7-0.9,5.2-3,6.2-1.8c1,1.3-2.1,7.5-8.2,9.8c-6.2,2.3-10.8,0.8-15.9,1
					c-5.1,0.2-34.4,2.5-41.5,0.3c0,0-0.8-3.3,2.5-6C139.7,170.7,144.2,169.6,144.2,169.6z"/>
			</g>
		</g>
	</g>
</g>
<g id="Clouds">
	<g id="Clouds_3_">
		<path id="XMLID_3405_" class="st17" d="M317.8,72.8l7.4-4.3c0-0.3-0.1-0.6-0.1-0.9v-2.2c0-3.8,2.7-8.5,6-10.4
			c1.3-0.8,2.6-1,3.6-0.7c0.5-5.5,4.3-11.6,8.9-14.3c5-2.9,9-0.5,9,5.2v3.2c0,1.5-0.3,3.1-0.8,4.6l6.2-3.6c1.8-1.1,3.3-0.2,3.3,1.9
			c0,2.1-1.5,4.7-3.3,5.8l-40.3,23.3c-1.8,1.1-3.3,0.2-3.3-1.9C314.5,76.5,316,73.9,317.8,72.8z"/>
		<path id="XMLID_3402_" class="st17" d="M282.1,122.8l5.6-3.2c0-0.2,0-0.4,0-0.7v-1.6c0-2.9,2-6.4,4.5-7.9c1-0.6,2-0.7,2.7-0.5
			c0.4-4.1,3.3-8.8,6.7-10.8c3.8-2.2,6.8-0.4,6.8,3.9v2.4c0,1.1-0.2,2.3-0.6,3.5l4.7-2.7c1.4-0.8,2.5-0.2,2.5,1.5
			c0,1.6-1.1,3.6-2.5,4.4l-30.4,17.6c-1.4,0.8-2.5,0.2-2.5-1.5C279.6,125.6,280.7,123.6,282.1,122.8z"/>
	</g>
</g>
</svg>
