<?xml version="1.0" encoding="utf-8"?>
<!-- Generator: Adobe Illustrator 22.1.0, SVG Export Plug-In . SVG Version: 6.00 Build 0)  -->
<svg version="1.1" xmlns="http://www.w3.org/2000/svg" xmlns:xlink="http://www.w3.org/1999/xlink" x="0px" y="0px"
	 viewBox="0 0 750 500" style="enable-background:new 0 0 750 500;" xml:space="preserve">
<style type="text/css">
	.st0{fill:#EBEBEB;}
	.st1{fill:#E0E0E0;}
	.st2{fill:#F5F5F5;}
	.st3{fill:#FAFAFA;}
	.st4{display:none;}
	.st5{display:inline;}
	.st6{opacity:0.4;}
	.st7{fill:#263238;}
	.st8{fill:#2ECC71;}
	.st9{opacity:0.3;}
	.st10{fill:#FFFFFF;}
	.st11{fill:#455A64;}
	.st12{fill:#E8505B;}
	.st13{opacity:0.5;}
	.st14{opacity:0.5;fill:#FFFFFF;}
	.st15{fill:#FFBE9D;}
	.st16{fill:#EB996E;}
	.st17{opacity:0.2;}
</style>
<g id="Background_Complete">
	<g>
		<g>
			<g>
				<g>
					<path class="st0" d="M151.9,437.1c17.6-15.4,19.1-40.5,16-62.6c-0.5-3.7-0.6-7.6-2.7-10.7c-2.1-3.1-6.5-4.8-9.6-2.9
						c-2.6,1.6-3.5,4.9-4.7,7.7c-1.7,3.7-4.4,7-7.8,9.2c-2.2,1.5-5.1,2.6-7.5,1.5c-3.4-1.4-4.2-5.8-4.6-9.5
						c-0.7-6.9-1.4-13.7-2.1-20.6c-0.4-3.7-0.8-7.4-2.3-10.8c-1.5-3.4-4.4-6.3-8-6.9c-3.6-0.6-7.7,1.9-8.1,5.6
						c-0.1,1.5,0.3,3.1,0.4,4.6c0.1,1.5-0.5,3.3-1.9,3.9c-1.4,0.6-3-0.3-4.2-1.2c-4.2-3.3-7.3-7.8-10.3-12.3
						c-2.9-4.5-5.8-9.1-9.7-12.8c-3.9-3.7-9-6.4-14.3-6.1c-5.3,0.3-10.6,4.2-11.3,9.5c-0.8,5.3,2.8,10.3,6.6,14.1
						c5.6,5.7,12,10.6,18.9,14.4c1.3,0.7,2.6,1.4,3.2,2.8c1.1,2.4-1,5.1-3.3,6.1c-2.6,1.2-5.7,1.3-8.5,1.9c-2.8,0.7-5.8,2.3-6.6,5.1
						c-1.1,3.9,2.5,7.5,5.9,9.8c6.8,4.5,14.3,7.8,22.2,9.7c2.8,0.7,5.8,1.2,8.2,2.9c2.4,1.7,4.1,4.8,3,7.6c-1,2.7-4.3,3.9-7.2,3.7
						c-2.9-0.2-5.6-1.5-8.4-2.2c-5.3-1.4-11.8-0.3-14.5,4.4c-1.8,3.1-1.6,7.1-0.1,10.4c1.5,3.3,4,6,6.6,8.5
						c9.2,8.6,20.4,15.1,32.6,17.9C129.7,442.8,140.7,442.7,151.9,437.1"/>
				</g>
			</g>
		</g>
		<g>
			<g>
				<g>
					<g>
						<path class="st1" d="M154,453.5c-1.8-8.7-4.8-18.9-9.4-29.7c-4.5-10.8-10.4-22.3-17-34.1c-1.7-2.9-3.3-5.8-4.9-8.7
							c-1.6-2.9-3.2-5.7-5-8.3c-3.5-5.4-7.2-10.2-10.9-14.8c-3.7-4.5-7.4-8.7-10.8-12.6c-3.5-3.9-6.8-7.4-9.9-10.5
							c-6.3-6.2-11.9-10.6-15.9-13.5c-2-1.4-3.6-2.5-4.7-3.2c-0.5-0.3-0.9-0.6-1.2-0.8c-0.3-0.2-0.4-0.3-0.4-0.3
							c0,0,0.1,0.1,0.4,0.3c0.3,0.2,0.7,0.5,1.2,0.9c1.1,0.7,2.6,1.8,4.6,3.3c3.9,2.9,9.5,7.4,15.7,13.6c3.1,3.1,6.4,6.7,9.8,10.5
							c3.4,3.9,7.1,8.1,10.8,12.6c3.7,4.5,7.4,9.4,10.8,14.7c1.7,2.7,3.3,5.5,4.9,8.3c1.6,2.9,3.3,5.8,4.9,8.7
							c6.6,11.8,12.5,23.2,17,34c4.5,10.8,7.6,20.9,9.5,29.5"/>
					</g>
				</g>
			</g>
		</g>
		<g>
			<g>
				<g>
					<g>
						<path class="st1" d="M117.5,372.7c0,0,0.1-0.6,0.2-1.6c0.1-1,0.1-2.5,0.2-4.4c0.1-3.7,0.1-8.9,0.1-14.5c0-5.7,0-10.8,0.2-14.5
							c0.1-1.9,0.2-3.4,0.2-4.4c0.1-1,0.1-1.6,0-1.6c0,0-0.1,0.6-0.3,1.6c-0.2,1-0.3,2.5-0.4,4.4c-0.3,3.7-0.4,8.9-0.4,14.5
							c0.1,5.6,0.1,10.7,0.1,14.5c0,1.7,0,3.2,0,4.4C117.5,372.2,117.5,372.7,117.5,372.7z"/>
					</g>
				</g>
			</g>
		</g>
		<g>
			<g>
				<g>
					<g>
						<path class="st1" d="M69.2,369.1c0,0,0.7,0.1,1.9,0c1.2,0,3-0.1,5.2-0.1c4.4,0,10.4,0.2,17.1,0.7c6.7,0.5,12.7,1.3,17,1.9
							c2.2,0.3,3.9,0.6,5.1,0.8c1.2,0.2,1.9,0.3,1.9,0.2c0,0-0.6-0.2-1.8-0.5c-1.2-0.3-2.9-0.7-5.1-1c-4.3-0.8-10.4-1.6-17.1-2.1
							c-6.7-0.5-12.8-0.6-17.2-0.5c-2.2,0.1-4,0.2-5.2,0.3C69.9,369,69.2,369.1,69.2,369.1z"/>
					</g>
				</g>
			</g>
		</g>
		<g>
			<g>
				<g>
					<g>
						<path class="st1" d="M143.9,423.1c0,0,0.1-0.2,0.3-0.6c0.2-0.5,0.4-1.1,0.6-1.8c0.5-1.6,1.2-3.9,2.1-6.7
							c1.7-5.7,3.8-13.6,5.9-22.3c2.2-8.8,4.2-16.7,5.7-22.4c0.8-2.8,1.4-5.1,1.9-6.7c0.2-0.7,0.4-1.3,0.5-1.8
							c0.1-0.4,0.2-0.6,0.1-0.7c0,0-0.1,0.2-0.3,0.6c-0.2,0.5-0.4,1.1-0.6,1.8c-0.5,1.6-1.2,3.9-2.1,6.7c-1.7,5.7-3.8,13.6-5.9,22.3
							c-2.2,8.8-4.2,16.7-5.7,22.4c-0.8,2.8-1.4,5.1-1.9,6.7c-0.2,0.7-0.4,1.3-0.5,1.8C144,422.8,143.9,423.1,143.9,423.1z"/>
					</g>
				</g>
			</g>
		</g>
		<g>
			<g>
				<g>
					<g>
						<path class="st1" d="M78.8,409.7c0,0,0.2,0.1,0.7,0.2c0.5,0.1,1.1,0.2,1.9,0.4c1.7,0.4,4.1,0.8,7,1.4c5.9,1.2,14,3,23,5
							c9,2,17.1,3.7,23,4.8c3,0.5,5.4,1,7,1.2c0.8,0.1,1.4,0.2,1.9,0.3c0.4,0.1,0.7,0.1,0.7,0.1c0,0-0.2-0.1-0.7-0.2
							c-0.5-0.1-1.1-0.2-1.9-0.4c-1.7-0.4-4.1-0.8-7-1.4c-5.9-1.2-14-3-23-5c-9-2-17.1-3.7-23-4.8c-3-0.5-5.4-1-7-1.2
							c-0.8-0.1-1.4-0.2-1.9-0.3C79.1,409.7,78.8,409.7,78.8,409.7z"/>
					</g>
				</g>
			</g>
		</g>
	</g>
	<g>
		<rect x="153.4" y="193.8" class="st2" width="84.8" height="259.7"/>
		<rect x="237.9" y="193.8" class="st3" width="67" height="259.7"/>
		<g>
			<rect x="157.9" y="235.4" class="st1" width="71.9" height="20.2"/>
			<rect x="159.9" y="237.9" class="st2" width="4" height="15.5"/>
			<path class="st3" d="M168.7,241.2c0,0.7-0.6,1.3-1.3,1.3c-0.7,0-1.3-0.6-1.3-1.3c0-0.7,0.6-1.3,1.3-1.3
				C168.1,239.9,168.7,240.5,168.7,241.2z"/>
			<circle class="st3" cx="167.4" cy="246.7" r="1.3"/>
			<rect x="173.8" y="239.9" class="st2" width="4" height="11.9"/>
			<rect x="179.5" y="239.9" class="st2" width="4" height="11.9"/>
			<rect x="185.2" y="239.9" class="st2" width="4" height="11.9"/>
			<rect x="190.9" y="239.9" class="st2" width="4" height="11.9"/>
			<rect x="196.7" y="239.9" class="st2" width="4" height="11.9"/>
			<rect x="202.4" y="239.9" class="st2" width="4" height="11.9"/>
			<rect x="208.1" y="239.9" class="st2" width="4" height="11.9"/>
			<rect x="213.8" y="239.9" class="st2" width="4" height="11.9"/>
			<rect x="219.5" y="239.9" class="st2" width="4" height="11.9"/>
			<rect x="225.2" y="239.9" class="st2" width="4" height="11.9"/>
		</g>
		<g>
			<rect x="157.9" y="267.8" class="st1" width="71.9" height="20.2"/>
			<rect x="159.9" y="270.3" class="st2" width="4" height="15.5"/>
			<path class="st3" d="M168.7,273.6c0,0.7-0.6,1.3-1.3,1.3c-0.7,0-1.3-0.6-1.3-1.3c0-0.7,0.6-1.3,1.3-1.3
				C168.1,272.3,168.7,272.9,168.7,273.6z"/>
			<circle class="st3" cx="167.4" cy="279.1" r="1.3"/>
			<rect x="173.8" y="272.3" class="st2" width="4" height="11.9"/>
			<rect x="179.5" y="272.3" class="st2" width="4" height="11.9"/>
			<rect x="185.2" y="272.3" class="st2" width="4" height="11.9"/>
			<rect x="190.9" y="272.3" class="st2" width="4" height="11.9"/>
			<rect x="196.7" y="272.3" class="st2" width="4" height="11.9"/>
			<rect x="202.4" y="272.3" class="st2" width="4" height="11.9"/>
			<rect x="208.1" y="272.3" class="st2" width="4" height="11.9"/>
			<rect x="213.8" y="272.3" class="st2" width="4" height="11.9"/>
			<rect x="219.5" y="272.3" class="st2" width="4" height="11.9"/>
			<rect x="225.2" y="272.3" class="st2" width="4" height="11.9"/>
		</g>
		<g>
			<rect x="157.9" y="300.2" class="st1" width="71.9" height="20.2"/>
			<rect x="159.9" y="302.8" class="st2" width="4" height="15.5"/>
			<path class="st3" d="M168.7,306c0,0.7-0.6,1.3-1.3,1.3c-0.7,0-1.3-0.6-1.3-1.3c0-0.7,0.6-1.3,1.3-1.3
				C168.1,304.7,168.7,305.3,168.7,306z"/>
			<circle class="st3" cx="167.4" cy="311.5" r="1.3"/>
			<rect x="173.8" y="304.7" class="st2" width="4" height="11.9"/>
			<rect x="179.5" y="304.7" class="st2" width="4" height="11.9"/>
			<rect x="185.2" y="304.7" class="st2" width="4" height="11.9"/>
			<rect x="190.9" y="304.7" class="st2" width="4" height="11.9"/>
			<rect x="196.7" y="304.7" class="st2" width="4" height="11.9"/>
			<rect x="202.4" y="304.7" class="st2" width="4" height="11.9"/>
			<rect x="208.1" y="304.7" class="st2" width="4" height="11.9"/>
			<rect x="213.8" y="304.7" class="st2" width="4" height="11.9"/>
			<rect x="219.5" y="304.7" class="st2" width="4" height="11.9"/>
			<rect x="225.2" y="304.7" class="st2" width="4" height="11.9"/>
		</g>
		<g>
			<rect x="157.9" y="332.6" class="st1" width="71.9" height="20.2"/>
			<rect x="159.9" y="335.2" class="st2" width="4" height="15.5"/>
			<path class="st3" d="M168.7,338.4c0,0.7-0.6,1.3-1.3,1.3c-0.7,0-1.3-0.6-1.3-1.3c0-0.7,0.6-1.3,1.3-1.3
				C168.1,337.2,168.7,337.7,168.7,338.4z"/>
			<circle class="st3" cx="167.4" cy="343.9" r="1.3"/>
			<rect x="173.8" y="337.2" class="st2" width="4" height="11.9"/>
			<rect x="179.5" y="337.2" class="st2" width="4" height="11.9"/>
			<rect x="185.2" y="337.2" class="st2" width="4" height="11.9"/>
			<rect x="190.9" y="337.2" class="st2" width="4" height="11.9"/>
			<rect x="196.7" y="337.2" class="st2" width="4" height="11.9"/>
			<rect x="202.4" y="337.2" class="st2" width="4" height="11.9"/>
			<rect x="208.1" y="337.2" class="st2" width="4" height="11.9"/>
			<rect x="213.8" y="337.2" class="st2" width="4" height="11.9"/>
			<rect x="219.5" y="337.2" class="st2" width="4" height="11.9"/>
			<rect x="225.2" y="337.2" class="st2" width="4" height="11.9"/>
		</g>
		<g>
			<rect x="157.9" y="365.1" class="st1" width="71.9" height="20.2"/>
			<rect x="159.9" y="367.6" class="st2" width="4" height="15.5"/>
			<path class="st3" d="M168.7,370.9c0,0.7-0.6,1.3-1.3,1.3c-0.7,0-1.3-0.6-1.3-1.3c0-0.7,0.6-1.3,1.3-1.3
				C168.1,369.6,168.7,370.2,168.7,370.9z"/>
			<circle class="st3" cx="167.4" cy="376.3" r="1.3"/>
			<rect x="173.8" y="369.6" class="st2" width="4" height="11.9"/>
			<rect x="179.5" y="369.6" class="st2" width="4" height="11.9"/>
			<rect x="185.2" y="369.6" class="st2" width="4" height="11.9"/>
			<rect x="190.9" y="369.6" class="st2" width="4" height="11.9"/>
			<rect x="196.7" y="369.6" class="st2" width="4" height="11.9"/>
			<rect x="202.4" y="369.6" class="st2" width="4" height="11.9"/>
			<rect x="208.1" y="369.6" class="st2" width="4" height="11.9"/>
			<rect x="213.8" y="369.6" class="st2" width="4" height="11.9"/>
			<rect x="219.5" y="369.6" class="st2" width="4" height="11.9"/>
			<rect x="225.2" y="369.6" class="st2" width="4" height="11.9"/>
		</g>
		<g>
			<rect x="157.9" y="397.5" class="st1" width="71.9" height="20.2"/>
			<rect x="159.9" y="400" class="st2" width="4" height="15.5"/>
			<path class="st3" d="M168.7,403.3c0,0.7-0.6,1.3-1.3,1.3c-0.7,0-1.3-0.6-1.3-1.3c0-0.7,0.6-1.3,1.3-1.3
				C168.1,402,168.7,402.6,168.7,403.3z"/>
			<circle class="st3" cx="167.4" cy="408.8" r="1.3"/>
			<rect x="173.8" y="402" class="st2" width="4" height="11.9"/>
			<rect x="179.5" y="402" class="st2" width="4" height="11.9"/>
			<rect x="185.2" y="402" class="st2" width="4" height="11.9"/>
			<rect x="190.9" y="402" class="st2" width="4" height="11.9"/>
			<rect x="196.7" y="402" class="st2" width="4" height="11.9"/>
			<rect x="202.4" y="402" class="st2" width="4" height="11.9"/>
			<rect x="208.1" y="402" class="st2" width="4" height="11.9"/>
			<rect x="213.8" y="402" class="st2" width="4" height="11.9"/>
			<rect x="219.5" y="402" class="st2" width="4" height="11.9"/>
			<rect x="225.2" y="402" class="st2" width="4" height="11.9"/>
		</g>
		<g>
			<rect x="157.9" y="429.9" class="st1" width="71.9" height="20.2"/>
			<rect x="159.9" y="432.5" class="st2" width="4" height="15.5"/>
			<circle class="st3" cx="167.4" cy="435.7" r="1.3"/>
			<circle class="st3" cx="167.4" cy="441.2" r="1.3"/>
			<rect x="173.8" y="434.4" class="st2" width="4" height="11.9"/>
			<rect x="179.5" y="434.4" class="st2" width="4" height="11.9"/>
			<rect x="185.2" y="434.4" class="st2" width="4" height="11.9"/>
			<rect x="190.9" y="434.4" class="st2" width="4" height="11.9"/>
			<rect x="196.7" y="434.4" class="st2" width="4" height="11.9"/>
			<rect x="202.4" y="434.4" class="st2" width="4" height="11.9"/>
			<rect x="208.1" y="434.4" class="st2" width="4" height="11.9"/>
			<rect x="213.8" y="434.4" class="st2" width="4" height="11.9"/>
			<rect x="219.5" y="434.4" class="st2" width="4" height="11.9"/>
			<rect x="225.2" y="434.4" class="st2" width="4" height="11.9"/>
		</g>
		<g>
			<path class="st1" d="M202.4,235.4c0,0,0-0.2-0.1-0.6c0-0.4-0.1-1-0.1-1.8c0-0.8,0-1.7-0.1-2.8c-0.1-1.1-0.1-2.4-0.5-3.7
				c-0.4-1.3-1-2.7-1.9-4c-0.9-1.3-2.3-2.5-3.9-3.2c-1.7-0.7-3.6-1-5.6-1.1c-2-0.2-4.1-0.4-6.2-0.5c-8.5-0.7-16.2-1.2-21.8-1.3
				c-2.8-0.1-5,0-6.6,0c-0.7,0-1.3,0-1.8,0c-0.4,0-0.6,0-0.6,0c0,0,0.2,0,0.6-0.1c0.5,0,1.1-0.1,1.8-0.1c1.6-0.1,3.8-0.1,6.6-0.1
				c5.6,0,13.3,0.4,21.8,1.2c2.1,0.2,4.2,0.4,6.2,0.5c2,0.2,4,0.5,5.7,1.2c1.8,0.7,3.2,2,4.1,3.4c1,1.4,1.6,2.8,1.9,4.2
				c0.3,1.4,0.4,2.7,0.4,3.8c0,1.1,0,2.1,0,2.8c0,0.7,0,1.3,0,1.8C202.4,235.2,202.4,235.4,202.4,235.4z"/>
		</g>
		<g>
			<path class="st1" d="M180.6,235.4c0,0,0-0.2,0-0.6c0-0.4,0-1,0-1.7c0-0.7,0-1.6-0.1-2.7c-0.1-1-0.3-2.2-0.9-3.3
				c-0.6-1.1-1.9-1.9-3.2-2.5c-1.4-0.5-3.1-0.8-4.7-0.5c-0.8,0.1-1.7,0.4-2.4,0.8c-0.8,0.4-1.5,1-1.9,1.8c-0.4,0.8-0.4,1.7,0,2.5
				c0.4,0.8,1.2,1.4,2.1,1.6c0.9,0.2,1.8-0.1,2.5-0.7c0.7-0.6,1.1-1.5,1.1-2.4c0.1-0.9-0.2-1.7-0.7-2.4c-0.5-0.7-1.2-1.3-1.9-1.7
				c-0.7-0.4-1.5-0.5-2.4-0.6c-0.8-0.1-1.6-0.2-2.4-0.3c-1.5-0.2-3-0.3-4.3-0.3c-2.6-0.1-4.7-0.1-6.2-0.1c-0.7,0-1.2,0-1.7,0
				c-0.4,0-0.6,0-0.6,0c0,0,0.2,0,0.6-0.1c0.4,0,1-0.1,1.7-0.1c1.5-0.1,3.6-0.2,6.2-0.1c1.3,0,2.8,0.1,4.3,0.3
				c0.8,0.1,1.6,0.2,2.4,0.3c0.4,0.1,0.8,0.1,1.2,0.2c0.4,0.1,0.9,0.2,1.3,0.4c0.8,0.4,1.5,1,2.1,1.8c0.6,0.8,0.9,1.7,0.8,2.8
				c-0.1,1-0.5,2-1.3,2.7c-0.7,0.7-1.9,1.1-3,0.9c-1.1-0.2-2-0.9-2.5-1.9c-0.5-0.9-0.5-2.1,0-3c0.5-0.9,1.3-1.5,2.1-2
				c0.8-0.4,1.7-0.7,2.6-0.9c1.8-0.3,3.5,0,5,0.5c1.4,0.6,2.7,1.5,3.4,2.7c0.7,1.2,0.8,2.4,0.9,3.5c0.1,1.1,0,2,0,2.7
				c0,0.7-0.1,1.2-0.1,1.7C180.6,235.2,180.6,235.4,180.6,235.4z"/>
		</g>
		<g>
			<path class="st1" d="M208.2,235.4c0,0-0.1-0.2-0.2-0.7c-0.1-0.4-0.2-1.1-0.4-1.9c-0.4-1.7-0.9-4.1-2.1-6.9c-1.2-2.8-3-6-6.3-8.4
				c-1.6-1.2-3.6-1.9-5.7-2.2c-2.1-0.3-4.4-0.3-6.7-0.4c-9.3-0.2-17.7-0.1-23.8-0.4c-3-0.1-5.5-0.3-7.2-0.4c-0.8-0.1-1.5-0.1-2-0.2
				c-0.4,0-0.7-0.1-0.7-0.1c0,0,0.2,0,0.7,0c0.5,0,1.2,0,2,0.1c1.7,0.1,4.2,0.2,7.2,0.2c6.1,0.1,14.5,0.1,23.8,0.2
				c2.3,0.1,4.6,0.1,6.8,0.4c2.2,0.3,4.3,1,5.9,2.3c1.6,1.3,3,2.7,4,4.2c1,1.5,1.8,3,2.3,4.4c1.2,2.8,1.7,5.3,2,7
				c0.1,0.8,0.2,1.5,0.3,1.9C208.2,235.1,208.3,235.4,208.2,235.4z"/>
		</g>
		<rect x="158.9" y="197" class="st1" width="69.9" height="10.2"/>
		<rect x="174.3" y="202.1" class="st2" width="38.1" height="5.1"/>
	</g>
</g>
<g id="Background_Simple" class="st4">
	<g class="st5">
		<g class="st6">
			<path class="st0" d="M525,180.8c-47.2-3.8-88.7,40-136,36.7c-33-2.2-60.2-26.9-82.2-52.3c-22-25.4-42.7-53.9-72.6-68.4
				c-26.8-13-59.4-12.9-86.1,0.4c-1.6,0.8-3.1,1.6-4.6,2.5c-32,18.2-50.4,54.1-48.6,91.6c3.6,74,49.1,128.4,97.8,164.6
				c56.9,42.4,139.9,51.2,210.2,54.9c42.4,2.2,89-14.4,126.4-35.1c37.4-20.7,67-59.6,68.7-103.2C599.5,228.9,567.3,184.2,525,180.8z
				"/>
		</g>
	</g>
</g>
<g id="Floor">
	<g>
		<path class="st7" d="M696.7,453.6c0,0.1-144,0.3-321.7,0.3c-177.7,0-321.7-0.1-321.7-0.3s144-0.3,321.7-0.3
			C552.7,453.4,696.7,453.5,696.7,453.6z"/>
	</g>
</g>
<g id="Plants">
	<g>
		<g>
			<path class="st8" d="M643.9,328.7c0,0-5.8-3.7-12.6,10c-6.9,13.8-9.5,21.7-9.5,21.7s-1.8,2.9-3.8,1c-2-1.9-4.7-7.2-8.1-6.2
				c-3.5,1-4.6,4.9-3.9,10.6c0.7,5.7,1.8,18.2,1.9,19.4c0.1,1.1-0.5,2.8-2.1,1.7c-1.6-1.1-10.6-10.9-15-6.4
				c-4.4,4.5,0.2,20.1,0.6,21.8c0.5,1.7,0.1,2.4-0.7,2.9s-3.5-3.2-6.2-5.9c-2.7-2.7-6.2-5.4-8.6-2.5c-2.3,2.8-3,14.5,8.3,33.5
				l5.8,8.4l10.3-0.7c21.9-2.7,30.7-10.5,31.5-14c0.8-3.6-3.5-4.8-7.3-5.2c-3.8-0.4-8.3-0.4-8.4-1.3c-0.2-0.9,0.2-1.6,1.9-2.3
				c1.6-0.7,16.7-6.6,17.6-12.9c0.9-6.3-12.4-7.3-14.2-7.9c-1.8-0.6-0.9-2.1,0.1-2.7c1-0.6,11.5-7.5,16.4-10.4
				c4.9-2.9,7.3-6.2,6-9.6c-1.3-3.2-7.2-2.1-9.8-2.6c-2.7-0.4-1.5-3.6-1.5-3.6s4.7-6.9,11.3-20.8c6.6-13.9,0-16.2,0-16.2"/>
		</g>
		<g>
			<g>
				<path class="st7" d="M637.7,341c0,0,0,0.1-0.1,0.3c-0.1,0.2-0.2,0.5-0.4,0.9c-0.4,0.8-0.9,1.9-1.5,3.3c-1.3,2.9-3.3,7-5.8,12.1
					c-4.9,10.2-11.8,24.2-19.5,39.6c-7.7,15.5-14.6,29.5-19.5,39.6c-2.5,5.1-4.5,9.2-5.9,12c-0.7,1.4-1.2,2.5-1.6,3.3
					c-0.2,0.4-0.3,0.6-0.4,0.8c-0.1,0.2-0.2,0.3-0.2,0.3s0-0.1,0.1-0.3c0.1-0.2,0.2-0.5,0.4-0.9c0.4-0.8,0.9-1.9,1.5-3.3
					c1.3-2.9,3.3-7,5.8-12.1c4.9-10.2,11.8-24.2,19.5-39.7c7.7-15.5,14.6-29.4,19.5-39.6c2.5-5.1,4.5-9.2,5.9-12
					c0.7-1.4,1.2-2.5,1.6-3.3c0.2-0.4,0.3-0.6,0.4-0.8C637.6,341.1,637.7,341,637.7,341z"/>
			</g>
		</g>
		<g>
			<g>
				<path class="st7" d="M613.4,362.8c0,0,0.1,0.2,0.3,0.7c0.2,0.5,0.4,1.1,0.6,1.9c0.5,1.6,1.1,3.9,1.7,6.4
					c0.6,2.5,1.1,4.7,1.6,6.4c0.2,0.8,0.3,1.4,0.5,2c0.1,0.5,0.2,0.7,0.1,0.7c0,0-0.1-0.2-0.3-0.7c-0.2-0.5-0.4-1.1-0.6-1.9
					c-0.5-1.6-1-3.9-1.7-6.4c-0.6-2.5-1.2-4.7-1.6-6.4c-0.2-0.8-0.4-1.4-0.5-1.9C613.5,363.1,613.4,362.8,613.4,362.8z"/>
			</g>
		</g>
		<g>
			<g>
				<path class="st7" d="M619.1,381.1c0-0.1,4.6-1.5,10.3-3.2c5.7-1.7,10.4-3,10.4-2.9c0,0.1-4.6,1.5-10.3,3.2
					C623.8,379.9,619.2,381.2,619.1,381.1z"/>
			</g>
		</g>
		<g>
			<g>
				<path class="st7" d="M606.3,404.3c0,0,0.3,0,0.8,0c0.6,0,1.2,0,2.1,0c1.7,0,4.1,0,6.8-0.2c2.6-0.1,5-0.3,6.8-0.5
					c0.8-0.1,1.5-0.1,2-0.2c0.5,0,0.8,0,0.8,0c0,0-0.3,0.1-0.7,0.2c-0.5,0.1-1.2,0.2-2,0.3c-1.7,0.2-4.1,0.4-6.8,0.6
					c-2.6,0.1-5,0.1-6.8,0.1c-0.9,0-1.6-0.1-2.1-0.1C606.6,404.4,606.3,404.4,606.3,404.3z"/>
			</g>
		</g>
		<g>
			<g>
				<path class="st7" d="M597.5,388.9c0,0,0.2,0.2,0.4,0.6c0.2,0.4,0.6,0.9,1,1.6c0.8,1.4,2,3.3,3.2,5.4c1.2,2.1,2.3,4,3.1,5.4
					c0.4,0.7,0.7,1.3,0.9,1.7c0.2,0.4,0.3,0.6,0.3,0.6c0,0-0.2-0.2-0.4-0.6c-0.2-0.4-0.6-0.9-1-1.6c-0.8-1.4-2-3.3-3.2-5.4
					c-1.2-2.1-2.3-4-3.1-5.4c-0.4-0.7-0.7-1.3-0.9-1.7C597.6,389.1,597.5,388.9,597.5,388.9z"/>
			</g>
		</g>
		<g>
			<g>
				<path class="st7" d="M583.6,407.9c0,0,0.2,0.2,0.5,0.7c0.3,0.5,0.8,1.2,1.3,2.1c1.1,1.7,2.6,4.2,4.2,6.9
					c1.6,2.7,3.1,5.1,4.1,6.9c0.5,0.8,0.9,1.6,1.2,2.1c0.3,0.5,0.4,0.8,0.4,0.8c0,0-0.2-0.2-0.5-0.7c-0.3-0.5-0.8-1.2-1.3-2.1
					c-1.1-1.7-2.6-4.2-4.2-6.9c-1.6-2.7-3.1-5.1-4.1-6.9c-0.5-0.8-0.9-1.6-1.2-2.1C583.7,408.2,583.5,408,583.6,407.9z"/>
			</g>
		</g>
		<g>
			<g>
				<path class="st7" d="M595.1,426.9c0,0,0.3-0.1,1-0.1c0.7,0,1.6-0.1,2.6-0.1c2.2-0.1,5.2-0.2,8.6-0.5c3.3-0.2,6.4-0.5,8.6-0.8
					c1-0.1,1.9-0.2,2.6-0.3c0.6-0.1,1-0.1,1-0.1c0,0-0.3,0.1-0.9,0.2c-0.6,0.1-1.5,0.2-2.6,0.4c-2.2,0.3-5.2,0.6-8.6,0.9
					c-3.3,0.2-6.4,0.4-8.6,0.4c-1.1,0-2,0-2.6,0C595.4,426.9,595.1,426.9,595.1,426.9z"/>
			</g>
		</g>
	</g>
	<g>
		<g>
			<path class="st8" d="M148.8,426.1c-3.1-1.6-6.8-1.9-10.3-1.3c-1.9,0.3-3.8,0.8-5.1,2.2c-1.3,1.4-1.5,3.9-0.1,5.1
				c0.9,0.7,2.1,0.8,3.2,0.8c2.7,0,5.7-0.5,7.9,1.2c1.2,0.9,2,2.5,3.5,3c1.4,0.5,3.1-0.4,3.9-1.7c0.8-1.3,0.8-2.9,0.5-4.4
				C152.3,430.9,152,427.7,148.8,426.1z"/>
		</g>
		<g class="st9">
			<path d="M148.8,426.1c-3.1-1.6-6.8-1.9-10.3-1.3c-1.9,0.3-3.8,0.8-5.1,2.2c-1.3,1.4-1.5,3.9-0.1,5.1c0.9,0.7,2.1,0.8,3.2,0.8
				c2.7,0,5.7-0.5,7.9,1.2c1.2,0.9,2,2.5,3.5,3c1.4,0.5,3.1-0.4,3.9-1.7c0.8-1.3,0.8-2.9,0.5-4.4C152.3,430.9,152,427.7,148.8,426.1
				z"/>
		</g>
		<g>
			<path class="st8" d="M156.1,412.3c-1.9,2.7-5.6,1.8-7.4,0.1c-1.7-1.7-2.4-4.1-3.1-6.4c-1.5-5.3-3-10.8-1.8-16.2
				c0.3-1.6,1-3.2,2.1-4.4c1.1-1.2,2.9-1.9,4.5-1.4c1.9,0.5,3,2.4,3.9,4.1c2.4,5.1,3.7,10.8,3.7,16.5
				C157.9,407.3,157.6,410.1,156.1,412.3"/>
		</g>
		<g class="st9">
			<path class="st10" d="M156.1,412.3c-1.9,2.7-5.6,1.8-7.4,0.1c-1.7-1.7-2.4-4.1-3.1-6.4c-1.5-5.3-3-10.8-1.8-16.2
				c0.3-1.6,1-3.2,2.1-4.4c1.1-1.2,2.9-1.9,4.5-1.4c1.9,0.5,3,2.4,3.9,4.1c2.4,5.1,3.7,10.8,3.7,16.5
				C157.9,407.3,157.6,410.1,156.1,412.3"/>
		</g>
		<g>
			<path class="st8" d="M161.3,416.2c-2.1-2.5-2.4-6.1-1.5-9.2c0.9-3.1,3.1-5.7,5.5-7.8c2.8-2.5,6.2-4.4,9.7-5.7
				c1.4-0.5,2.9-0.9,4.4-0.7c1.5,0.2,3,0.9,3.6,2.2c1,2,0,4.3-1.1,6.2c-1.9,3.4-4,6.6-6.4,9.7c-1.9,2.4-4.1,4.9-7,6
				c-2.9,1.1-5.9,0.9-7.5-1.1"/>
		</g>
		<g>
			<g>
				<path class="st7" d="M155.9,453.5c0,0-0.1-0.4-0.2-1.2c-0.1-0.9-0.2-2-0.3-3.4c-0.1-1.4-0.3-3.1-0.7-5c-0.4-1.8-1-3.8-1.8-5.9
					c-0.8-2-1.8-3.9-3-5.3c-1.2-1.5-2.5-2.6-3.8-3.2c-1.3-0.6-2.4-0.9-3.2-1c-0.8-0.1-1.2-0.2-1.2-0.2c0,0,0.4,0,1.3,0
					c0.8,0.1,2,0.3,3.3,0.9c1.3,0.6,2.8,1.7,4,3.2c1.2,1.5,2.2,3.4,3.1,5.4c0.8,2.1,1.4,4.1,1.8,6c0.4,1.9,0.5,3.6,0.6,5
					c0.1,1.4,0.1,2.6,0.1,3.4C156,453,156,453.5,155.9,453.5z"/>
			</g>
		</g>
		<g>
			<g>
				<path class="st7" d="M155.7,450.9c0,0,0-0.2,0-0.6c0-0.4,0-1,0-1.6c0-1.4,0-3.5,0-6.1c-0.1-5.1-0.5-12.2-1.3-19.9
					c-0.8-7.8-1.9-14.7-2.9-19.7c-0.2-1.3-0.5-2.4-0.7-3.4c-0.2-1-0.4-1.8-0.6-2.5c-0.2-0.7-0.3-1.2-0.4-1.6
					c-0.1-0.4-0.1-0.6-0.1-0.6c0,0,0.1,0.2,0.2,0.5c0.1,0.4,0.3,0.9,0.5,1.6c0.2,0.7,0.4,1.5,0.7,2.5c0.3,1,0.5,2.1,0.8,3.4
					c1.1,5,2.2,12,3,19.8c0.8,7.8,1.1,14.8,1.1,20c0,2.6-0.1,4.6-0.1,6.1c0,0.7-0.1,1.2-0.1,1.6
					C155.8,450.7,155.7,450.9,155.7,450.9z"/>
			</g>
		</g>
		<g>
			<g>
				<path class="st7" d="M155.8,437.2c0,0,0-0.6,0-1.7c0.1-1.1,0.2-2.7,0.6-4.7c0.3-2,0.8-4.3,1.6-6.8c0.7-2.5,1.7-5.2,2.9-8
					c2.4-5.6,5.6-10.1,8.4-12.9c0.7-0.7,1.4-1.3,2-1.8c0.3-0.3,0.6-0.5,0.8-0.7c0.3-0.2,0.5-0.4,0.8-0.5c0.9-0.6,1.4-0.9,1.5-0.9
					c0.1,0.1-2.1,1.4-4.8,4.2c-2.7,2.8-5.8,7.4-8.2,12.9c-1.2,2.7-2.2,5.4-2.9,7.9c-0.8,2.5-1.3,4.8-1.7,6.7
					c-0.4,1.9-0.6,3.5-0.7,4.6C155.9,436.6,155.8,437.2,155.8,437.2z"/>
			</g>
		</g>
	</g>
</g>
<g id="Server">
	<g>
		<path class="st7" d="M319.9,155.8c-0.1,0-0.3-11-0.3-24.6c0-13.6,0.1-24.6,0.3-24.6s0.3,11,0.3,24.6
			C320.2,144.7,320,155.8,319.9,155.8z"/>
	</g>
	<g>
		<g>
			<g>
				<rect x="460.3" y="322.9" class="st7" width="112.7" height="123.7"/>
				<rect x="443.8" y="347.6" class="st11" width="123.2" height="30.6"/>
				<rect x="449.3" y="353.9" class="st7" width="24.3" height="3.7"/>
				<rect x="449.3" y="360.3" class="st7" width="24.3" height="3.7"/>
				<rect x="449.3" y="367" class="st7" width="24.3" height="3.7"/>
				<g>
					<g>
						<path class="st7" d="M483.2,356.2c0,0.8-0.6,1.4-1.4,1.4c-0.8,0-1.4-0.6-1.4-1.4c0-0.8,0.6-1.4,1.4-1.4
							C482.5,354.8,483.2,355.4,483.2,356.2z"/>
						<path class="st7" d="M489.3,356.2c0,0.8-0.6,1.4-1.4,1.4c-0.8,0-1.4-0.6-1.4-1.4c0-0.8,0.6-1.4,1.4-1.4
							C488.7,354.8,489.3,355.4,489.3,356.2z"/>
						<path class="st7" d="M495.5,356.2c0,0.8-0.6,1.4-1.4,1.4c-0.8,0-1.4-0.6-1.4-1.4c0-0.8,0.6-1.4,1.4-1.4
							C494.8,354.8,495.5,355.4,495.5,356.2z"/>
						<path class="st7" d="M501.6,356.2c0,0.8-0.6,1.4-1.4,1.4c-0.8,0-1.4-0.6-1.4-1.4c0-0.8,0.6-1.4,1.4-1.4
							C501,354.8,501.6,355.4,501.6,356.2z"/>
						<path class="st7" d="M549.2,356.2c0,0.8-0.6,1.4-1.4,1.4c-0.8,0-1.4-0.6-1.4-1.4c0-0.8,0.6-1.4,1.4-1.4
							C548.6,354.8,549.2,355.4,549.2,356.2z"/>
						<path class="st7" d="M555.4,356.2c0,0.8-0.6,1.4-1.4,1.4c-0.8,0-1.4-0.6-1.4-1.4c0-0.8,0.6-1.4,1.4-1.4
							C554.8,354.8,555.4,355.4,555.4,356.2z"/>
						<path class="st7" d="M507.7,356.2c0,0.8-0.6,1.4-1.4,1.4c-0.8,0-1.4-0.6-1.4-1.4c0-0.8,0.6-1.4,1.4-1.4
							C507.1,354.8,507.7,355.4,507.7,356.2z"/>
						<path class="st7" d="M537.9,356.2c0,0.8-0.6,1.4-1.4,1.4s-1.4-0.6-1.4-1.4c0-0.8,0.6-1.4,1.4-1.4S537.9,355.4,537.9,356.2z"/>
						<path class="st2" d="M513.9,356.2c0,0.8-0.6,1.4-1.4,1.4c-0.8,0-1.4-0.6-1.4-1.4c0-0.8,0.6-1.4,1.4-1.4
							C513.3,354.8,513.9,355.4,513.9,356.2z"/>
						<path class="st2" d="M520,356.2c0,0.8-0.6,1.4-1.4,1.4c-0.8,0-1.4-0.6-1.4-1.4c0-0.8,0.6-1.4,1.4-1.4
							C519.4,354.8,520,355.4,520,356.2z"/>
						<path class="st2" d="M532.5,356.2c0,0.8-0.6,1.4-1.4,1.4s-1.4-0.6-1.4-1.4c0-0.8,0.6-1.4,1.4-1.4S532.5,355.4,532.5,356.2z"/>
						<path class="st2" d="M560.5,356.2c0,0.8-0.6,1.4-1.4,1.4c-0.8,0-1.4-0.6-1.4-1.4c0-0.8,0.6-1.4,1.4-1.4
							C559.9,354.8,560.5,355.4,560.5,356.2z"/>
						<path class="st12" d="M526.2,356.2c0,0.8-0.6,1.4-1.4,1.4s-1.4-0.6-1.4-1.4c0-0.8,0.6-1.4,1.4-1.4S526.2,355.4,526.2,356.2z"
							/>
						<path class="st12" d="M543.7,356.2c0,0.8-0.6,1.4-1.4,1.4c-0.8,0-1.4-0.6-1.4-1.4c0-0.8,0.6-1.4,1.4-1.4
							C543.1,354.8,543.7,355.4,543.7,356.2z"/>
					</g>
					<g>
						<path class="st7" d="M557.8,362.9c0-0.8,0.6-1.4,1.4-1.4c0.8,0,1.4,0.6,1.4,1.4c0,0.8-0.6,1.4-1.4,1.4
							C558.4,364.3,557.8,363.7,557.8,362.9z"/>
						<path class="st7" d="M551.6,362.9c0-0.8,0.6-1.4,1.4-1.4s1.4,0.6,1.4,1.4c0,0.8-0.6,1.4-1.4,1.4S551.6,363.7,551.6,362.9z"/>
						<path class="st7" d="M545.5,362.9c0-0.8,0.6-1.4,1.4-1.4c0.8,0,1.4,0.6,1.4,1.4c0,0.8-0.6,1.4-1.4,1.4
							C546.1,364.3,545.5,363.7,545.5,362.9z"/>
						<path class="st7" d="M539.3,362.9c0-0.8,0.6-1.4,1.4-1.4c0.8,0,1.4,0.6,1.4,1.4c0,0.8-0.6,1.4-1.4,1.4
							C540,364.3,539.3,363.7,539.3,362.9z"/>
						<path class="st7" d="M491.7,362.9c0-0.8,0.6-1.4,1.4-1.4c0.8,0,1.4,0.6,1.4,1.4c0,0.8-0.6,1.4-1.4,1.4
							C492.4,364.3,491.7,363.7,491.7,362.9z"/>
						<path class="st7" d="M485.5,362.9c0-0.8,0.6-1.4,1.4-1.4c0.8,0,1.4,0.6,1.4,1.4c0,0.8-0.6,1.4-1.4,1.4
							C486.1,364.3,485.5,363.7,485.5,362.9z"/>
						<path class="st7" d="M533.2,362.9c0-0.8,0.6-1.4,1.4-1.4c0.8,0,1.4,0.6,1.4,1.4c0,0.8-0.6,1.4-1.4,1.4
							C533.8,364.3,533.2,363.7,533.2,362.9z"/>
						<path class="st7" d="M503,362.9c0-0.8,0.6-1.4,1.4-1.4c0.8,0,1.4,0.6,1.4,1.4c0,0.8-0.6,1.4-1.4,1.4
							C503.7,364.3,503,363.7,503,362.9z"/>
						<path class="st2" d="M527,362.9c0-0.8,0.6-1.4,1.4-1.4c0.8,0,1.4,0.6,1.4,1.4c0,0.8-0.6,1.4-1.4,1.4
							C527.7,364.3,527,363.7,527,362.9z"/>
						<path class="st2" d="M520.9,362.9c0-0.8,0.6-1.4,1.4-1.4c0.8,0,1.4,0.6,1.4,1.4c0,0.8-0.6,1.4-1.4,1.4
							C521.5,364.3,520.9,363.7,520.9,362.9z"/>
						<path class="st2" d="M508.4,362.9c0-0.8,0.6-1.4,1.4-1.4c0.8,0,1.4,0.6,1.4,1.4c0,0.8-0.6,1.4-1.4,1.4
							C509.1,364.3,508.4,363.7,508.4,362.9z"/>
						<path class="st2" d="M480.4,362.9c0-0.8,0.6-1.4,1.4-1.4c0.8,0,1.4,0.6,1.4,1.4c0,0.8-0.6,1.4-1.4,1.4
							C481,364.3,480.4,363.7,480.4,362.9z"/>
						<path class="st12" d="M514.8,362.9c0-0.8,0.6-1.4,1.4-1.4c0.8,0,1.4,0.6,1.4,1.4c0,0.8-0.6,1.4-1.4,1.4
							C515.4,364.3,514.8,363.7,514.8,362.9z"/>
						<path class="st12" d="M497.2,362.9c0-0.8,0.6-1.4,1.4-1.4c0.8,0,1.4,0.6,1.4,1.4c0,0.8-0.6,1.4-1.4,1.4
							C497.8,364.3,497.2,363.7,497.2,362.9z"/>
					</g>
					<g>
						<circle class="st7" cx="481.8" cy="368.9" r="1.4"/>
						<circle class="st7" cx="487.9" cy="368.9" r="1.4"/>
						<circle class="st7" cx="494.1" cy="368.9" r="1.4"/>
						<circle class="st7" cx="500.2" cy="368.9" r="1.4"/>
						<circle class="st7" cx="547.8" cy="368.9" r="1.4"/>
						<circle class="st7" cx="554.1" cy="368.9" r="1.4"/>
						<circle class="st7" cx="506.3" cy="368.9" r="1.4"/>
						<path class="st7" d="M537.9,368.9c0,0.8-0.6,1.4-1.4,1.4s-1.4-0.6-1.4-1.4s0.6-1.4,1.4-1.4S537.9,368.1,537.9,368.9z"/>
						<circle class="st2" cx="512.5" cy="368.9" r="1.4"/>
						<path class="st2" d="M520,368.9c0,0.8-0.6,1.4-1.4,1.4c-0.8,0-1.4-0.6-1.4-1.4s0.6-1.4,1.4-1.4
							C519.4,367.5,520,368.1,520,368.9z"/>
						<circle class="st2" cx="531.1" cy="368.9" r="1.4"/>
						<path class="st2" d="M560.5,368.9c0,0.8-0.6,1.4-1.4,1.4c-0.8,0-1.4-0.6-1.4-1.4s0.6-1.4,1.4-1.4
							C559.9,367.5,560.5,368.1,560.5,368.9z"/>
						<circle class="st12" cx="524.8" cy="368.9" r="1.4"/>
						<circle class="st12" cx="542.3" cy="368.9" r="1.4"/>
					</g>
				</g>
				<rect x="443.8" y="385.3" class="st11" width="123.2" height="30.6"/>
				<g>
					<g>
						<path class="st7" d="M482.9,393.6c0,0.8-0.6,1.4-1.4,1.4c-0.8,0-1.4-0.6-1.4-1.4c0-0.8,0.6-1.4,1.4-1.4
							C482.2,392.2,482.9,392.8,482.9,393.6z"/>
						<path class="st7" d="M489,393.6c0,0.8-0.6,1.4-1.4,1.4c-0.8,0-1.4-0.6-1.4-1.4c0-0.8,0.6-1.4,1.4-1.4
							C488.4,392.2,489,392.8,489,393.6z"/>
						<path class="st7" d="M495.1,393.6c0,0.8-0.6,1.4-1.4,1.4s-1.4-0.6-1.4-1.4c0-0.8,0.6-1.4,1.4-1.4S495.1,392.8,495.1,393.6z"/>
						<path class="st7" d="M501.3,393.6c0,0.8-0.6,1.4-1.4,1.4c-0.8,0-1.4-0.6-1.4-1.4c0-0.8,0.6-1.4,1.4-1.4
							C500.7,392.2,501.3,392.8,501.3,393.6z"/>
						<path class="st7" d="M548.9,393.6c0,0.8-0.6,1.4-1.4,1.4s-1.4-0.6-1.4-1.4c0-0.8,0.6-1.4,1.4-1.4S548.9,392.8,548.9,393.6z"/>
						<path class="st7" d="M555.1,393.6c0,0.8-0.6,1.4-1.4,1.4c-0.8,0-1.4-0.6-1.4-1.4c0-0.8,0.6-1.4,1.4-1.4
							C554.5,392.2,555.1,392.8,555.1,393.6z"/>
						<path class="st7" d="M507.4,393.6c0,0.8-0.6,1.4-1.4,1.4c-0.8,0-1.4-0.6-1.4-1.4c0-0.8,0.6-1.4,1.4-1.4
							C506.8,392.2,507.4,392.8,507.4,393.6z"/>
						<path class="st7" d="M537.6,393.6c0,0.8-0.6,1.4-1.4,1.4c-0.8,0-1.4-0.6-1.4-1.4c0-0.8,0.6-1.4,1.4-1.4
							C537,392.2,537.6,392.8,537.6,393.6z"/>
						<path class="st2" d="M513.6,393.6c0,0.8-0.6,1.4-1.4,1.4c-0.8,0-1.4-0.6-1.4-1.4c0-0.8,0.6-1.4,1.4-1.4
							C512.9,392.2,513.6,392.8,513.6,393.6z"/>
						<path class="st2" d="M519.7,393.6c0,0.8-0.6,1.4-1.4,1.4c-0.8,0-1.4-0.6-1.4-1.4c0-0.8,0.6-1.4,1.4-1.4
							C519.1,392.2,519.7,392.8,519.7,393.6z"/>
						<path class="st2" d="M532.2,393.6c0,0.8-0.6,1.4-1.4,1.4c-0.8,0-1.4-0.6-1.4-1.4c0-0.8,0.6-1.4,1.4-1.4
							C531.5,392.2,532.2,392.8,532.2,393.6z"/>
						<path class="st2" d="M560.2,393.6c0,0.8-0.6,1.4-1.4,1.4s-1.4-0.6-1.4-1.4c0-0.8,0.6-1.4,1.4-1.4S560.2,392.8,560.2,393.6z"/>
						<path class="st12" d="M525.9,393.6c0,0.8-0.6,1.4-1.4,1.4s-1.4-0.6-1.4-1.4c0-0.8,0.6-1.4,1.4-1.4S525.9,392.8,525.9,393.6z"
							/>
						<path class="st12" d="M543.4,393.6c0,0.8-0.6,1.4-1.4,1.4s-1.4-0.6-1.4-1.4c0-0.8,0.6-1.4,1.4-1.4S543.4,392.8,543.4,393.6z"
							/>
					</g>
					<g>
						<path class="st7" d="M557.5,400.3c0-0.8,0.6-1.4,1.4-1.4s1.4,0.6,1.4,1.4c0,0.8-0.6,1.4-1.4,1.4S557.5,401.1,557.5,400.3z"/>
						<path class="st7" d="M551.3,400.3c0-0.8,0.6-1.4,1.4-1.4c0.8,0,1.4,0.6,1.4,1.4c0,0.8-0.6,1.4-1.4,1.4
							C551.9,401.7,551.3,401.1,551.3,400.3z"/>
						<path class="st7" d="M545.2,400.3c0-0.8,0.6-1.4,1.4-1.4c0.8,0,1.4,0.6,1.4,1.4c0,0.8-0.6,1.4-1.4,1.4
							C545.8,401.7,545.2,401.1,545.2,400.3z"/>
						<path class="st7" d="M539,400.3c0-0.8,0.6-1.4,1.4-1.4c0.8,0,1.4,0.6,1.4,1.4c0,0.8-0.6,1.4-1.4,1.4
							C539.6,401.7,539,401.1,539,400.3z"/>
						<path class="st7" d="M491.4,400.3c0-0.8,0.6-1.4,1.4-1.4c0.8,0,1.4,0.6,1.4,1.4c0,0.8-0.6,1.4-1.4,1.4
							C492.1,401.7,491.4,401.1,491.4,400.3z"/>
						<path class="st7" d="M485.2,400.3c0-0.8,0.6-1.4,1.4-1.4c0.8,0,1.4,0.6,1.4,1.4c0,0.8-0.6,1.4-1.4,1.4
							C485.8,401.7,485.2,401.1,485.2,400.3z"/>
						<path class="st7" d="M532.9,400.3c0-0.8,0.6-1.4,1.4-1.4s1.4,0.6,1.4,1.4c0,0.8-0.6,1.4-1.4,1.4S532.9,401.1,532.9,400.3z"/>
						<path class="st7" d="M502.7,400.3c0-0.8,0.6-1.4,1.4-1.4c0.8,0,1.4,0.6,1.4,1.4c0,0.8-0.6,1.4-1.4,1.4
							C503.3,401.7,502.7,401.1,502.7,400.3z"/>
						<path class="st2" d="M526.7,400.3c0-0.8,0.6-1.4,1.4-1.4c0.8,0,1.4,0.6,1.4,1.4c0,0.8-0.6,1.4-1.4,1.4
							C527.4,401.7,526.7,401.1,526.7,400.3z"/>
						<path class="st2" d="M520.6,400.3c0-0.8,0.6-1.4,1.4-1.4c0.8,0,1.4,0.6,1.4,1.4c0,0.8-0.6,1.4-1.4,1.4
							C521.2,401.7,520.6,401.1,520.6,400.3z"/>
						<path class="st2" d="M508.1,400.3c0-0.8,0.6-1.4,1.4-1.4c0.8,0,1.4,0.6,1.4,1.4c0,0.8-0.6,1.4-1.4,1.4
							C508.8,401.7,508.1,401.1,508.1,400.3z"/>
						<path class="st2" d="M480.1,400.3c0-0.8,0.6-1.4,1.4-1.4c0.8,0,1.4,0.6,1.4,1.4c0,0.8-0.6,1.4-1.4,1.4
							C480.7,401.7,480.1,401.1,480.1,400.3z"/>
						<path class="st12" d="M514.5,400.3c0-0.8,0.6-1.4,1.4-1.4c0.8,0,1.4,0.6,1.4,1.4c0,0.8-0.6,1.4-1.4,1.4
							C515.1,401.7,514.5,401.1,514.5,400.3z"/>
						<path class="st12" d="M496.9,400.3c0-0.8,0.6-1.4,1.4-1.4c0.8,0,1.4,0.6,1.4,1.4c0,0.8-0.6,1.4-1.4,1.4
							C497.5,401.7,496.9,401.1,496.9,400.3z"/>
					</g>
					<g>
						<circle class="st7" cx="481.5" cy="406.3" r="1.4"/>
						<circle class="st7" cx="487.6" cy="406.3" r="1.4"/>
						<circle class="st7" cx="493.8" cy="406.3" r="1.4"/>
						<circle class="st7" cx="499.9" cy="406.3" r="1.4"/>
						<circle class="st7" cx="547.5" cy="406.3" r="1.4"/>
						<circle class="st7" cx="553.7" cy="406.3" r="1.4"/>
						<circle class="st7" cx="506" cy="406.3" r="1.4"/>
						<circle class="st7" cx="536.2" cy="406.3" r="1.4"/>
						<circle class="st2" cx="512.2" cy="406.3" r="1.4"/>
						<circle class="st2" cx="518.3" cy="406.3" r="1.4"/>
						<circle class="st2" cx="530.8" cy="406.3" r="1.4"/>
						<path class="st2" d="M560.2,406.3c0,0.8-0.6,1.4-1.4,1.4s-1.4-0.6-1.4-1.4c0-0.8,0.6-1.4,1.4-1.4S560.2,405.5,560.2,406.3z"/>
						<circle class="st12" cx="524.5" cy="406.3" r="1.4"/>
						<circle class="st12" cx="542" cy="406.3" r="1.4"/>
					</g>
				</g>
				<rect x="449.3" y="391.6" class="st7" width="24.3" height="3.7"/>
				<rect x="449.3" y="398.1" class="st7" width="24.3" height="3.7"/>
				<rect x="449.3" y="404.7" class="st7" width="24.3" height="3.7"/>
				<rect x="443.8" y="423.1" class="st11" width="123.2" height="30.6"/>
				<rect x="449.3" y="429.4" class="st7" width="24.3" height="3.7"/>
				<rect x="449.3" y="435.8" class="st7" width="24.3" height="3.7"/>
				<rect x="449.3" y="442.4" class="st7" width="24.3" height="3.7"/>
				<g>
					<g>
						<path class="st7" d="M482.4,431.3c0,0.8-0.6,1.4-1.4,1.4s-1.4-0.6-1.4-1.4c0-0.8,0.6-1.4,1.4-1.4S482.4,430.6,482.4,431.3z"/>
						<path class="st7" d="M488.6,431.3c0,0.8-0.6,1.4-1.4,1.4s-1.4-0.6-1.4-1.4c0-0.8,0.6-1.4,1.4-1.4S488.6,430.6,488.6,431.3z"/>
						<path class="st7" d="M494.7,431.3c0,0.8-0.6,1.4-1.4,1.4c-0.8,0-1.4-0.6-1.4-1.4c0-0.8,0.6-1.4,1.4-1.4
							C494.1,429.9,494.7,430.6,494.7,431.3z"/>
						<path class="st7" d="M500.8,431.3c0,0.8-0.6,1.4-1.4,1.4c-0.8,0-1.4-0.6-1.4-1.4c0-0.8,0.6-1.4,1.4-1.4
							C500.2,429.9,500.8,430.6,500.8,431.3z"/>
						<path class="st7" d="M548.4,431.3c0,0.8-0.6,1.4-1.4,1.4s-1.4-0.6-1.4-1.4c0-0.8,0.6-1.4,1.4-1.4S548.4,430.6,548.4,431.3z"/>
						<path class="st7" d="M554.7,431.3c0,0.8-0.6,1.4-1.4,1.4c-0.8,0-1.4-0.6-1.4-1.4c0-0.8,0.6-1.4,1.4-1.4
							C554.1,429.9,554.7,430.6,554.7,431.3z"/>
						<path class="st7" d="M507,431.3c0,0.8-0.6,1.4-1.4,1.4c-0.8,0-1.4-0.6-1.4-1.4c0-0.8,0.6-1.4,1.4-1.4
							C506.4,429.9,507,430.6,507,431.3z"/>
						<path class="st7" d="M537.1,431.3c0,0.8-0.6,1.4-1.4,1.4c-0.8,0-1.4-0.6-1.4-1.4c0-0.8,0.6-1.4,1.4-1.4
							C536.5,429.9,537.1,430.6,537.1,431.3z"/>
						<path class="st2" d="M513.1,431.3c0,0.8-0.6,1.4-1.4,1.4c-0.8,0-1.4-0.6-1.4-1.4c0-0.8,0.6-1.4,1.4-1.4
							C512.5,429.9,513.1,430.6,513.1,431.3z"/>
						<path class="st2" d="M519.3,431.3c0,0.8-0.6,1.4-1.4,1.4c-0.8,0-1.4-0.6-1.4-1.4c0-0.8,0.6-1.4,1.4-1.4
							C518.6,429.9,519.3,430.6,519.3,431.3z"/>
						<path class="st2" d="M531.7,431.3c0,0.8-0.6,1.4-1.4,1.4s-1.4-0.6-1.4-1.4c0-0.8,0.6-1.4,1.4-1.4S531.7,430.6,531.7,431.3z"/>
						<path class="st2" d="M559.8,431.3c0,0.8-0.6,1.4-1.4,1.4s-1.4-0.6-1.4-1.4c0-0.8,0.6-1.4,1.4-1.4S559.8,430.6,559.8,431.3z"/>
						<path class="st12" d="M525.4,431.3c0,0.8-0.6,1.4-1.4,1.4s-1.4-0.6-1.4-1.4c0-0.8,0.6-1.4,1.4-1.4S525.4,430.6,525.4,431.3z"
							/>
						<path class="st12" d="M543,431.3c0,0.8-0.6,1.4-1.4,1.4c-0.8,0-1.4-0.6-1.4-1.4c0-0.8,0.6-1.4,1.4-1.4
							C542.4,429.9,543,430.6,543,431.3z"/>
					</g>
					<g>
						<path class="st7" d="M557,438c0-0.8,0.6-1.4,1.4-1.4s1.4,0.6,1.4,1.4c0,0.8-0.6,1.4-1.4,1.4S557,438.8,557,438z"/>
						<path class="st7" d="M550.9,438c0-0.8,0.6-1.4,1.4-1.4c0.8,0,1.4,0.6,1.4,1.4c0,0.8-0.6,1.4-1.4,1.4
							C551.5,439.4,550.9,438.8,550.9,438z"/>
						<path class="st7" d="M544.7,438c0-0.8,0.6-1.4,1.4-1.4c0.8,0,1.4,0.6,1.4,1.4c0,0.8-0.6,1.4-1.4,1.4
							C545.3,439.4,544.7,438.8,544.7,438z"/>
						<path class="st7" d="M538.6,438c0-0.8,0.6-1.4,1.4-1.4c0.8,0,1.4,0.6,1.4,1.4c0,0.8-0.6,1.4-1.4,1.4
							C539.2,439.4,538.6,438.8,538.6,438z"/>
						<path class="st7" d="M491,438c0-0.8,0.6-1.4,1.4-1.4c0.8,0,1.4,0.6,1.4,1.4c0,0.8-0.6,1.4-1.4,1.4
							C491.6,439.4,491,438.8,491,438z"/>
						<path class="st7" d="M484.7,438c0-0.8,0.6-1.4,1.4-1.4c0.8,0,1.4,0.6,1.4,1.4c0,0.8-0.6,1.4-1.4,1.4
							C485.4,439.4,484.7,438.8,484.7,438z"/>
						<path class="st7" d="M532.4,438c0-0.8,0.6-1.4,1.4-1.4c0.8,0,1.4,0.6,1.4,1.4c0,0.8-0.6,1.4-1.4,1.4
							C533.1,439.4,532.4,438.8,532.4,438z"/>
						<path class="st7" d="M502.3,438c0-0.8,0.6-1.4,1.4-1.4c0.8,0,1.4,0.6,1.4,1.4c0,0.8-0.6,1.4-1.4,1.4
							C502.9,439.4,502.3,438.8,502.3,438z"/>
						<path class="st2" d="M526.3,438c0-0.8,0.6-1.4,1.4-1.4c0.8,0,1.4,0.6,1.4,1.4c0,0.8-0.6,1.4-1.4,1.4
							C526.9,439.4,526.3,438.8,526.3,438z"/>
						<path class="st2" d="M520.2,438c0-0.8,0.6-1.4,1.4-1.4s1.4,0.6,1.4,1.4c0,0.8-0.6,1.4-1.4,1.4S520.2,438.8,520.2,438z"/>
						<path class="st2" d="M507.7,438c0-0.8,0.6-1.4,1.4-1.4c0.8,0,1.4,0.6,1.4,1.4c0,0.8-0.6,1.4-1.4,1.4
							C508.3,439.4,507.7,438.8,507.7,438z"/>
						<path class="st2" d="M479.6,438c0-0.8,0.6-1.4,1.4-1.4s1.4,0.6,1.4,1.4c0,0.8-0.6,1.4-1.4,1.4S479.6,438.8,479.6,438z"/>
						<path class="st12" d="M514,438c0-0.8,0.6-1.4,1.4-1.4c0.8,0,1.4,0.6,1.4,1.4c0,0.8-0.6,1.4-1.4,1.4
							C514.6,439.4,514,438.8,514,438z"/>
						<path class="st12" d="M496.4,438c0-0.8,0.6-1.4,1.4-1.4c0.8,0,1.4,0.6,1.4,1.4c0,0.8-0.6,1.4-1.4,1.4
							C497.1,439.4,496.4,438.8,496.4,438z"/>
					</g>
					<g>
						<path class="st7" d="M482.4,444c0,0.8-0.6,1.4-1.4,1.4s-1.4-0.6-1.4-1.4c0-0.8,0.6-1.4,1.4-1.4S482.4,443.2,482.4,444z"/>
						<path class="st7" d="M488.6,444c0,0.8-0.6,1.4-1.4,1.4s-1.4-0.6-1.4-1.4c0-0.8,0.6-1.4,1.4-1.4S488.6,443.2,488.6,444z"/>
						<path class="st7" d="M494.7,444c0,0.8-0.6,1.4-1.4,1.4c-0.8,0-1.4-0.6-1.4-1.4c0-0.8,0.6-1.4,1.4-1.4
							C494.1,442.6,494.7,443.2,494.7,444z"/>
						<path class="st7" d="M500.8,444c0,0.8-0.6,1.4-1.4,1.4c-0.8,0-1.4-0.6-1.4-1.4c0-0.8,0.6-1.4,1.4-1.4
							C500.2,442.6,500.8,443.2,500.8,444z"/>
						<path class="st7" d="M548.4,444c0,0.8-0.6,1.4-1.4,1.4s-1.4-0.6-1.4-1.4c0-0.8,0.6-1.4,1.4-1.4S548.4,443.2,548.4,444z"/>
						<path class="st7" d="M554.7,444c0,0.8-0.6,1.4-1.4,1.4c-0.8,0-1.4-0.6-1.4-1.4c0-0.8,0.6-1.4,1.4-1.4
							C554.1,442.6,554.7,443.2,554.7,444z"/>
						<path class="st7" d="M507,444c0,0.8-0.6,1.4-1.4,1.4c-0.8,0-1.4-0.6-1.4-1.4c0-0.8,0.6-1.4,1.4-1.4
							C506.4,442.6,507,443.2,507,444z"/>
						<path class="st7" d="M537.1,444c0,0.8-0.6,1.4-1.4,1.4c-0.8,0-1.4-0.6-1.4-1.4c0-0.8,0.6-1.4,1.4-1.4
							C536.5,442.6,537.1,443.2,537.1,444z"/>
						<path class="st2" d="M513.1,444c0,0.8-0.6,1.4-1.4,1.4c-0.8,0-1.4-0.6-1.4-1.4c0-0.8,0.6-1.4,1.4-1.4
							C512.5,442.6,513.1,443.2,513.1,444z"/>
						<path class="st2" d="M519.3,444c0,0.8-0.6,1.4-1.4,1.4c-0.8,0-1.4-0.6-1.4-1.4c0-0.8,0.6-1.4,1.4-1.4
							C518.6,442.6,519.3,443.2,519.3,444z"/>
						<path class="st2" d="M531.7,444c0,0.8-0.6,1.4-1.4,1.4s-1.4-0.6-1.4-1.4c0-0.8,0.6-1.4,1.4-1.4S531.7,443.2,531.7,444z"/>
						<path class="st2" d="M559.8,444c0,0.8-0.6,1.4-1.4,1.4s-1.4-0.6-1.4-1.4c0-0.8,0.6-1.4,1.4-1.4S559.8,443.2,559.8,444z"/>
						<path class="st12" d="M525.4,444c0,0.8-0.6,1.4-1.4,1.4s-1.4-0.6-1.4-1.4c0-0.8,0.6-1.4,1.4-1.4S525.4,443.2,525.4,444z"/>
						<path class="st12" d="M543,444c0,0.8-0.6,1.4-1.4,1.4c-0.8,0-1.4-0.6-1.4-1.4c0-0.8,0.6-1.4,1.4-1.4
							C542.4,442.6,543,443.2,543,444z"/>
					</g>
				</g>
			</g>
			<polygon class="st7" points="585.6,378.1 567.1,378.2 567.1,347.6 585.6,347.6 			"/>
			<polygon class="st7" points="585.6,341 567.1,341 567.1,310.5 585.6,310.4 			"/>
			<polygon class="st7" points="585.6,415.6 567.1,415.7 567.1,385.1 585.6,385.1 			"/>
			<polygon class="st7" points="585.6,453.6 567.1,453.6 567.1,423.1 585.6,423 			"/>
		</g>
		<rect x="444.7" y="310.2" class="st11" width="123.2" height="30.6"/>
		<rect x="450.2" y="316.5" class="st7" width="24.3" height="3.7"/>
		<rect x="450.2" y="322.9" class="st7" width="24.3" height="3.7"/>
		<rect x="450.2" y="329.5" class="st7" width="24.3" height="3.7"/>
		<g>
			<g>
				<path class="st7" d="M484.1,318.7c0,0.8-0.6,1.4-1.4,1.4c-0.8,0-1.4-0.6-1.4-1.4c0-0.8,0.6-1.4,1.4-1.4
					C483.4,317.3,484.1,318,484.1,318.7z"/>
				<path class="st7" d="M490.2,318.7c0,0.8-0.6,1.4-1.4,1.4c-0.8,0-1.4-0.6-1.4-1.4c0-0.8,0.6-1.4,1.4-1.4
					C489.6,317.3,490.2,318,490.2,318.7z"/>
				<path class="st7" d="M496.3,318.7c0,0.8-0.6,1.4-1.4,1.4c-0.8,0-1.4-0.6-1.4-1.4c0-0.8,0.6-1.4,1.4-1.4
					C495.7,317.3,496.3,318,496.3,318.7z"/>
				<path class="st7" d="M502.5,318.7c0,0.8-0.6,1.4-1.4,1.4c-0.8,0-1.4-0.6-1.4-1.4c0-0.8,0.6-1.4,1.4-1.4
					C501.9,317.3,502.5,318,502.5,318.7z"/>
				<path class="st7" d="M550.1,318.7c0,0.8-0.6,1.4-1.4,1.4c-0.8,0-1.4-0.6-1.4-1.4c0-0.8,0.6-1.4,1.4-1.4
					C549.5,317.3,550.1,318,550.1,318.7z"/>
				<path class="st7" d="M556.3,318.7c0,0.8-0.6,1.4-1.4,1.4c-0.8,0-1.4-0.6-1.4-1.4c0-0.8,0.6-1.4,1.4-1.4
					C555.7,317.3,556.3,318,556.3,318.7z"/>
				<path class="st7" d="M508.6,318.7c0,0.8-0.6,1.4-1.4,1.4c-0.8,0-1.4-0.6-1.4-1.4c0-0.8,0.6-1.4,1.4-1.4
					C508,317.3,508.6,318,508.6,318.7z"/>
				<path class="st7" d="M538.8,318.7c0,0.8-0.6,1.4-1.4,1.4c-0.8,0-1.4-0.6-1.4-1.4c0-0.8,0.6-1.4,1.4-1.4
					C538.2,317.3,538.8,318,538.8,318.7z"/>
				<path class="st2" d="M514.8,318.7c0,0.8-0.6,1.4-1.4,1.4c-0.8,0-1.4-0.6-1.4-1.4c0-0.8,0.6-1.4,1.4-1.4
					C514.1,317.3,514.8,318,514.8,318.7z"/>
				<path class="st2" d="M520.9,318.7c0,0.8-0.6,1.4-1.4,1.4c-0.8,0-1.4-0.6-1.4-1.4c0-0.8,0.6-1.4,1.4-1.4
					C520.3,317.3,520.9,318,520.9,318.7z"/>
				<path class="st2" d="M533.4,318.7c0,0.8-0.6,1.4-1.4,1.4c-0.8,0-1.4-0.6-1.4-1.4c0-0.8,0.6-1.4,1.4-1.4
					C532.7,317.3,533.4,318,533.4,318.7z"/>
				<path class="st2" d="M561.4,318.7c0,0.8-0.6,1.4-1.4,1.4c-0.8,0-1.4-0.6-1.4-1.4c0-0.8,0.6-1.4,1.4-1.4
					C560.8,317.3,561.4,318,561.4,318.7z"/>
				<path class="st12" d="M527,318.7c0,0.8-0.6,1.4-1.4,1.4c-0.8,0-1.4-0.6-1.4-1.4c0-0.8,0.6-1.4,1.4-1.4
					C526.4,317.3,527,318,527,318.7z"/>
				<path class="st12" d="M544.6,318.7c0,0.8-0.6,1.4-1.4,1.4c-0.8,0-1.4-0.6-1.4-1.4c0-0.8,0.6-1.4,1.4-1.4
					C544,317.3,544.6,318,544.6,318.7z"/>
			</g>
			<g>
				<path class="st7" d="M558.6,325.4c0-0.8,0.6-1.4,1.4-1.4c0.8,0,1.4,0.6,1.4,1.4c0,0.8-0.6,1.4-1.4,1.4
					C559.3,326.8,558.6,326.2,558.6,325.4z"/>
				<path class="st7" d="M552.5,325.4c0-0.8,0.6-1.4,1.4-1.4c0.8,0,1.4,0.6,1.4,1.4c0,0.8-0.6,1.4-1.4,1.4
					C553.1,326.8,552.5,326.2,552.5,325.4z"/>
				<path class="st7" d="M546.4,325.4c0-0.8,0.6-1.4,1.4-1.4s1.4,0.6,1.4,1.4c0,0.8-0.6,1.4-1.4,1.4S546.4,326.2,546.4,325.4z"/>
				<path class="st7" d="M540.2,325.4c0-0.8,0.6-1.4,1.4-1.4s1.4,0.6,1.4,1.4c0,0.8-0.6,1.4-1.4,1.4S540.2,326.2,540.2,325.4z"/>
				<path class="st7" d="M492.6,325.4c0-0.8,0.6-1.4,1.4-1.4c0.8,0,1.4,0.6,1.4,1.4c0,0.8-0.6,1.4-1.4,1.4
					C493.3,326.8,492.6,326.2,492.6,325.4z"/>
				<path class="st7" d="M486.4,325.4c0-0.8,0.6-1.4,1.4-1.4c0.8,0,1.4,0.6,1.4,1.4c0,0.8-0.6,1.4-1.4,1.4
					C487,326.8,486.4,326.2,486.4,325.4z"/>
				<path class="st7" d="M534.1,325.4c0-0.8,0.6-1.4,1.4-1.4c0.8,0,1.4,0.6,1.4,1.4c0,0.8-0.6,1.4-1.4,1.4
					C534.7,326.8,534.1,326.2,534.1,325.4z"/>
				<path class="st7" d="M503.9,325.4c0-0.8,0.6-1.4,1.4-1.4c0.8,0,1.4,0.6,1.4,1.4c0,0.8-0.6,1.4-1.4,1.4
					C504.5,326.8,503.9,326.2,503.9,325.4z"/>
				<path class="st2" d="M527.9,325.4c0-0.8,0.6-1.4,1.4-1.4s1.4,0.6,1.4,1.4c0,0.8-0.6,1.4-1.4,1.4S527.9,326.2,527.9,325.4z"/>
				<path class="st2" d="M521.8,325.4c0-0.8,0.6-1.4,1.4-1.4c0.8,0,1.4,0.6,1.4,1.4c0,0.8-0.6,1.4-1.4,1.4
					C522.4,326.8,521.8,326.2,521.8,325.4z"/>
				<path class="st2" d="M509.3,325.4c0-0.8,0.6-1.4,1.4-1.4c0.8,0,1.4,0.6,1.4,1.4c0,0.8-0.6,1.4-1.4,1.4
					C510,326.8,509.3,326.2,509.3,325.4z"/>
				<path class="st2" d="M481.3,325.4c0-0.8,0.6-1.4,1.4-1.4c0.8,0,1.4,0.6,1.4,1.4c0,0.8-0.6,1.4-1.4,1.4
					C481.9,326.8,481.3,326.2,481.3,325.4z"/>
				<path class="st12" d="M515.7,325.4c0-0.8,0.6-1.4,1.4-1.4s1.4,0.6,1.4,1.4c0,0.8-0.6,1.4-1.4,1.4S515.7,326.2,515.7,325.4z"/>
				<path class="st12" d="M498.1,325.4c0-0.8,0.6-1.4,1.4-1.4c0.8,0,1.4,0.6,1.4,1.4c0,0.8-0.6,1.4-1.4,1.4
					C498.7,326.8,498.1,326.2,498.1,325.4z"/>
			</g>
			<g>
				<path class="st7" d="M484.1,331.4c0,0.8-0.6,1.4-1.4,1.4c-0.8,0-1.4-0.6-1.4-1.4c0-0.8,0.6-1.4,1.4-1.4
					C483.4,330,484.1,330.6,484.1,331.4z"/>
				<path class="st7" d="M490.2,331.4c0,0.8-0.6,1.4-1.4,1.4c-0.8,0-1.4-0.6-1.4-1.4c0-0.8,0.6-1.4,1.4-1.4
					C489.6,330,490.2,330.6,490.2,331.4z"/>
				<path class="st7" d="M496.3,331.4c0,0.8-0.6,1.4-1.4,1.4c-0.8,0-1.4-0.6-1.4-1.4c0-0.8,0.6-1.4,1.4-1.4
					C495.7,330,496.3,330.6,496.3,331.4z"/>
				<path class="st7" d="M502.5,331.4c0,0.8-0.6,1.4-1.4,1.4c-0.8,0-1.4-0.6-1.4-1.4c0-0.8,0.6-1.4,1.4-1.4
					C501.9,330,502.5,330.6,502.5,331.4z"/>
				<path class="st7" d="M550.1,331.4c0,0.8-0.6,1.4-1.4,1.4c-0.8,0-1.4-0.6-1.4-1.4c0-0.8,0.6-1.4,1.4-1.4
					C549.5,330,550.1,330.6,550.1,331.4z"/>
				<path class="st7" d="M556.3,331.4c0,0.8-0.6,1.4-1.4,1.4c-0.8,0-1.4-0.6-1.4-1.4c0-0.8,0.6-1.4,1.4-1.4
					C555.7,330,556.3,330.6,556.3,331.4z"/>
				<path class="st7" d="M508.6,331.4c0,0.8-0.6,1.4-1.4,1.4c-0.8,0-1.4-0.6-1.4-1.4c0-0.8,0.6-1.4,1.4-1.4
					C508,330,508.6,330.6,508.6,331.4z"/>
				<path class="st7" d="M538.8,331.4c0,0.8-0.6,1.4-1.4,1.4c-0.8,0-1.4-0.6-1.4-1.4c0-0.8,0.6-1.4,1.4-1.4
					C538.2,330,538.8,330.6,538.8,331.4z"/>
				<path class="st2" d="M514.8,331.4c0,0.8-0.6,1.4-1.4,1.4c-0.8,0-1.4-0.6-1.4-1.4c0-0.8,0.6-1.4,1.4-1.4
					C514.1,330,514.8,330.6,514.8,331.4z"/>
				<path class="st2" d="M520.9,331.4c0,0.8-0.6,1.4-1.4,1.4c-0.8,0-1.4-0.6-1.4-1.4c0-0.8,0.6-1.4,1.4-1.4
					C520.3,330,520.9,330.6,520.9,331.4z"/>
				<path class="st2" d="M533.4,331.4c0,0.8-0.6,1.4-1.4,1.4c-0.8,0-1.4-0.6-1.4-1.4c0-0.8,0.6-1.4,1.4-1.4
					C532.7,330,533.4,330.6,533.4,331.4z"/>
				<path class="st2" d="M561.4,331.4c0,0.8-0.6,1.4-1.4,1.4c-0.8,0-1.4-0.6-1.4-1.4c0-0.8,0.6-1.4,1.4-1.4
					C560.8,330,561.4,330.6,561.4,331.4z"/>
				<path class="st12" d="M527,331.4c0,0.8-0.6,1.4-1.4,1.4c-0.8,0-1.4-0.6-1.4-1.4c0-0.8,0.6-1.4,1.4-1.4
					C526.4,330,527,330.6,527,331.4z"/>
				<path class="st12" d="M544.6,331.4c0,0.8-0.6,1.4-1.4,1.4c-0.8,0-1.4-0.6-1.4-1.4c0-0.8,0.6-1.4,1.4-1.4
					C544,330,544.6,330.6,544.6,331.4z"/>
			</g>
		</g>
	</g>
	<g>
		<path class="st7" d="M365.1,91c0,0,0.3,0,1,0c0.7,0,1.7,0,3,0c2.7,0,6.6,0,11.6,0c10.1,0,24.7,0,42.7-0.1c36.1,0,85.9,0,140.9-0.1
			c3.5,0,6.9,0.4,10.2,1.6c3.2,1.1,6.3,2.7,8.9,4.9c5.3,4.3,8.8,10.3,10.2,16.7c0.7,3.2,0.6,6.5,0.6,9.7c0,3.2,0,6.3,0,9.5
			c0,6.2,0,12.4,0,18.3c0,23.8,0,45.3-0.1,63.4c0,4.5,0,8.8,0,12.9c0,2,0,4,0,5.9c0,1.9-0.3,3.8-1.1,5.5c-1.5,3.3-4.5,5.5-7.5,6.2
			c-1.5,0.4-3,0.3-4.4,0.3c-1.4,0-2.7,0-4,0c-5,0-8.9,0-11.6,0c-1.3,0-2.3,0-3,0c-0.7,0-1,0-1,0s0.3,0,1,0c0.7,0,1.7,0,3,0
			c2.7,0,6.6,0,11.6,0c1.3,0,2.6,0,4,0c1.4,0,2.9,0,4.3-0.3c2.9-0.7,5.9-2.8,7.3-6.1c0.8-1.6,1.1-3.4,1-5.3c0-1.9,0-3.9,0-5.9
			c0-4.1,0-8.4,0-12.9c0-18,0-39.5-0.1-63.4c0-6,0-12.1,0-18.3c0-3.1,0-6.3,0-9.5c0-3.2,0.1-6.4-0.6-9.6c-1.3-6.3-4.8-12.2-10-16.4
			c-2.6-2.1-5.6-3.7-8.7-4.8c-3.2-1.1-6.6-1.5-10-1.5c-55,0-104.8-0.1-140.9-0.1c-18,0-32.6-0.1-42.7-0.1c-5,0-8.9,0-11.6,0
			c-1.3,0-2.3,0-3,0C365.5,91,365.1,91,365.1,91z"/>
	</g>
	<g>
		<g>
			<rect x="264.3" y="157.1" class="st0" width="96.6" height="295.9"/>
			<polygon class="st1" points="437.1,453.1 360.9,453.1 360.7,157.1 437.1,157.1 			"/>
			<g>
				<rect x="269.6" y="204.5" class="st7" width="82" height="23.1"/>
				<rect x="271.9" y="207.4" class="st11" width="4.6" height="17.7"/>
				<path class="st10" d="M281.9,211.1c0,0.8-0.7,1.5-1.5,1.5c-0.8,0-1.5-0.7-1.5-1.5c0-0.8,0.7-1.5,1.5-1.5
					C281.2,209.7,281.9,210.3,281.9,211.1z"/>
				<path class="st10" d="M281.9,217.4c0,0.8-0.7,1.5-1.5,1.5c-0.8,0-1.5-0.7-1.5-1.5c0-0.8,0.7-1.5,1.5-1.5
					C281.2,215.9,281.9,216.6,281.9,217.4z"/>
				<rect x="287.7" y="209.7" class="st11" width="4.5" height="13.6"/>
				<rect x="294.2" y="209.7" class="st11" width="4.5" height="13.6"/>
				<rect x="300.7" y="209.7" class="st11" width="4.5" height="13.6"/>
				<rect x="307.3" y="209.7" class="st11" width="4.5" height="13.6"/>
				<rect x="313.8" y="209.7" class="st11" width="4.5" height="13.6"/>
				<rect x="320.3" y="209.7" class="st11" width="4.5" height="13.6"/>
				<rect x="326.8" y="209.7" class="st11" width="4.5" height="13.6"/>
				<rect x="333.3" y="209.7" class="st11" width="4.5" height="13.6"/>
				<rect x="339.8" y="209.7" class="st11" width="4.5" height="13.6"/>
				<rect x="346.3" y="209.7" class="st11" width="4.5" height="13.6"/>
			</g>
			<g>
				<rect x="269.6" y="237.7" class="st7" width="82" height="23.1"/>
				<rect x="271.9" y="240.6" class="st11" width="4.6" height="17.7"/>
				<path class="st10" d="M281.9,244.3c0,0.8-0.7,1.5-1.5,1.5c-0.8,0-1.5-0.7-1.5-1.5s0.7-1.5,1.5-1.5
					C281.2,242.8,281.9,243.5,281.9,244.3z"/>
				<path class="st10" d="M281.9,250.5c0,0.8-0.7,1.5-1.5,1.5c-0.8,0-1.5-0.7-1.5-1.5c0-0.8,0.7-1.5,1.5-1.5
					C281.2,249,281.9,249.7,281.9,250.5z"/>
				<rect x="287.7" y="242.8" class="st11" width="4.5" height="13.6"/>
				<rect x="294.2" y="242.8" class="st11" width="4.5" height="13.6"/>
				<rect x="300.7" y="242.8" class="st11" width="4.5" height="13.6"/>
				<rect x="307.3" y="242.8" class="st11" width="4.5" height="13.6"/>
				<rect x="313.8" y="242.8" class="st11" width="4.5" height="13.6"/>
				<rect x="320.3" y="242.8" class="st11" width="4.5" height="13.6"/>
				<rect x="326.8" y="242.8" class="st11" width="4.5" height="13.6"/>
				<rect x="333.3" y="242.8" class="st11" width="4.5" height="13.6"/>
				<rect x="339.8" y="242.8" class="st11" width="4.5" height="13.6"/>
				<rect x="346.3" y="242.8" class="st11" width="4.5" height="13.6"/>
			</g>
			<g>
				<rect x="269.6" y="271.1" class="st7" width="82" height="23.1"/>
				<rect x="271.9" y="274" class="st11" width="4.6" height="17.7"/>
				<path class="st10" d="M281.9,277.7c0,0.8-0.7,1.5-1.5,1.5c-0.8,0-1.5-0.7-1.5-1.5c0-0.8,0.7-1.5,1.5-1.5
					C281.2,276.2,281.9,276.9,281.9,277.7z"/>
				<path class="st10" d="M281.9,283.9c0,0.8-0.7,1.5-1.5,1.5c-0.8,0-1.5-0.7-1.5-1.5c0-0.8,0.7-1.5,1.5-1.5
					C281.2,282.5,281.9,283.1,281.9,283.9z"/>
				<rect x="287.7" y="276.2" class="st11" width="4.5" height="13.6"/>
				<rect x="294.2" y="276.2" class="st11" width="4.5" height="13.6"/>
				<rect x="300.7" y="276.2" class="st11" width="4.5" height="13.6"/>
				<rect x="307.3" y="276.2" class="st11" width="4.5" height="13.6"/>
				<rect x="313.8" y="276.2" class="st11" width="4.5" height="13.6"/>
				<rect x="320.3" y="276.2" class="st11" width="4.5" height="13.6"/>
				<rect x="326.8" y="276.2" class="st11" width="4.5" height="13.6"/>
				<rect x="333.3" y="276.2" class="st11" width="4.5" height="13.6"/>
				<rect x="339.8" y="276.2" class="st11" width="4.5" height="13.6"/>
				<rect x="346.3" y="276.2" class="st11" width="4.5" height="13.6"/>
			</g>
			<g>
				<rect x="269.6" y="307.2" class="st7" width="82" height="23.1"/>
				<rect x="271.9" y="310.1" class="st11" width="4.6" height="17.7"/>
				<path class="st10" d="M281.9,313.8c0,0.8-0.7,1.5-1.5,1.5c-0.8,0-1.5-0.7-1.5-1.5c0-0.8,0.7-1.5,1.5-1.5
					C281.2,312.3,281.9,313,281.9,313.8z"/>
				<path class="st10" d="M281.9,320c0,0.8-0.7,1.5-1.5,1.5c-0.8,0-1.5-0.7-1.5-1.5c0-0.8,0.7-1.5,1.5-1.5
					C281.2,318.6,281.9,319.2,281.9,320z"/>
				<rect x="287.7" y="312.3" class="st11" width="4.5" height="13.6"/>
				<rect x="294.2" y="312.3" class="st11" width="4.5" height="13.6"/>
				<rect x="300.7" y="312.3" class="st11" width="4.5" height="13.6"/>
				<rect x="307.3" y="312.3" class="st11" width="4.5" height="13.6"/>
				<rect x="313.8" y="312.3" class="st11" width="4.5" height="13.6"/>
				<rect x="320.3" y="312.3" class="st11" width="4.5" height="13.6"/>
				<rect x="326.8" y="312.3" class="st11" width="4.5" height="13.6"/>
				<rect x="333.3" y="312.3" class="st11" width="4.5" height="13.6"/>
				<rect x="339.8" y="312.3" class="st11" width="4.5" height="13.6"/>
				<rect x="346.3" y="312.3" class="st11" width="4.5" height="13.6"/>
			</g>
			<g>
				<rect x="269.6" y="343.6" class="st7" width="82" height="23.1"/>
				<rect x="271.9" y="346.5" class="st11" width="4.6" height="17.7"/>
				<path class="st10" d="M281.9,350.2c0,0.8-0.7,1.5-1.5,1.5c-0.8,0-1.5-0.7-1.5-1.5c0-0.8,0.7-1.5,1.5-1.5
					C281.2,348.8,281.9,349.4,281.9,350.2z"/>
				<path class="st10" d="M281.9,356.5c0,0.8-0.7,1.5-1.5,1.5c-0.8,0-1.5-0.7-1.5-1.5c0-0.8,0.7-1.5,1.5-1.5
					C281.2,355,281.9,355.7,281.9,356.5z"/>
				<rect x="287.7" y="348.8" class="st11" width="4.5" height="13.6"/>
				<rect x="294.2" y="348.8" class="st11" width="4.5" height="13.6"/>
				<rect x="300.7" y="348.8" class="st11" width="4.5" height="13.6"/>
				<rect x="307.3" y="348.8" class="st11" width="4.5" height="13.6"/>
				<rect x="313.8" y="348.8" class="st11" width="4.5" height="13.6"/>
				<rect x="320.3" y="348.8" class="st11" width="4.5" height="13.6"/>
				<rect x="326.8" y="348.8" class="st11" width="4.5" height="13.6"/>
				<rect x="333.3" y="348.8" class="st11" width="4.5" height="13.6"/>
				<rect x="339.8" y="348.8" class="st11" width="4.5" height="13.6"/>
				<rect x="346.3" y="348.8" class="st11" width="4.5" height="13.6"/>
			</g>
			<g>
				<rect x="269.6" y="416.1" class="st7" width="82" height="23.1"/>
				<rect x="271.9" y="419" class="st11" width="4.6" height="17.7"/>
				<path class="st10" d="M281.9,422.8c0,0.8-0.7,1.5-1.5,1.5c-0.8,0-1.5-0.7-1.5-1.5c0-0.8,0.7-1.5,1.5-1.5
					C281.2,421.3,281.9,422,281.9,422.8z"/>
				<path class="st10" d="M281.9,429c0,0.8-0.7,1.5-1.5,1.5c-0.8,0-1.5-0.7-1.5-1.5c0-0.8,0.7-1.5,1.5-1.5
					C281.2,427.5,281.9,428.2,281.9,429z"/>
				<rect x="287.7" y="421.3" class="st11" width="4.5" height="13.6"/>
				<rect x="294.2" y="421.3" class="st11" width="4.5" height="13.6"/>
				<rect x="300.7" y="421.3" class="st11" width="4.5" height="13.6"/>
				<rect x="307.3" y="421.3" class="st11" width="4.5" height="13.6"/>
				<rect x="313.8" y="421.3" class="st11" width="4.5" height="13.6"/>
				<rect x="320.3" y="421.3" class="st11" width="4.5" height="13.6"/>
				<rect x="326.8" y="421.3" class="st11" width="4.5" height="13.6"/>
				<rect x="333.3" y="421.3" class="st11" width="4.5" height="13.6"/>
				<rect x="339.8" y="421.3" class="st11" width="4.5" height="13.6"/>
				<rect x="346.3" y="421.3" class="st11" width="4.5" height="13.6"/>
			</g>
			<g>
				<rect x="269.6" y="379.9" class="st7" width="82" height="23.1"/>
				<rect x="271.9" y="382.8" class="st11" width="4.6" height="17.7"/>
				<path class="st10" d="M281.9,386.5c0,0.8-0.7,1.5-1.5,1.5c-0.8,0-1.5-0.7-1.5-1.5c0-0.8,0.7-1.5,1.5-1.5
					C281.2,385.1,281.9,385.7,281.9,386.5z"/>
				<path class="st10" d="M281.9,392.8c0,0.8-0.7,1.5-1.5,1.5c-0.8,0-1.5-0.7-1.5-1.5c0-0.8,0.7-1.5,1.5-1.5
					C281.2,391.3,281.9,392,281.9,392.8z"/>
				<rect x="287.7" y="385.1" class="st11" width="4.5" height="13.6"/>
				<rect x="294.2" y="385.1" class="st11" width="4.5" height="13.6"/>
				<rect x="300.7" y="385.1" class="st11" width="4.5" height="13.6"/>
				<rect x="307.3" y="385.1" class="st11" width="4.5" height="13.6"/>
				<rect x="313.8" y="385.1" class="st11" width="4.5" height="13.6"/>
				<rect x="320.3" y="385.1" class="st11" width="4.5" height="13.6"/>
				<rect x="326.8" y="385.1" class="st11" width="4.5" height="13.6"/>
				<rect x="333.3" y="385.1" class="st11" width="4.5" height="13.6"/>
				<rect x="339.8" y="385.1" class="st11" width="4.5" height="13.6"/>
				<rect x="346.3" y="385.1" class="st11" width="4.5" height="13.6"/>
			</g>
			<g>
				<path class="st7" d="M320.3,204.5c0,0,0-0.2-0.1-0.7c0-0.5-0.1-1.2-0.1-2c0-0.9,0-2-0.1-3.2c-0.1-1.3-0.2-2.7-0.6-4.2
					c-0.4-1.5-1.1-3.1-2.2-4.6c-1.1-1.5-2.6-2.8-4.5-3.6c-1.9-0.8-4.1-1.1-6.4-1.3c-2.3-0.2-4.6-0.4-7.1-0.6
					c-9.7-0.8-18.4-1.4-24.8-1.5c-3.2-0.1-5.8,0-7.5,0c-0.8,0-1.5,0-2,0c-0.5,0-0.7,0-0.7,0c0,0,0.2,0,0.7-0.1c0.5,0,1.2-0.1,2-0.1
					c1.8-0.1,4.4-0.1,7.5-0.1c6.4,0,15.2,0.5,24.8,1.3c2.4,0.2,4.8,0.4,7.1,0.6c2.3,0.2,4.5,0.5,6.5,1.4c2,0.8,3.6,2.2,4.7,3.8
					c1.1,1.6,1.8,3.2,2.2,4.8c0.4,1.6,0.4,3,0.5,4.3c0,1.3,0,2.4,0,3.2c0,0.8,0,1.5,0,2C320.3,204.3,320.3,204.5,320.3,204.5z"/>
			</g>
			<g>
				<path class="st7" d="M295.4,204.5c0,0,0-0.2,0-0.7c0-0.5,0-1.1,0-1.9c0-0.8,0-1.9-0.1-3c-0.1-1.2-0.3-2.5-1-3.8
					c-0.7-1.3-2.1-2.2-3.7-2.9c-1.6-0.6-3.5-0.9-5.4-0.5c-0.9,0.2-1.9,0.5-2.8,0.9c-0.9,0.5-1.7,1.2-2.2,2c-0.5,0.9-0.5,2,0,2.9
					c0.5,0.9,1.4,1.6,2.5,1.8c1,0.3,2.1-0.1,2.9-0.8c0.8-0.7,1.2-1.7,1.3-2.7c0.1-1-0.3-2-0.9-2.8c-0.6-0.8-1.3-1.5-2.2-1.9
					c-0.8-0.5-1.8-0.5-2.7-0.7c-0.9-0.1-1.8-0.3-2.7-0.4c-1.7-0.2-3.4-0.3-4.9-0.4c-3-0.1-5.4-0.1-7.1-0.1c-0.8,0-1.4,0-1.9,0
					c-0.4,0-0.7,0-0.7,0c0,0,0.2,0,0.7-0.1c0.5,0,1.1-0.1,1.9-0.1c1.7-0.1,4.1-0.2,7.1-0.1c1.5,0,3.1,0.1,4.9,0.3
					c0.9,0.1,1.8,0.2,2.7,0.3c0.5,0.1,0.9,0.1,1.4,0.2c0.5,0.1,1,0.3,1.4,0.5c0.9,0.5,1.7,1.2,2.4,2.1c0.6,0.9,1.1,2,1,3.1
					c-0.1,1.1-0.6,2.3-1.4,3.1c-0.8,0.8-2.1,1.3-3.3,1c-1.2-0.3-2.2-1.1-2.8-2.1c-0.6-1-0.6-2.4,0-3.4c0.5-1,1.4-1.7,2.4-2.2
					c0.9-0.5,1.9-0.8,2.9-1c2-0.3,4-0.1,5.6,0.6c1.6,0.7,3.1,1.7,3.9,3.1c0.7,1.4,0.9,2.8,1,4c0.1,1.2,0,2.2,0,3.1
					c0,0.8-0.1,1.4-0.1,1.9C295.5,204.3,295.4,204.5,295.4,204.5z"/>
			</g>
			<g>
				<path class="st7" d="M327,204.5c0,0-0.1-0.3-0.2-0.8c-0.1-0.5-0.2-1.2-0.4-2.2c-0.4-1.9-1.1-4.6-2.4-7.8
					c-1.3-3.2-3.5-6.8-7.1-9.6c-1.8-1.4-4.1-2.2-6.5-2.5c-2.4-0.4-5-0.3-7.7-0.4c-10.6-0.2-20.2-0.2-27.1-0.4
					c-3.5-0.1-6.3-0.3-8.2-0.4c-0.9-0.1-1.7-0.1-2.2-0.2c-0.5,0-0.8-0.1-0.8-0.1c0,0,0.3,0,0.8,0c0.6,0,1.3,0.1,2.2,0.1
					c1.9,0.1,4.7,0.2,8.2,0.3c6.9,0.2,16.5,0.1,27.1,0.3c2.6,0.1,5.2,0.1,7.7,0.4c2.5,0.3,4.9,1.1,6.8,2.6c1.8,1.4,3.4,3.1,4.5,4.8
					c1.2,1.7,2,3.4,2.7,5c1.3,3.2,1.9,6,2.3,7.9c0.2,1,0.3,1.7,0.3,2.2C327,204.2,327,204.5,327,204.5z"/>
			</g>
			<rect x="270.7" y="160.8" class="st7" width="79.7" height="11.6"/>
			<rect x="288.3" y="166.6" class="st11" width="43.4" height="5.8"/>
			<g>
				<g>
					<path class="st7" d="M382.9,400.8c0,0.1-0.9,0.1-2.4,0.6c-1.5,0.5-3.7,1.3-6,2.9c-1.2,0.8-2.3,1.8-3.4,3.1
						c-0.5,0.6-1,1.4-1.4,2.1c-0.4,0.8-0.6,1.7-0.9,2.6c-0.9,3.7-0.6,7.8-0.5,12.2c0.2,4.4-0.1,8.7-1.8,12.2c-0.8,1.7-2,3.2-3.3,4.3
						c-1.3,1.1-2.7,1.9-4,2.5c-1.3,0.6-2.6,0.9-3.7,1.1c-1.1,0.2-2.1,0.2-2.9,0.1c-0.8-0.1-1.4-0.2-1.8-0.3
						c-0.4-0.1-0.6-0.2-0.6-0.2c0-0.1,0.9,0.2,2.5,0.3c0.8,0,1.8,0,2.9-0.2c1.1-0.2,2.3-0.6,3.6-1.2c1.3-0.6,2.6-1.4,3.9-2.5
						c1.2-1.1,2.3-2.5,3.1-4.2c1.6-3.4,1.9-7.6,1.7-12c-0.2-4.3-0.4-8.6,0.5-12.3c0.2-0.9,0.5-1.8,0.9-2.7c0.4-0.8,0.9-1.6,1.5-2.2
						c1.1-1.3,2.3-2.4,3.5-3.2c2.4-1.6,4.6-2.4,6.2-2.8c0.8-0.2,1.4-0.3,1.8-0.3C382.7,400.8,382.9,400.8,382.9,400.8z"/>
				</g>
				<rect x="346.2" y="440.6" class="st7" width="6.5" height="8"/>
				<g>
					<rect x="382.9" y="380.7" class="st11" width="36.7" height="40.2"/>
					
						<ellipse transform="matrix(0.2158 -0.9764 0.9764 0.2158 -76.8033 706.2284)" class="st7" cx="401.3" cy="400.9" rx="12.1" ry="12.1"/>
					<path class="st11" d="M407.3,400.9c0,3.3-2.7,6-6,6s-6-2.7-6-6s2.7-6,6-6S407.3,397.6,407.3,400.9z"/>
					<circle class="st7" cx="387.9" cy="386.9" r="1.1"/>
					<circle class="st7" cx="414" cy="386.9" r="1.1"/>
					<path class="st7" d="M415.4,416.6c0,0.6-0.5,1.1-1.1,1.1c-0.6,0-1.1-0.5-1.1-1.1c0-0.6,0.5-1.1,1.1-1.1
						C414.9,415.5,415.4,416,415.4,416.6z"/>
					<circle class="st7" cx="387.9" cy="417.1" r="1.1"/>
					<rect x="419.6" y="380.7" class="st7" width="3" height="40.2"/>
				</g>
			</g>
		</g>
	</g>
	<g>
		<path class="st8" d="M375,112.6c3.6-8.5,1.4-17.3-4.5-24.3c-6-7-16-10.3-24.9-8.1c-1.6-8.9-7.8-16.8-16-20.5
			c-8.2-3.7-18.3-3-26,1.7c-7.7,4.7-12.8,13.4-13.2,22.4c-6.1,1-11.7,4.9-14.7,10.3c-3,5.4-3.5,12.2-1.2,18L375,112.6z"/>
	</g>
	<g>
		<path class="st7" d="M583.4,328.4c0,0,0.1,0,0.4,0c0.3,0,0.6,0,1,0c1,0,2.3,0,4,0c1.7,0,3.9-0.1,6.3-0.7c2.4-0.7,5-1.9,7.3-3.9
			c2.3-2,4.5-4.8,5.7-8.2c0.3-0.8,0.5-1.8,0.8-2.7c0.1-0.9,0.3-1.9,0.3-2.8c0.1-1.9,0-4,0-6c0-8.3,0-17.4,0-26.9c0-2.4,0-4.7,0-7.1
			c0-1.2,0-2.3-0.1-3.4c-0.1-1.1-0.4-2.2-0.8-3.2c-1.5-4.2-4.7-7.5-8.5-9c-3.8-1.7-7.8-1.1-11.5-1.3c-3.7,0-7.1-0.1-10.2-0.1
			c-6.2-0.1-11.3-0.1-14.8-0.2c-1.7,0-3.1-0.1-4-0.1c-0.4,0-0.8,0-1,0c-0.2,0-0.4,0-0.4,0c0,0,0.1,0,0.4,0c0.3,0,0.6,0,1,0
			c1,0,2.3,0,4,0c3.5,0,8.6,0,14.8,0c3.1,0,6.6,0,10.2,0c1.8,0,3.7,0,5.7,0c2,0,4,0.4,6,1.2c3.9,1.6,7.2,5,8.8,9.3
			c0.4,1.1,0.6,2.2,0.8,3.4c0.1,1.2,0.1,2.3,0.1,3.5c0,2.3,0,4.7,0,7.1c0,9.5,0,18.6,0,26.9c0,2.1,0.1,4.1-0.1,6c0,1-0.2,2-0.4,2.9
			c-0.2,0.9-0.4,1.9-0.8,2.7c-1.2,3.5-3.5,6.3-5.9,8.3c-2.4,2-5.1,3.2-7.5,3.9c-2.4,0.7-4.6,0.7-6.3,0.7c-1.7,0-3.1,0-4,0
			c-0.4,0-0.8,0-1,0C583.5,328.4,583.4,328.4,583.4,328.4z"/>
	</g>
	<polygon class="st10" points="316.7,112.3 316.7,98.1 309.6,98.1 320.3,83 331,98 324,98 324,112.3 	"/>
</g>
<g id="Character">
	<g>
		<g>
			<polygon class="st1" points="559.8,296 567.4,305.9 581.8,299.5 572.6,284.8 			"/>
			<polygon class="st11" points="564.3,297.2 564.5,302.1 569.3,304.3 569.1,299.3 			"/>
			<polygon class="st11" points="568.8,294.5 569.1,299.3 573.8,301.6 573.6,296.6 			"/>
			<polygon class="st11" points="573.4,291.7 573.6,296.6 578.4,298.8 578.2,293.8 			"/>
			<g>
				<g>
					<g>
						<g>
							<g>
								<g>
									<g>
										<path class="st8" d="M582.3,299.3l-1.6-2.5l-14.1,8.9l3.3,5.6l0.9-0.5c4.1-2.1,20.7-10.9,22.9-13.2
											C596.1,295,582.3,299.3,582.3,299.3z"/>
									</g>
								</g>
							</g>
							<g class="st13">
								<g>
									<g>
										<path class="st10" d="M575.1,308.1c-0.9-1.1-2.2-2-3.6-2.1c-1.4-0.2-2.5-0.1-4.1,1.1l2.4,4L575.1,308.1z"/>
									</g>
								</g>
							</g>
						</g>
						<g>
							<g>
								<g>
									<path class="st14" d="M589.2,297.4c0,0,5-1.3,4.9-0.2c-0.1,1-16.5,10.5-24.2,14.1l-0.2-0.3l19.2-11
										C589,300,588.4,297.9,589.2,297.4z"/>
								</g>
							</g>
						</g>
						<g>
							<g>
								<g>
									<g>
										<path class="st7" d="M569.5,311.1c0,0,0.1,0,0.3-0.1c0.2-0.1,0.5-0.2,0.7-0.4c0.7-0.4,1.6-0.9,2.7-1.4
											c2.3-1.2,5.3-2.9,8.7-4.9c3.4-2,6.4-3.8,8.6-5.2c1-0.6,1.9-1.2,2.6-1.6c0.3-0.2,0.5-0.3,0.7-0.5c0.2-0.1,0.2-0.2,0.2-0.2
											s-0.1,0-0.3,0.1c-0.2,0.1-0.4,0.3-0.7,0.4c-0.7,0.4-1.6,1-2.6,1.6c-2.2,1.3-5.2,3.1-8.6,5.1c-3.4,2-6.4,3.7-8.7,4.9
											c-1,0.6-1.9,1.1-2.6,1.5c-0.3,0.1-0.5,0.3-0.7,0.4C569.6,311,569.5,311.1,569.5,311.1z"/>
									</g>
								</g>
							</g>
						</g>
						<g>
							<g>
								<g>
									<g>
										<path class="st7" d="M589.1,300.2c0.1,0-0.3-0.7-0.2-1.5c0-0.9,0.4-1.5,0.3-1.5c0,0-0.5,0.6-0.5,1.5
											C588.7,299.6,589.1,300.3,589.1,300.2z"/>
									</g>
								</g>
							</g>
						</g>
						<g>
							<g>
								<g>
									<g>
										<path class="st7" d="M583.6,300.5c0.1,0,0.1-0.4,0.1-0.8c0-0.5,0-0.8-0.1-0.8c-0.1,0-0.1,0.4-0.1,0.8
											C583.6,300.2,583.6,300.5,583.6,300.5z"/>
									</g>
								</g>
							</g>
						</g>
						<g>
							<g>
								<g>
									<g>
										<path class="st7" d="M582.1,300.6c0.1,0,0.2-0.3,0.3-0.6c0.1-0.4,0.2-0.7,0.1-0.7c-0.1,0-0.2,0.3-0.3,0.6
											C582.1,300.3,582.1,300.6,582.1,300.6z"/>
									</g>
								</g>
							</g>
						</g>
						<g>
							<g>
								<g>
									<g>
										<path class="st7" d="M580.6,299.7c0,0,0.4-0.1,0.8-0.3c0.4-0.2,0.7-0.5,0.7-0.5c0,0-0.4,0.1-0.8,0.3
											C580.9,299.4,580.6,299.6,580.6,299.7z"/>
									</g>
								</g>
							</g>
						</g>
						<g>
							<g>
								<g>
									<g>
										<path class="st7" d="M579.8,298.9c0,0.1,0.5,0,1-0.2c0.5-0.2,0.8-0.6,0.8-0.6c0,0-0.4,0.2-0.9,0.4
											C580.2,298.7,579.8,298.8,579.8,298.9z"/>
									</g>
								</g>
							</g>
						</g>
						<g>
							<g>
								<g>
									<g>
										<path class="st7" d="M583.4,299c0,0,0.4-0.1,0.9-0.5c0.3-0.2,0.6-0.5,0.9-0.8c0.1-0.2,0.3-0.3,0.4-0.6
											c0.1-0.1,0.1-0.3,0.1-0.4c0-0.2-0.2-0.3-0.4-0.3c-1.1,0.1-1.7,1.1-1.8,1.7c0,0.3,0,0.6,0.1,0.8c0.1,0.2,0.1,0.3,0.1,0.3
											c0,0-0.1-0.4,0-1c0.1-0.3,0.2-0.7,0.5-1c0.3-0.3,0.7-0.6,1.1-0.6c0.2,0,0.3,0.2,0.1,0.4c-0.1,0.2-0.3,0.4-0.4,0.5
											c-0.3,0.3-0.6,0.6-0.8,0.8C583.7,298.8,583.4,299,583.4,299z"/>
									</g>
								</g>
							</g>
						</g>
						<g>
							<g>
								<g>
									<g>
										<path class="st7" d="M583.7,298.9c0,0,0-0.3-0.3-0.7c-0.1-0.2-0.4-0.4-0.6-0.5c-0.3-0.1-0.7-0.3-1,0
											c-0.2,0.2-0.2,0.5,0,0.6c0.1,0.2,0.3,0.2,0.4,0.3c0.3,0.2,0.5,0.2,0.8,0.3C583.3,299,583.6,299,583.7,298.9
											c-0.1,0-0.4,0-0.8-0.2c-0.2-0.1-0.5-0.2-0.7-0.3c-0.2-0.1-0.5-0.4-0.3-0.6c0.2-0.2,0.6-0.1,0.8,0c0.3,0.1,0.5,0.3,0.6,0.4
											C583.6,298.6,583.6,298.9,583.7,298.9z"/>
									</g>
								</g>
							</g>
						</g>
						<g>
							<g>
								<g>
									<g>
										<path class="st7" d="M567.5,307c0,0,0.4-0.3,1.1-0.6c0.7-0.3,1.7-0.6,2.9-0.4c1.1,0.2,2.1,0.7,2.6,1.2
											c0.6,0.5,0.8,0.9,0.9,0.9c0,0,0-0.1-0.2-0.3c-0.1-0.2-0.3-0.4-0.6-0.7c-0.6-0.5-1.5-1.1-2.7-1.3c-1.2-0.2-2.3,0.1-3,0.5
											c-0.3,0.2-0.6,0.3-0.8,0.5C567.6,306.9,567.5,307,567.5,307z"/>
									</g>
								</g>
							</g>
						</g>
						<g>
							<g>
								<g>
									<g>
										<path class="st7" d="M576.1,305.7c0,0,1-0.3,2.2-1c1.2-0.7,2-1.3,2-1.4c0,0-0.9,0.6-2.1,1.2
											C577,305.2,576,305.6,576.1,305.7z"/>
									</g>
								</g>
							</g>
						</g>
						<g>
							<g>
								<g>
									<g>
										<path class="st7" d="M573.2,307.3c0,0.1,0.2,0.2,0.4,0.3c0.2,0.2,0.4,0.3,0.4,0.3c0,0-0.1-0.3-0.3-0.5
											C573.5,307.3,573.3,307.3,573.2,307.3z"/>
									</g>
								</g>
							</g>
						</g>
						<g>
							<g>
								<g>
									<g>
										<path class="st7" d="M571.4,306.6c0,0.1,0.2,0.1,0.4,0.2c0.2,0.1,0.4,0.1,0.5,0c0-0.1-0.2-0.1-0.4-0.2
											C571.6,306.6,571.4,306.6,571.4,306.6z"/>
									</g>
								</g>
							</g>
						</g>
						<g>
							<g>
								<g>
									<g>
										<path class="st7" d="M569.5,306.9c0,0,0.2-0.1,0.5-0.1c0.3-0.1,0.5,0,0.5-0.1c0,0-0.2-0.2-0.5-0.1
											C569.7,306.6,569.5,306.9,569.5,306.9z"/>
									</g>
								</g>
							</g>
						</g>
						<g>
							<g>
								<g>
									<g>
										<path class="st7" d="M568.3,307.2c0,0.1,0.1,0.1,0.3,0.1c0.1,0,0.3-0.1,0.2-0.1c0-0.1-0.1-0.1-0.3-0.1
											C568.4,307.1,568.3,307.2,568.3,307.2z"/>
									</g>
								</g>
							</g>
						</g>
					</g>
				</g>
			</g>
		</g>
		<g>
			<path class="st7" d="M464.5,288.7l56.2-53c3.5-3.6,8.2-5.6,13.2-5.6l0,0c6.6,0,12.8,3.6,16,9.3l28.8,49.4l-18.3,10.5l-27.7-35.2
				L505,289.3L464.5,288.7z"/>
			<path class="st7" d="M447.9,291.4c-0.2,0.7-1.9,18.8,22.4,18.8h65c8.2,0,14.9-6.7,14.9-14.9l0,0c0-8.2-6.7-14.9-14.9-14.9h-60.5
				c-2.2,0-4.3,0.5-6.3,1.4L447.9,291.4z"/>
			<g>
				<path class="st11" d="M541,280.4c0,0.1-13.4,0.3-30,0.3c-16.6,0-30-0.1-30-0.3c0-0.1,13.4-0.3,30-0.3
					C527.6,280.2,541,280.3,541,280.4z"/>
			</g>
			<g>
				<path class="st11" d="M531,251.8c0.2,0,0.2,2.8,0.7,6.2c0.5,3.4,1.3,6.1,1.1,6.2c-0.1,0-1.2-2.6-1.7-6.1
					C530.6,254.6,530.9,251.8,531,251.8z"/>
			</g>
			<g>
				<path class="st11" d="M533.7,251.4c0.1,0,0.3,2.9,0,6.4c-0.3,3.5-0.9,6.3-1.1,6.3c-0.1,0,0.2-2.9,0.5-6.4
					C533.5,254.2,533.6,251.4,533.7,251.4z"/>
			</g>
		</g>
		<g>
			<g>
				<g>
					<g>
						<path class="st7" d="M483.4,171.6c0.1,0.7-0.3,1.5-1,1.9c-0.6,0.4-1.5,0.3-2.1-0.2c-1.1-0.9-0.9-2.6-0.4-3.9
							c0.5-1.3,1.3-2.7,0.9-4c-0.2-1-1.1-1.8-1.7-2.7c-1-1.6-1.3-3.6-0.7-5.4c0.7-1.8,2.3-3.1,4.2-3.3c1.9-0.2,4,0.8,5.6-0.2
							c1.2-0.8,1.5-2.3,2.5-3.3c1.5-1.5,4-1.3,6.1-0.6c2,0.7,4,1.8,6.2,1.7c1.8-0.1,3.4-1,5.2-1.4c3.8-0.9,8.1,0.8,10.1,4.1
							c2.1,3.3,1.8,7.9-0.6,10.9c-0.9,1.1-2.8,4.4-6.8,3.5"/>
					</g>
					<g>
						<g>
							<g>
								<g>
									<path class="st15" d="M485.6,156.8l-0.5,2.8l-8.2,42.1c-0.9,4.9,2.5,9.6,7.7,10.6l0,0c5.3,1,10.4-2.2,11.5-7.1
										c1.1-5.2,2.3-10.6,2.3-10.6s6.9,0.3,10.1-8.1c1.6-4.2,2.8-11.3,3.7-17.2c0.8-5.3-3-10.1-8.3-10.7L485.6,156.8z"/>
								</g>
								<g>
									<g>
										<path class="st7" d="M508.3,173.5c-0.1,0.6-0.7,1-1.3,0.9c-0.6-0.1-1-0.7-0.9-1.2c0.1-0.6,0.7-1,1.3-0.9
											C507.9,172.3,508.4,172.9,508.3,173.5z"/>
									</g>
									<g>
										<g>
											<path class="st7" d="M509.9,172.7c-0.2,0.1-0.9-0.7-2.1-0.9c-1.2-0.3-2.2,0.2-2.3,0c-0.1-0.1,0.1-0.3,0.6-0.5
												c0.4-0.2,1.1-0.3,1.9-0.2c0.7,0.2,1.3,0.6,1.6,0.9C509.9,172.3,510,172.6,509.9,172.7z"/>
										</g>
									</g>
								</g>
								<g>
									<g>
										<path class="st7" d="M496.8,171.1c-0.1,0.6-0.7,1-1.3,0.9c-0.6-0.1-1-0.7-0.9-1.2c0.1-0.6,0.7-1,1.3-0.9
											C496.5,170,496.9,170.6,496.8,171.1z"/>
									</g>
									<g>
										<g>
											<path class="st7" d="M498.1,170.4c-0.2,0.1-0.9-0.7-2.1-0.9c-1.2-0.3-2.2,0.2-2.3,0c-0.1-0.1,0.1-0.3,0.6-0.5
												c0.4-0.2,1.1-0.3,1.9-0.2c0.7,0.2,1.3,0.6,1.6,0.9C498.1,170.1,498.2,170.4,498.1,170.4z"/>
										</g>
									</g>
								</g>
								<g>
									<g>
										<path class="st7" d="M500.6,180.2c0-0.1,0.8,0,2,0.1c0.3,0,0.6,0,0.7-0.2c0.1-0.2,0.1-0.6,0-1c-0.1-0.8-0.3-1.6-0.4-2.5
											c-0.6-3.6-0.9-6.5-0.8-6.5c0.1,0,0.7,2.9,1.3,6.4c0.1,0.9,0.3,1.7,0.4,2.5c0,0.4,0.2,0.8-0.1,1.2
											c-0.1,0.2-0.4,0.3-0.6,0.3c-0.2,0-0.4,0-0.5,0C501.3,180.5,500.6,180.3,500.6,180.2z"/>
									</g>
								</g>
								<g>
									<path class="st16" d="M498.5,194.6c0,0-5.9-0.8-11-5.5c0,0,1.6,6.6,10.5,7.6L498.5,194.6z"/>
								</g>
								<g>
									<g>
										<path class="st7" d="M496.9,180.3c0.2,0-0.1,1.3,0.9,2.5c0.9,1.2,2.3,1.3,2.3,1.5c0,0.1-0.4,0.2-1,0.1
											c-0.6-0.1-1.4-0.5-1.9-1.2c-0.6-0.7-0.7-1.5-0.6-2.1C496.6,180.6,496.8,180.3,496.9,180.3z"/>
									</g>
								</g>
							</g>
						</g>
					</g>
					<g>
						<path class="st7" d="M499.4,165.8c-0.2,0.3-1.4-0.1-2.8-0.2c-1.4-0.2-2.7,0-2.8-0.3c-0.1-0.2,0.2-0.4,0.7-0.6
							c0.5-0.2,1.3-0.4,2.2-0.3c0.9,0.1,1.6,0.4,2.1,0.7C499.2,165.3,499.4,165.7,499.4,165.8z"/>
					</g>
					<g>
						<path class="st7" d="M510.2,169.1c-0.3,0.2-1-0.2-2-0.4c-1-0.3-1.9-0.2-2-0.5c-0.1-0.2,0.1-0.4,0.6-0.6
							c0.4-0.2,1.1-0.3,1.7-0.1c0.7,0.2,1.2,0.5,1.5,0.9C510.3,168.7,510.3,169,510.2,169.1z"/>
					</g>
					<g>
						<path class="st7" d="M513.3,165.5c0,0-4.9,1.4-10.3-2.6c-3.5-2.6-7.9-4.3-9-3.7c-1.1,0.6-2,4.6-6.1,5.1c0,0-1.1,7.7-4.1,6.9
							c-3-0.8,0.6-15.9,0.6-15.9l8.4,1.3l8.4-0.1l7.5,2.4l5.6,2.7L513.3,165.5z"/>
					</g>
					<g>
						<g>
							<path class="st7" d="M484.7,153c0-0.1,0.8-0.2,1.5,0.2c0.8,0.5,1,1.2,0.9,1.2c-0.1,0.1-0.5-0.5-1.1-0.9
								C485.3,153.2,484.7,153.1,484.7,153z"/>
						</g>
					</g>
					<g>
						<g>
							<path class="st7" d="M487.7,151c0.1,0-0.1,0.9-0.1,2c-0.1,1.1,0.2,1.9,0.1,2c-0.1,0.1-0.6-0.8-0.6-2
								C487.2,151.8,487.6,150.9,487.7,151z"/>
						</g>
					</g>
				</g>
				<g>
					<g>
						<g>
							<path class="st15" d="M484.7,168c-0.1-0.1-4.7-2.8-5.8,2.3c-1.1,5.1,4.2,5.1,4.2,5C483.2,175.1,484.7,168,484.7,168z"/>
						</g>
					</g>
					<g>
						<g>
							<g>
								<path class="st16" d="M482,173c0,0-0.1,0-0.3,0.1c-0.2,0-0.4,0-0.7-0.1c-0.5-0.3-0.8-1.3-0.6-2.2c0.1-0.5,0.3-0.9,0.5-1.2
									c0.2-0.3,0.5-0.5,0.8-0.5c0.3,0,0.4,0.2,0.5,0.4c0,0.2,0,0.3,0,0.3c0,0,0.1-0.1,0.1-0.3c0-0.1,0-0.2-0.1-0.4
									c-0.1-0.1-0.3-0.2-0.5-0.2c-0.4-0.1-0.8,0.2-1.1,0.6c-0.3,0.4-0.5,0.8-0.6,1.3c-0.2,1,0.1,2.1,0.8,2.5
									c0.3,0.2,0.7,0.1,0.8,0C482,173.2,482,173.1,482,173z"/>
							</g>
						</g>
					</g>
				</g>
			</g>
			<g>
				<g>
					<path class="st11" d="M501.4,171c-0.1,0,0-0.5-0.3-1.3c-0.2-0.8-0.8-2-2-2.8c-1.2-0.9-3.1-1.4-4.9-0.7
						c-1.8,0.6-3.4,2.6-3.4,4.8c0,2.3,1.5,4.2,3.4,4.8c1.8,0.7,3.7,0.2,4.9-0.7c1.2-0.9,1.7-2,2-2.8
						C501.4,171.5,501.4,171,501.4,171c0,0,0,0.1,0,0.3c0,0.2,0,0.6-0.1,1c-0.2,0.8-0.7,2.1-1.9,3.1c-1.2,1-3.3,1.6-5.3,0.9
						c-1-0.3-1.9-1-2.6-1.9c-0.7-0.9-1.1-2.1-1.1-3.3c0-1.2,0.4-2.4,1.1-3.3c0.7-0.9,1.6-1.6,2.6-1.9c2-0.7,4.1-0.1,5.3,0.9
						c1.3,1,1.8,2.2,1.9,3.1c0.1,0.4,0.1,0.8,0.1,1C501.5,170.9,501.4,171,501.4,171z"/>
				</g>
				<g>
					<path class="st11" d="M514.3,173.3c-0.1,0,0-0.5-0.3-1.3c-0.2-0.8-0.8-2-2-2.8c-1.2-0.9-3.1-1.4-4.9-0.7
						c-1.8,0.6-3.4,2.6-3.4,4.8c0,2.3,1.5,4.2,3.4,4.8c1.8,0.7,3.7,0.2,4.9-0.7c1.2-0.9,1.7-2,2-2.8
						C514.3,173.8,514.3,173.3,514.3,173.3c0,0,0,0.1,0,0.3c0,0.2,0,0.6-0.1,1c-0.2,0.8-0.7,2.1-1.9,3.1c-1.2,1-3.3,1.6-5.3,0.9
						c-1-0.3-1.9-1-2.6-1.9c-0.7-0.9-1.1-2.1-1.1-3.3c0-1.2,0.4-2.4,1.1-3.3c0.7-0.9,1.6-1.6,2.6-1.9c2-0.7,4.1-0.1,5.3,0.9
						c1.3,1,1.8,2.2,1.9,3.1c0.1,0.4,0.1,0.8,0.1,1C514.4,173.2,514.3,173.3,514.3,173.3z"/>
				</g>
				<g>
					<path class="st11" d="M491.3,168c0,0.1-1.4,0.3-3.2,0.3c-1.8,0-3.2-0.1-3.2-0.2c0-0.1,1.4-0.3,3.2-0.3
						C489.8,167.7,491.3,167.8,491.3,168z"/>
				</g>
			</g>
			<g>
				<path class="st11" d="M503.6,172.3c-0.1,0.1-0.4-0.4-1-0.6c-0.6-0.2-1.1,0.1-1.2-0.1c0-0.1,0-0.2,0.3-0.3
					c0.2-0.1,0.6-0.2,1.1-0.1c0.4,0.1,0.7,0.4,0.8,0.7C503.6,172.1,503.6,172.3,503.6,172.3z"/>
			</g>
		</g>
		<polygon class="st1" points="491.7,280 491.7,276.7 539.2,277.6 566.5,233.9 569,235.8 541,280.4 		"/>
		<path class="st15" d="M524.5,265.4l2.4,3.5v7.3c0,0-1.2,0.3-1.7-0.7s-1.2-4.4-1.2-4.4l-1.2,3c-0.5,1.2-1.8,1.9-3,1.6l-8.8-2.2
			l3.6-10.3L524.5,265.4z"/>
		<g>
			<path class="st8" d="M475.9,194.9c0,0-13.1,3.3-17.1,9.2c-3.9,5.9-8.4,15.7-13.3,34.8c-4.2,16.6-7.5,43.2-2.9,49.4
				c3.1,4.3,5.2,5.4,5.2,5.4l10.1-3.6c9.8-3.5,18.8-8.9,26.4-15.9l15.6-14.2l-8.2-6.5c0,0,6.3-33.9,4.6-45.7
				C494.8,197.4,475.9,194.9,475.9,194.9z"/>
			<path class="st8" d="M479.3,205.1c-5.1,1.3-9.9,3.3-16.8,3.9c-1.6,0.1-3.3-0.2-4.7-1c-4.4-2.7-2.9-7.7-0.5-11
				c2.5-3.6,6.5-6.6,10.9-6.2c-0.8-2.2,0.5-4.7,2.5-5.9c2-1.1,4.6-1,6.7-0.2c2.2,0.8,4,2.2,5.9,3.6c2.5,1.9,5,3.7,7.4,5.6
				c1.7,1.3,3.4,2.6,4.3,4.4c1,1.9,4.5,9.1,2.9,10.5c0,0-2,0.6-3,0c-0.1,0-0.1-0.1-0.2-0.1C490.4,205.4,484.8,203.8,479.3,205.1z"/>
			<path class="st8" d="M471.8,211.3l-8.7,40.6c-1.5,7.1,2.4,14.2,9.2,16.7l37.8,7.2l4.7-14.1l0,0l-30.6-9.6l9-39.2L471.8,211.3z"/>
			<g>
				<path class="st7" d="M462.8,259.7c0,0,0,0.1,0.1,0.2c0,0.2,0.1,0.4,0.1,0.7c0,0.2,0.1,0.3,0.1,0.5c0.1,0.2,0.1,0.4,0.2,0.6
					c0.1,0.2,0.2,0.5,0.3,0.7c0.1,0.2,0.3,0.5,0.4,0.8c0.6,1,1.6,2.2,3.1,3.2c1.5,1,3.3,1.9,5.5,2.4c9,1.7,21.9,4,37.4,6.8l-0.3,0.1
					c1.6-4.5,3.2-9.2,4.9-14.1l0.2,0.3c-9.5-2.9-19.8-6.2-30.7-9.5l-0.2-0.1l0.1-0.2c0.5-2.1,1.1-4.3,1.7-6.6
					c1.8-7.1,3.5-14.1,4.9-20.8c0.7-3.4,1.4-6.7,1.9-10c0.1-0.8,0.1-1.6,0.2-2.4c0-0.8-0.1-1.6-0.3-2.4c-0.4-1.5-1.1-3-2.1-4.2
					c-2-2.4-5.1-3.7-8-3.6c-3,0.1-5.6,1.7-7.4,3.8c-1.9,2.1-3,4.6-3.8,7.1c-0.8,2.5-1.3,5-1.7,7.3c-1.9,9.4-3.4,17-4.4,22.3
					c-0.5,2.6-0.9,4.7-1.2,6.1c-0.1,0.7-0.3,1.2-0.3,1.6c-0.1,0.4-0.1,0.5-0.1,0.5s0-0.2,0.1-0.5c0.1-0.4,0.2-0.9,0.3-1.6
					c0.3-1.4,0.6-3.5,1.1-6.1c1-5.3,2.5-12.9,4.2-22.4c0.5-2.4,0.9-4.8,1.7-7.4c0.8-2.5,2-5.1,3.9-7.2c1.9-2.2,4.6-3.8,7.7-3.9
					c3.1-0.1,6.3,1.2,8.4,3.7c1.1,1.2,1.8,2.7,2.2,4.4c0.2,0.8,0.3,1.7,0.3,2.5c-0.1,0.8-0.1,1.7-0.2,2.5c-0.5,3.3-1.1,6.6-1.8,10
					c-1.4,6.8-3.1,13.7-4.9,20.9c-0.6,2.3-1.1,4.5-1.7,6.6l-0.2-0.3c10.8,3.4,21.2,6.6,30.6,9.6l0.2,0.1l-0.1,0.2
					c-1.7,4.9-3.4,9.6-4.9,14.1l-0.1,0.2l-0.2,0c-15.5-2.9-28.3-5.3-37.3-7c-2.2-0.6-4.1-1.5-5.6-2.5c-1.5-1-2.5-2.2-3.1-3.3
					c-0.1-0.3-0.3-0.5-0.4-0.8c-0.1-0.3-0.2-0.5-0.2-0.7c-0.1-0.2-0.1-0.4-0.2-0.6c0-0.2-0.1-0.4-0.1-0.5c0-0.3-0.1-0.5-0.1-0.7
					C462.8,259.7,462.8,259.7,462.8,259.7z"/>
			</g>
			<g>
				<path class="st7" d="M478.9,257.6c-0.1,0-0.1-0.5,0.1-1.2c0.2-0.7,0.7-1.7,1.5-2.5c0.8-0.8,1.8-1.3,2.6-1.4
					c0.7-0.2,1.2-0.1,1.2,0c0,0.1-0.4,0.1-1.1,0.4c-0.7,0.2-1.5,0.7-2.3,1.4c-0.8,0.7-1.3,1.6-1.5,2.3
					C479.1,257.1,479,257.6,478.9,257.6z"/>
			</g>
			<g class="st17">
				<path d="M470.9,210.8c-4.5,14.1-7.3,28.7-9.1,43.4c-0.4,3.4-0.8,6.8-0.2,10.2c0.6,3.4,2.2,6.7,5.1,8.5c2.7,1.7,6.1,2,9.2,1.4
					c3.1-0.6,8.2-1.3,11.1-2.6l-16.9-3.5c0,0-10.9-0.7-6.2-21.5C468.6,225.8,470.9,210.8,470.9,210.8z"/>
			</g>
			<g class="st17">
				<path d="M456.5,207.3c-0.1,1.7,0.1,3.7,1.6,4.4c1.6,0.7,3.2-0.6,4.5-1.7c5.1-4.7,10.9-8.7,17.2-11.8c-8.5,0.5-16.8,3.9-23.3,9.4
					"/>
			</g>
			<g>
				<path class="st7" d="M489.6,202.2c-0.1,0.1-1.6-1.3-4.7-2.5c-1.5-0.6-3.4-1.1-5.5-1.3c-2.1-0.2-4.5,0-6.9,0.7
					c-2.4,0.7-4.5,1.8-6.4,2.8c-1.9,1-3.6,2-5.1,2.8c-1.5,0.8-2.7,1.3-3.5,1.7c-0.9,0.3-1.3,0.5-1.4,0.5c0,0,0.4-0.3,1.3-0.6
					c0.8-0.4,2-1,3.4-1.8c1.5-0.8,3.1-1.8,5-2.9c1.9-1,4.1-2.2,6.5-2.9c2.4-0.8,4.9-0.9,7.1-0.7c2.2,0.2,4.1,0.8,5.6,1.4
					c1.5,0.6,2.7,1.4,3.4,1.9c0.4,0.3,0.6,0.5,0.8,0.7C489.6,202.1,489.6,202.2,489.6,202.2z"/>
			</g>
			<g>
				<path class="st7" d="M494.9,204.3c-0.1,0.1-1.3-1.1-3.4-2.8c-2.1-1.7-5.2-3.9-8.9-5.7c-3.7-1.8-7.3-3-9.9-3.7
					c-2.6-0.7-4.3-0.9-4.3-1c0,0,0.4,0,1.2,0.1c0.8,0.1,1.9,0.3,3.2,0.5c2.7,0.6,6.3,1.7,10.1,3.6c3.7,1.9,6.8,4.1,8.9,5.9
					c1,0.9,1.8,1.7,2.4,2.2C494.7,204,494.9,204.3,494.9,204.3z"/>
			</g>
			<g>
				<path class="st1" d="M497.4,237.2c0,0-0.1-0.3-0.2-0.8c-0.1-0.6-0.2-1.4-0.3-2.4c-0.1-1-0.2-2.3,0.2-3.7
					c0.2-0.7,0.7-1.5,1.6-1.7c0.4-0.1,1,0.1,1.3,0.5c0.3,0.4,0.4,1-0.1,1.5l-0.1,0l-0.1,0c-0.6,0.1-1.1-0.2-1.4-0.6
					c-0.4-0.4-0.5-0.9-0.6-1.4c-0.1-1-0.1-2-0.2-3c-0.2-4.8-0.4-9.1-0.6-12.3c0-1.5-0.1-2.7-0.1-3.7c0-0.9,0-1.4,0-1.4
					c0,0,0.1,0.5,0.2,1.4c0.1,1,0.2,2.2,0.3,3.7c0.2,3.1,0.5,7.5,0.7,12.3c0.1,1,0.1,2,0.2,2.9c0.1,0.4,0.2,0.9,0.5,1.2
					c0.3,0.3,0.6,0.5,1,0.4l-0.1,0.1c0.2-0.2,0.2-0.6,0-0.8c-0.2-0.3-0.5-0.4-0.8-0.3c-0.7,0.1-1.1,0.7-1.3,1.3
					c-0.3,1.3-0.3,2.6-0.3,3.6C497.3,236,497.5,237.2,497.4,237.2z"/>
			</g>
			<g>
				<path class="st7" d="M481,270.3c0,0-0.4,0.4-1.2,1.2c-0.8,0.7-2,1.7-3.5,2.9c-3,2.4-7.4,5.5-12.4,8.5c-5.1,3-9.9,5.2-13.5,6.7
					c-1.8,0.7-3.3,1.3-4.3,1.6c-1,0.3-1.6,0.5-1.6,0.5c0,0,0.5-0.3,1.5-0.7c1-0.4,2.4-1,4.2-1.8c3.5-1.5,8.3-3.8,13.4-6.8
					c5.1-3,9.4-6,12.5-8.4c1.5-1.2,2.8-2.1,3.6-2.8C480.5,270.6,481,270.2,481,270.3z"/>
			</g>
			<g>
				<path class="st7" d="M450.6,293c-0.1,0.1-0.7-0.5-1.3-1.3c-0.6-0.8-1-1.6-0.9-1.7c0.1-0.1,0.7,0.5,1.3,1.3
					C450.3,292.2,450.7,292.9,450.6,293z"/>
			</g>
			<g>
				<path class="st7" d="M456.6,290.4c-0.1,0.1-0.9-0.4-1.7-1.2c-0.8-0.9-1.2-1.7-1-1.8c0.1-0.1,0.7,0.6,1.4,1.4
					C456,289.7,456.7,290.3,456.6,290.4z"/>
			</g>
			<g>
				<path class="st7" d="M464.2,287.9c-0.1,0.1-0.9-0.7-1.9-1.7c-0.9-1-1.6-2-1.5-2.1c0.1-0.1,0.9,0.7,1.9,1.7
					C463.6,286.9,464.3,287.8,464.2,287.9z"/>
			</g>
			<g>
				<path class="st7" d="M472.3,283.6c-0.1,0.1-1-0.8-2-2c-1-1.2-1.7-2.2-1.6-2.3c0.1-0.1,1,0.8,2,2
					C471.7,282.5,472.4,283.5,472.3,283.6z"/>
			</g>
			<g>
				<path class="st7" d="M479.9,278c-0.1,0.1-1.1-0.6-2.1-1.6c-1.1-1-1.9-1.9-1.8-2c0.1-0.1,1.1,0.6,2.1,1.6
					C479.2,277,480,277.9,479.9,278z"/>
			</g>
		</g>
	</g>
</g>
<g id="Wifi" class="st4">
	<g class="st5">
		<g>
			<g>
				
					<ellipse transform="matrix(0.2301 -0.9732 0.9732 0.2301 232.0128 686.8842)" class="st11" cx="550.1" cy="196.8" rx="2.3" ry="2.3"/>
				<g>
					<path class="st11" d="M545.5,193.8c2.5-2.7,6.7-2.8,9.3-0.1c1.2,1.2,3-0.6,1.9-1.8c-3.6-3.6-9.5-3.6-13,0.1
						C542.5,193.2,544.3,195.1,545.5,193.8L545.5,193.8z"/>
				</g>
				<g>
					<path class="st11" d="M537.6,183c3.5-3.1,7.7-5,12.5-5c4.7,0,9.3,1.6,12.7,4.9c1.2,1.1,3.1-0.7,1.9-1.8
						c-3.9-3.7-9.2-5.7-14.6-5.6c-5.4,0-10.3,2.2-14.3,5.7C534.5,182.3,536.3,184.1,537.6,183L537.6,183z"/>
				</g>
				<g>
					<path class="st11" d="M540.7,189c2.4-2.6,5.7-4.2,9.2-4.2c3.6-0.1,7.1,1.4,9.6,4c1.2,1.2,3-0.6,1.9-1.8c-3-3-7.2-4.8-11.4-4.7
						c-4.2,0.1-8.2,1.9-11,5C537.7,188.4,539.5,190.3,540.7,189L540.7,189z"/>
				</g>
			</g>
		</g>
	</g>
</g>
</svg>
