<?xml version="1.0" encoding="utf-8"?>
<!-- Generator: Adobe Illustrator 22.1.0, SVG Export Plug-In . SVG Version: 6.00 Build 0)  -->
<svg version="1.1" xmlns="http://www.w3.org/2000/svg" xmlns:xlink="http://www.w3.org/1999/xlink" x="0px" y="0px"
	 viewBox="0 0 1100 800" style="enable-background:new 0 0 1100 800;" xml:space="preserve">
<style type="text/css">
	.st0{display:none;}
	.st1{display:inline;fill:#7DB5DB;}
	.st2{opacity:4.000000e-02;fill:#272525;}
	.st3{fill:#3B455A;}
	.st4{fill:#2980B9;}
	.st5{fill:#EAC5B0;}
	.st6{fill:#D7E8F4;}
	.st7{fill:#587BC9;}
	.st8{fill:#8E44AD;}
	.st9{opacity:0.1;}
	.st10{fill:#F7F7F7;}
</style>
<g id="background" class="st0">
	<rect class="st1" width="1100" height="800"/>
</g>
<g id="object">
	<g>
		<path class="st2" d="M278.3,596.4c-20.4,0.4-40.8,0.7-61.3,0.8c-36.4,0.1-84.1-6.6-111.2,19c-13.7,12.9-9.2,38.6,12.5,43.1
			c6.1,1.3,12.7,1.1,18.5,3.3c5.8,2.2,10.3,8.2,7.1,12.7c-1.6,2.3-4.8,3.6-7.8,4.6c-19.1,6.2-40.2,7-59.2,13.4
			c-45.1,15.2-37.3,45.8,3.7,55.7c36.8,8.9,77.8,7.7,115.8,8.3c222.3,3.5,445.3,7.7,666.4-4.2c47.7-2.6,95.1-5.8,142.6-8.8
			c21.7-1.4,48.9-5,49-13c0.1-5.6-14.3-9.8-28.4-12c-24.8-3.8-57.1-7.2-52.4-19.7c1.7-4.6,9.8-8.8,21-10.9c8.6-1.7,18.6-2.1,28-3.1
			c9.4-1,19-2.8,22.9-6.1c10.6-8.8-16.1-14-34.9-14.8c-22.5-1-40.9-7.1-33.1-16.4c5.4-6.5,23-10.9,28.4-17.4
			c2.2-2.6,2.2-5.4,0.7-8.1c-14.3-26.7-89-24.4-116.9-26.4c-51.5-3.7-103.3-4.4-154.9-4.7c-117.2-0.8-234.5,0.5-351.7,2.5
			C348.1,594.8,313.2,595.7,278.3,596.4z"/>
		<g>
			<g>
				<g>
					<polygon class="st3" points="198.3,689 207,697.4 222.4,708.4 222.1,701.4 215,691.7 199.6,680.7 					"/>
					<polygon class="st4" points="212.2,432.7 208.1,458.1 224.5,573.4 197.9,686.2 213.9,692.1 274.3,559.6 279.6,518.4 
						277.3,432.2 					"/>
				</g>
				<g>
					<polygon class="st4" points="320.6,431.7 330.8,539.2 322,679.6 306.4,680.9 286,553.7 254,427.5 					"/>
					<polygon class="st3" points="316.4,687.4 323.9,694.5 331.6,685.3 322.5,677.6 305.7,679 					"/>
				</g>
				<g>
					<path class="st5" d="M249.5,301.6c-4.6,1.7-9.1,3.4-13.7,5.2c-1.8-3.5-3.3-7.1-4.5-10.8c-4.3,0.5-9.4,0.7-11.9-2.8
						c-0.8-1.1-1.2-2.4-1.6-3.7c-1.6-5.4-3.2-10.7-4.8-16.1c-0.5-1.9-1.1-3.8-0.9-5.7c0.4-3.4,3-6.1,5.7-8.1
						c7-5.1,16.1-7.6,24.5-5.5c2.2,0.6,4.4,1.4,6.1,3c2.6,2.5,3.4,6.2,4.1,9.6c0.7,3.2,1.3,6.4,2,9.6c0.8,3.7,1.4,8-1.2,10.8
						c-1.3,1.5-3.4,2.3-4.4,4C247.1,294.2,249.5,298,249.5,301.6z"/>
					<path class="st3" d="M269.2,230.6c0.1-1.6,0.4-3.2,0.7-4.8c0.8-3.4,2.1-6.6,2.4-10.1c0.2-3.5-1-7.4-4.1-8.9
						c-2-1-4.4-0.8-6.6-0.4c-7.3,1.3-14.2,4.5-19.8,9.3c-5.3,4.6-9.5,9.8-16.8,10.6c-6.8,0.7-10.6,3.6-15.5,8.8
						c-5.4,5.6-13.9,10.4-18.1,16.7c-1.8,2.6-2.7,5.7-3.1,8.8c-1.2,10.8,4.3,22.2,13.7,27.8c2.1,1.3,4.3,2.2,6.6,3.1
						c4.7,1.8,10.5,4.1,15.3,3.3c-1.8-3.8-11.1-14.1-9.8-18.6c2.2-7.2,13.5-10.7,19.8-12.3c6.9-1.8,14.7-0.1,21.3-2.2
						c4.8-1.5,9.4-6.5,12-10.7C270.6,245.8,268.7,236.4,269.2,230.6z"/>
				</g>
				<path class="st6" d="M192.5,488.1c0.9,9.8,2.8,23,6.6,23c0.7,0,1.3-0.4,1.9-0.8c6.1-4.3,10.1-9.8,16.1-14
					c6.3-4.4,13.8-7.2,21.1-9.4c11-3.4,22.4-6,33.8-7.5c12.4-1.7,37-2.1,37-2.1c6.9-2,13.3-5.2,19.7-8.2c11.1-5.2,22.5-10,32.6-16.6
					c3.3-2.1,12.2-8.4,8.3-12.6c-3-3.2-12.1-4.5-16.3-6.2c-13.7-5.5-26-13.6-34.9-25.7c-12.1-16.5-20.8-38.2-27.5-57.5
					c-1.2-3.6-2.4-7.2-3.5-10.8c-0.6-2.1-1.5-10-3.2-11.1c-17.1-11.6-23.1-22.7-41.6-17.6c-42.3,11.7-39,13.3-46.1,35.5
					c-2.9,8.9-5.4,32.3-5.8,41.6c-0.5,11.3-0.9,41.3-0.9,52.6c0,12.6,0.5,25.1,1.7,37.6C191.9,479.5,192.1,483.4,192.5,488.1z"/>
				<g>
					<polygon class="st7" points="268.5,285.8 291.9,315 218.5,345.9 209,331.4 					"/>
					<polygon class="st7" points="223.9,301.5 242.3,303.3 273.7,318.6 303.3,439.6 252.9,443.3 241.7,337.5 212.5,327.5 
						203.7,320.8 					"/>
				</g>
			</g>
			<g>
				<g>
					<path class="st8" d="M746.6,168c-36.6-39.8-94.9-48.9-140-23.6c-0.1,0-0.2,0.1-0.3,0.1c-13.5,9.3-23.3,23.4-24.5,42.3
						c-0.3,4.1-6.4,3.9-6.1-0.3c1.3-20.2,11.2-35.6,25.2-45.9c-30.6-53-92-81.1-147.9-63.1c-55,17.7-89.9,73.8-86.9,134.5
						c5,0.1,10,0.6,15,1.7c19.9,4.4,37.3,16,51.3,31.5c2.8,3.1-1.6,7.5-4.4,4.4c-4.6-5.1-9.7-9.8-15.2-13.8
						c-20.3-15-45.7-20.9-69.3-14.1c-23.9,6.9-46.7,26.8-58.5,49.4c-13.5,26-16.7,57.4-7.3,86.2c9.3,28.2,29.7,51.7,55.6,63.8
						c24,11.2,49.3,13,74.6,8c16.6-3.2,33-6.9,49.5-10.5c47.1-10.5,94.1-21.4,141-32.4c20.6-4.8,41.3-9.7,61.9-14.6
						c16.9-4,35.1-6.8,51-14.2c51.9-24.1,80.6-87.1,60.9-145.8C766.9,195.4,758.1,180.5,746.6,168z"/>
				</g>
				<path class="st9" d="M772.4,212.4c-0.3-1-0.7-2-1-3c5.3,29.6-2.2,59.7-26,79.6c-24.4,20.5-51.6,38.8-80.9,49.5
					c-76.9,28.1-160.7,49.7-240.2,69.7c-25.4,6.4-49.5,10.6-80.9,16.1c-0.3,0-0.4,0.4-0.6,0.6c18.1,6.5,37.1,8.2,56.2,6.4
					c3-0.4,6.1-0.9,9.1-1.5c16.6-3.2,33-6.9,49.5-10.5c46.2-10.3,92.3-21,138.4-31.8c5.8-1.4,11.6-2.7,17.3-4.1
					c21.3-5.1,42.7-10.2,64-15.3c6.2-1.5,12.6-2.9,19-4.3c5.2-1.6,10.2-3.4,15.1-5.6C763.4,334.1,792,271.1,772.4,212.4z"/>
			</g>
			<g>
				<polygon class="st3" points="916.9,682.4 917.7,690.3 903.4,700.1 895.1,693.2 901.8,684.4 916.1,674.6 				"/>
				<polygon class="st7" points="916.8,441.6 919.2,465.5 897.7,547.7 917.5,679.8 902.8,684.8 864.2,555.8 858.1,518.3 
					858.4,438.9 				"/>
			</g>
			<g>
				<polygon class="st7" points="804,468.2 834.6,689.5 848.6,689.5 851.3,547.7 876.9,448.1 				"/>
				<polygon class="st3" points="848.6,691.8 848.5,695.7 843.4,703.6 825.8,695.7 833.4,687.7 848.6,687.8 				"/>
			</g>
			<path class="st6" d="M839.1,306.3c10.6-8.7,36.1-3.7,49.5-3.7c2.8,29.4,8.1,58.8,14.7,87.6c5.7,24.9,16.5,49.2,21.4,74
				c4.3,22.2,13.7,38.1,31.4,53.3c2.8,2.4,5.9,5.4,5.1,9c-0.5,2.1-2.4,3.6-4.2,4.9c-17.9,12.2-40.8,13.5-62.4,13.8
				c-16.4,0.3-32.9,0.2-49.3-0.1c-21.4-0.4-45.2-2.9-63.4-15.3c-1.2-0.8-2.4-1.8-2.5-3.2c-0.1-1.2,0.7-2.2,1.4-3.2
				c12.8-17.6,11.3-46.7,13.8-67.3c2.8-23.3,5.7-46.6,11.2-69.4c3.6-14.8,8.4-29.2,14.2-43.3c4.5-10.7,9.8-28.2,18.1-36.4
				C838.5,306.8,838.8,306.6,839.1,306.3z"/>
			<g>
				<path class="st4" d="M827.1,210.5c-6.1-10.2-15-18.1-25.8-22.8c-7.3-3.2-15-4-22.4-4.7l-21.5-2.2c-10-1-19,0-27.5,3
					c-10.8,3.9-20.7,11.9-27.1,22c-4.6,7.3-7.5,15.6-8.4,24.6L682.7,344l17.1,1.8l11.7-114.2c0.5-4.5,1.3-7.5,3.2-11.9
					c1.5-3.4,4.8-8.2,7.5-10.9c3.6-3.6,6.9-5.9,11.6-8c4.3-2,8.5-3,14-3.3c0.2,0,1,0,2.8,0c0.8,0,1.6,0.1,2.6,0.2l30.1,3.1
					c4.6,0.5,7.6,1.3,12,3.2c3.4,1.5,8.2,4.8,10.9,7.5c3.6,3.6,5.9,6.9,8,11.6c2,4.3,3,8.5,3.3,14c0,0.2,0,1,0,2.8
					c0,0.8-0.1,1.6-0.2,2.6l-11.8,114.2l17.1,1.8l11.7-114.2C835.8,232.4,833.2,220.8,827.1,210.5z"/>
				<g>
					<path class="st4" d="M667.6,299.2l-12.7,123.9c-1.7,16.8,10.5,31.7,27.2,33.5l114.1,11.7c16.8,1.7,31.7-10.5,33.5-27.2
						l12.7-123.9L667.6,299.2z M752.7,388.2l-3.1,29.8c-0.2,2.2-3,3.7-6.2,3.4l-0.1,0c-3.2-0.3-5.6-2.4-5.4-4.6L741,387
						c-9.6-3.6-16-13.3-14.9-24c1.3-12.7,12.6-21.9,25.3-20.6c12.7,1.3,21.9,12.6,20.6,25.3C771,378.4,762.8,386.7,752.7,388.2z"/>
				</g>
				<path class="st9" d="M677,455.4L677,455.4c1.6,0.5,3.3,0.8,5.1,1l114.1,11.7c16.8,1.7,31.7-10.5,33.5-27.2l5.8-56.3
					C816.3,472.2,677.6,455.4,677,455.4z"/>
			</g>
			<polygon class="st5" points="339.8,301.3 344.5,288.7 351.1,283.7 353.3,285.4 351.1,290.3 360.4,282.6 364.8,287 359.3,301.3 
				347.8,308.8 			"/>
			<polygon class="st6" points="206.2,325.6 297.6,346.8 336.6,298.2 352.5,312.7 312.3,376.9 204.7,372.7 196.7,347.3 			"/>
			<polygon class="st10" points="893.7,312.7 827.7,358.1 787.1,332.7 778.4,345.7 826.2,387.8 892.2,355.3 			"/>
			<g>
				<path class="st3" d="M870.4,269.5c-8.6,1.2-15.5,4.8-17.5,13.3c-4-4.8-5.5-11.6-3.9-17.7c1.6-6.1,6.3-11.2,12.2-13.4
					c4.8,3.4,8.2,8.7,9.3,14.5L870.4,269.5z"/>
				<path class="st5" d="M861.1,308.9c-6.3-3-10.4-9.7-11.5-16.6c-1.2-6.9,0.2-14,2.4-20.7c7.1-22.2,35.1-14.8,40.9,4.7
					C897.9,293.2,879.5,317.6,861.1,308.9z"/>
				<path class="st3" d="M868.7,464.2c-4-3.1-3.6-9.1-4.6-14.1c-1-5-7.3-9.9-10.6-6.1c-7-2.9-10.7-11-10.7-18.6c0-7.6,3-14.8,6-21.8
					c6.5-15.5,12.6-31.2,19.6-46.5c6.6-14.4,9.2-30.3,11.9-45.7c1.3-7.7-0.5-15.7-3.7-22.8c-3.2-7.1-7.8-13.5-12.3-19.9
					c-1.9-2.7-3.8-5.5-4.1-8.7c-0.3-3.6,1.6-7.1,4.2-9.5c4.1-3.8,8.5-5.3,13.9-4.8c18.9,1.9,31.6,14.8,34.7,33.8
					c2.6,16.1-1.6,32.4-4.6,48.4c-4.5,24.1-3,52.7,8.7,74.5c4.8,8.9,10.1,17.8,11.3,27.8c1.2,10-3.2,21.5-12.7,25
					c-3.7,1.4-7.9,1.4-11.2,3.5c-3.5,2.2-4.3,6.6-1.8,9.8c-5,6.6-8.9,0.9-13.9-1.1C882.5,464.9,873.8,468.1,868.7,464.2z"/>
			</g>
			<polygon class="st5" points="785.2,335.6 782.1,327.6 767.6,324.7 765.4,330.5 775.5,339.2 781.6,341 			"/>
		</g>
	</g>
</g>
</svg>
